CharSym-Regular.ufo
<glyph name="percent" format="2">
  <advance width="1821"/>
  <unicode hex="0025"/>
  <outline>
    <contour>
      <point x="1668" y="363" type="curve"/>
      <point x="1667" y="609"/>
      <point x="1568" y="734"/>
      <point x="1369" y="739" type="curve"/>
      <point x="1170" y="734"/>
      <point x="1070" y="608"/>
      <point x="1070" y="363" type="curve" smooth="yes"/>
      <point x="1070" y="113"/>
      <point x="1170" y="-15"/>
      <point x="1369" y="-20" type="curve"/>
      <point x="1568" y="-15"/>
      <point x="1667" y="112"/>
    </contour>
    <contour>
      <point x="1194" y="1450" type="line"/>
      <point x="411" y="0" type="line"/>
      <point x="586" y="0" type="line"/>
      <point x="1369" y="1450" type="line"/>
    </contour>
    <contour>
      <point x="1517" y="363" type="curve"/>
      <point x="1516" y="188"/>
      <point x="1466" y="99"/>
      <point x="1369" y="99" type="curve" smooth="yes"/>
      <point x="1273" y="99"/>
      <point x="1221" y="188"/>
      <point x="1221" y="363" type="curve" smooth="yes"/>
      <point x="1221" y="532"/>
      <point x="1273" y="619"/>
      <point x="1369" y="619" type="curve" smooth="yes"/>
      <point x="1466" y="619"/>
      <point x="1516" y="532"/>
    </contour>
    <contour>
      <point x="710" y="1094" type="curve"/>
      <point x="709" y="1340"/>
      <point x="610" y="1465"/>
      <point x="411" y="1470" type="curve"/>
      <point x="212" y="1465"/>
      <point x="112" y="1339"/>
      <point x="112" y="1094" type="curve" smooth="yes"/>
      <point x="112" y="844"/>
      <point x="212" y="716"/>
      <point x="411" y="711" type="curve"/>
      <point x="610" y="716"/>
      <point x="709" y="843"/>
    </contour>
    <contour>
      <point x="559" y="1094" type="curve"/>
      <point x="558" y="919"/>
      <point x="508" y="830"/>
      <point x="411" y="830" type="curve" smooth="yes"/>
      <point x="315" y="830"/>
      <point x="263" y="919"/>
      <point x="263" y="1094" type="curve" smooth="yes"/>
      <point x="263" y="1263"/>
      <point x="315" y="1350"/>
      <point x="411" y="1350" type="curve" smooth="yes"/>
      <point x="508" y="1350"/>
      <point x="558" y="1263"/>
    </contour>
  </outline>
</glyph>
<glyph name="parenleft" format="2">
  <advance width="682"/>
  <unicode hex="0028"/>
  <outline>
    <contour>
      <point x="601" y="-417" type="line"/>
      <point x="590" y="-396"/>
      <point x="516" y="-265"/>
      <point x="505" y="-244" type="curve" smooth="yes"/>
      <point x="377" y="3"/>
      <point x="313" y="263"/>
      <point x="313" y="518" type="curve" smooth="yes"/>
      <point x="313" y="845"/>
      <point x="425" y="1135"/>
      <point x="601" y="1452" type="curve"/>
      <point x="482" y="1452" type="line"/>
      <point x="247" y="1132"/>
      <point x="137" y="855"/>
      <point x="137" y="526" type="curve" smooth="yes"/>
      <point x="137" y="206"/>
      <point x="237" y="-81"/>
      <point x="482" y="-417" type="curve"/>
    </contour>
  </outline>
</glyph>
<glyph name="plus" format="2">
  <advance width="1196"/>
  <unicode hex="002B"/>
  <outline>
    <contour>
      <point x="1073" y="764" type="line"/>
      <point x="681" y="764" type="line"/>
      <point x="681" y="1155" type="line"/>
      <point x="522" y="1155" type="line"/>
      <point x="522" y="764" type="line"/>
      <point x="130" y="764" type="line"/>
      <point x="130" y="604" type="line"/>
      <point x="522" y="604" type="line"/>
      <point x="522" y="213" type="line"/>
      <point x="681" y="213" type="line"/>
      <point x="681" y="604" type="line"/>
      <point x="1073" y="604" type="line"/>
    </contour>
  </outline>
</glyph>
<glyph name="comma" format="2">
  <advance width="569"/>
  <unicode hex="002C"/>
  <outline>
    <contour>
      <point x="394" y="192" type="line"/>
      <point x="202" y="192" type="line"/>
      <point x="202" y="0" type="line"/>
      <point x="298" y="0" type="line"/>
      <point x="298" y="-56" type="line"/>
      <point x="261" y="-167"/>
      <point x="266" y="-167"/>
      <point x="186" y="-215" type="curve"/>
      <point x="218" y="-253"/>
      <point x="213" y="-247"/>
      <point x="234" y="-287" type="curve"/>
      <point x="344" y="-217"/>
      <point x="338" y="-237"/>
      <point x="394" y="-71" type="curve"/>
    </contour>
  </outline>
</glyph>
<glyph name="two" format="2">
  <advance width="1139"/>
  <unicode hex="0032"/>
  <outline>
    <contour>
      <point x="1017" y="150" type="line"/>
      <point x="294" y="150" type="line"/>
      <point x="309" y="202"/>
      <point x="444" y="335"/>
      <point x="698" y="550" type="curve"/>
      <point x="911" y="707"/>
      <point x="1017" y="873"/>
      <point x="1017" y="1050" type="curve" smooth="yes"/>
      <point x="1017" y="1317"/>
      <point x="851" y="1466"/>
      <point x="561" y="1466" type="curve" smooth="yes"/>
      <point x="297" y="1466"/>
      <point x="145" y="1332"/>
      <point x="106" y="1065" type="curve"/>
      <point x="106" y="1057"/>
      <point x="159" y="1049"/>
      <point x="266" y="1040" type="curve"/>
      <point x="289" y="1233"/>
      <point x="389" y="1336"/>
      <point x="565" y="1348" type="curve"/>
      <point x="764" y="1333"/>
      <point x="858" y="1240"/>
      <point x="858" y="1068" type="curve" smooth="yes"/>
      <point x="858" y="921"/>
      <point x="758" y="773"/>
      <point x="558" y="624" type="curve"/>
      <point x="462" y="544"/>
      <point x="361" y="454"/>
      <point x="248" y="351" type="curve"/>
      <point x="129" y="230"/>
      <point x="74" y="115"/>
      <point x="74" y="0" type="curve"/>
      <point x="1017" y="0" type="line"/>
    </contour>
  </outline>
</glyph>
<glyph name="three" format="2">
  <advance width="1139"/>
  <unicode hex="0033"/>
  <outline>
    <contour>
      <point x="1033" y="420" type="curve"/>
      <point x="1033" y="580"/>
      <point x="957" y="699"/>
      <point x="753" y="790" type="curve"/>
      <point x="894" y="866"/>
      <point x="959" y="960"/>
      <point x="959" y="1085" type="curve" smooth="yes"/>
      <point x="959" y="1324"/>
      <point x="785" y="1462"/>
      <point x="532" y="1462" type="curve" smooth="yes"/>
      <point x="316" y="1462"/>
      <point x="178" y="1340"/>
      <point x="117" y="1096" type="curve"/>
      <point x="218" y="1077"/>
      <point x="268" y="1067"/>
      <point x="271" y="1067" type="curve" smooth="yes"/>
      <point x="270" y="1067"/>
      <point x="285" y="1109"/>
      <point x="314" y="1193" type="curve" smooth="yes"/>
      <point x="343" y="1278"/>
      <point x="421" y="1344"/>
      <point x="549" y="1344" type="curve" smooth="yes"/>
      <point x="714" y="1344"/>
      <point x="800" y="1256"/>
      <point x="800" y="1089" type="curve" smooth="yes"/>
      <point x="800" y="916"/>
      <point x="669" y="828"/>
      <point x="472" y="828" type="curve"/>
      <point x="454" y="706" type="line"/>
      <point x="487" y="710"/>
      <point x="518" y="712"/>
      <point x="548" y="712" type="curve" smooth="yes"/>
      <point x="760" y="712"/>
      <point x="865" y="616"/>
      <point x="865" y="412" type="curve" smooth="yes"/>
      <point x="865" y="213"/>
      <point x="747" y="98"/>
      <point x="553" y="98" type="curve" smooth="yes"/>
      <point x="389" y="98"/>
      <point x="285" y="200"/>
      <point x="234" y="381" type="curve"/>
      <point x="98" y="374" type="line"/>
      <point x="149" y="111"/>
      <point x="300" y="-20"/>
      <point x="553" y="-20" type="curve" smooth="yes"/>
      <point x="854" y="-20"/>
      <point x="1014" y="148"/>
    </contour>
  </outline>
</glyph>
<glyph name="seven" format="2">
  <advance width="1139"/>
  <unicode hex="0037"/>
  <outline>
    <contour>
      <point x="1033" y="1453" type="line"/>
      <point x="114" y="1453" type="line"/>
      <point x="114" y="1311" type="line"/>
      <point x="830" y="1311" type="line"/>
      <point x="564" y="941"/>
      <point x="350" y="476"/>
      <point x="318" y="0" type="curve"/>
      <point x="478" y="0" type="line"/>
      <point x="478" y="189"/>
      <point x="540" y="413"/>
      <point x="640" y="657" type="curve" smooth="yes"/>
      <point x="741" y="902"/>
      <point x="880" y="1134"/>
      <point x="1033" y="1330" type="curve"/>
    </contour>
  </outline>
</glyph>
<glyph name="less" format="2">
  <advance width="1196"/>
  <unicode hex="003C"/>
  <outline>
    <contour>
      <point x="1073" y="374" type="line"/>
      <point x="322" y="704" type="line"/>
      <point x="1073" y="1015" type="line"/>
      <point x="1073" y="1183" type="line"/>
      <point x="130" y="784" type="line"/>
      <point x="130" y="625" type="line"/>
      <point x="1073" y="217" type="line"/>
    </contour>
  </outline>
</glyph>
<glyph name="question" format="2">
  <advance width="1139"/>
  <unicode hex="003F"/>
  <outline>
    <contour>
      <point x="1025" y="1076" type="curve" smooth="yes"/>
      <point x="1025" y="1307"/>
      <point x="826" y="1462"/>
      <point x="569" y="1462" type="curve" smooth="yes"/>
      <point x="324" y="1462"/>
      <point x="222" y="1415"/>
      <point x="106" y="1083" type="curve"/>
      <point x="164" y="1062"/>
      <point x="180" y="1057"/>
      <point x="266" y="1052" type="curve"/>
      <point x="293" y="1235"/>
      <point x="414" y="1344"/>
      <point x="569" y="1344" type="curve" smooth="yes"/>
      <point x="732" y="1344"/>
      <point x="866" y="1205"/>
      <point x="866" y="1067" type="curve" smooth="yes"/>
      <point x="866" y="931"/>
      <point x="738" y="856"/>
      <point x="642" y="755" type="curve" smooth="yes"/>
      <point x="574" y="683"/>
      <point x="525" y="582"/>
      <point x="490" y="465" type="curve"/>
      <point x="490" y="357" type="line"/>
      <point x="632" y="357" type="line"/>
      <point x="632" y="396"/>
      <point x="637" y="440"/>
      <point x="649" y="487" type="curve" smooth="yes"/>
      <point x="674" y="581"/>
      <point x="656" y="574"/>
      <point x="808" y="706" type="curve" smooth="yes"/>
      <point x="968" y="845"/>
      <point x="1025" y="939"/>
    </contour>
    <contour>
      <point x="657" y="174" type="line"/>
      <point x="482" y="174" type="line"/>
      <point x="482" y="0" type="line"/>
      <point x="657" y="0" type="line"/>
    </contour>
  </outline>
</glyph>
<glyph name="at" format="2">
  <advance width="2079"/>
  <unicode hex="0040"/>
  <outline>
    <contour>
      <point x="1799" y="12" type="line"/>
      <point x="1575" y="-212"/>
      <point x="1451" y="-282"/>
      <point x="1104" y="-282" type="curve" smooth="yes"/>
      <point x="556" y="-282"/>
      <point x="249" y="4"/>
      <point x="249" y="472" type="curve" smooth="yes"/>
      <point x="249" y="957"/>
      <point x="604" y="1342"/>
      <point x="1072" y="1342" type="curve" smooth="yes"/>
      <point x="1458" y="1342"/>
      <point x="1783" y="1061"/>
      <point x="1783" y="708" type="curve" smooth="yes"/>
      <point x="1783" y="456"/>
      <point x="1577" y="156"/>
      <point x="1399" y="156" type="curve" smooth="yes"/>
      <point x="1358" y="156"/>
      <point x="1340" y="171"/>
      <point x="1327" y="224" type="curve"/>
      <point x="1496" y="1026" type="line"/>
      <point x="1328" y="1026" type="line"/>
      <point x="1325" y="989"/>
      <point x="1304" y="908"/>
      <point x="1296" y="883" type="curve"/>
      <point x="1211" y="968"/>
      <point x="1162" y="1014"/>
      <point x="1148" y="1022" type="curve" smooth="yes"/>
      <point x="1106" y="1046"/>
      <point x="1057" y="1058"/>
      <point x="1001" y="1058" type="curve" smooth="yes"/>
      <point x="746" y="1058"/>
      <point x="497" y="752"/>
      <point x="497" y="436" type="curve" smooth="yes"/>
      <point x="497" y="196"/>
      <point x="648" y="-4"/>
      <point x="845" y="-4" type="curve" smooth="yes"/>
      <point x="949" y="-4"/>
      <point x="1019" y="31"/>
      <point x="1144" y="156" type="curve"/>
      <point x="1159" y="121"/>
      <point x="1174" y="82"/>
      <point x="1191" y="37" type="curve"/>
      <point x="1212" y="10"/>
      <point x="1258" y="-4"/>
      <point x="1327" y="-4" type="curve" smooth="yes"/>
      <point x="1631" y="-4"/>
      <point x="1919" y="340"/>
      <point x="1919" y="696" type="curve" smooth="yes"/>
      <point x="1919" y="1156"/>
      <point x="1529" y="1470"/>
      <point x="1084" y="1470" type="curve" smooth="yes"/>
      <point x="845" y="1470"/>
      <point x="645" y="1403"/>
      <point x="484" y="1269" type="curve" smooth="yes"/>
      <point x="268" y="1088"/>
      <point x="121" y="750"/>
      <point x="121" y="464" type="curve" smooth="yes"/>
      <point x="121" y="-77"/>
      <point x="508" y="-410"/>
      <point x="1136" y="-410" type="curve" smooth="yes"/>
      <point x="1510" y="-410"/>
      <point x="1773" y="-278"/>
      <point x="1967" y="12" type="curve"/>
    </contour>
    <contour>
      <point x="1231" y="636" type="curve" smooth="yes"/>
      <point x="1231" y="395"/>
      <point x="1069" y="132"/>
      <point x="885" y="132" type="curve" smooth="yes"/>
      <point x="769" y="132"/>
      <point x="681" y="261"/>
      <point x="681" y="432" type="curve" smooth="yes"/>
      <point x="681" y="667"/>
      <point x="844" y="924"/>
      <point x="1013" y="924" type="curve" smooth="yes"/>
      <point x="1145" y="924"/>
      <point x="1231" y="809"/>
    </contour>
  </outline>
</glyph>
<glyph name="L" format="2">
  <advance width="1139"/>
  <unicode hex="004C"/>
  <outline>
    <contour>
      <point x="1057" y="142" type="line"/>
      <point x="330" y="142" type="line"/>
      <point x="330" y="1450" type="line"/>
      <point x="162" y="1450" type="line"/>
      <point x="162" y="0" type="line"/>
      <point x="1057" y="0" type="line"/>
    </contour>
  </outline>
</glyph>
<glyph name="P" format="2">
  <advance width="1366"/>
  <unicode hex="0050"/>
  <outline>
    <contour>
      <point x="1255" y="1041" type="curve" smooth="yes"/>
      <point x="1255" y="1310"/>
      <point x="1085" y="1448"/>
      <point x="754" y="1448" type="curve" smooth="yes"/>
      <point x="170" y="1448" type="line"/>
      <point x="170" y="0" type="line"/>
      <point x="337" y="0" type="line"/>
      <point x="337" y="607" type="line"/>
      <point x="811" y="607" type="line"/>
      <point x="1072" y="610"/>
      <point x="1255" y="764"/>
    </contour>
    <contour>
      <point x="1074" y="1037" type="curve" smooth="yes"/>
      <point x="1074" y="851"/>
      <point x="951" y="763"/>
      <point x="778" y="758" type="curve"/>
      <point x="345" y="758" type="line"/>
      <point x="345" y="1290" type="line"/>
      <point x="844" y="1290" type="line"/>
      <point x="1019" y="1240"/>
      <point x="1074" y="1176"/>
    </contour>
  </outline>
</glyph>
<glyph name="Q" format="2">
  <advance width="1593"/>
  <unicode hex="0051"/>
  <outline>
    <contour>
      <point x="1496" y="3" type="curve"/>
      <point x="1422" y="29"/>
      <point x="1308" y="93"/>
      <point x="1249" y="146" type="curve"/>
      <point x="1406" y="303"/>
      <point x="1473" y="474"/>
      <point x="1473" y="715" type="curve" smooth="yes"/>
      <point x="1473" y="1149"/>
      <point x="1194" y="1470"/>
      <point x="790" y="1470" type="curve" smooth="yes"/>
      <point x="371" y="1470"/>
      <point x="105" y="1178"/>
      <point x="105" y="719" type="curve" smooth="yes"/>
      <point x="105" y="287"/>
      <point x="389" y="-22"/>
      <point x="786" y="-22" type="curve" smooth="yes"/>
      <point x="939" y="-22"/>
      <point x="1074" y="22"/>
      <point x="1141" y="68" type="curve"/>
      <point x="1144" y="68"/>
      <point x="1255" y="-16"/>
      <point x="1447" y="-107" type="curve"/>
      <point x="1464" y="-78"/>
      <point x="1481" y="-38"/>
    </contour>
    <contour>
      <point x="1290" y="711" type="curve" smooth="yes"/>
      <point x="1290" y="506"/>
      <point x="1249" y="382"/>
      <point x="1118" y="227" type="curve"/>
      <point x="1065" y="288"/>
      <point x="959" y="347"/>
      <point x="850" y="379" type="curve"/>
      <point x="845" y="348"/>
      <point x="832" y="310"/>
      <point x="816" y="263" type="curve"/>
      <point x="862" y="255"/>
      <point x="972" y="201"/>
      <point x="1000" y="170" type="curve"/>
      <point x="898" y="122"/>
      <point x="869" y="120"/>
      <point x="790" y="120" type="curve" smooth="yes"/>
      <point x="499" y="120"/>
      <point x="288" y="360"/>
      <point x="288" y="715" type="curve" smooth="yes"/>
      <point x="288" y="1071"/>
      <point x="487" y="1320"/>
      <point x="790" y="1320" type="curve" smooth="yes"/>
      <point x="1104" y="1320"/>
      <point x="1290" y="1064"/>
    </contour>
  </outline>
</glyph>
<glyph name="T" format="2">
  <advance width="1251"/>
  <unicode hex="0054"/>
  <outline>
    <contour>
      <point x="1192" y="1450" type="line"/>
      <point x="66" y="1450" type="line"/>
      <point x="66" y="1308" type="line"/>
      <point x="547" y="1308" type="line"/>
      <point x="547" y="0" type="line"/>
      <point x="712" y="0" type="line"/>
      <point x="712" y="1308" type="line"/>
      <point x="1192" y="1308" type="line"/>
    </contour>
  </outline>
</glyph>
<glyph name="W" format="2">
  <advance width="1933"/>
  <unicode hex="0057"/>
  <outline>
    <contour>
      <point x="1706" y="1450" type="line"/>
      <point x="1408" y="191" type="line"/>
      <point x="1066" y="1450" type="line"/>
      <point x="856" y="1450" type="line"/>
      <point x="514" y="191" type="line"/>
      <point x="216" y="1450" type="line"/>
      <point x="42" y="1450" type="line"/>
      <point x="399" y="0" type="line"/>
      <point x="629" y="0" type="line"/>
      <point x="961" y="1293" type="line"/>
      <point x="1293" y="0" type="line"/>
      <point x="1523" y="0" type="line"/>
      <point x="1880" y="1450" type="line"/>
    </contour>
  </outline>
</glyph>
<glyph name="Y" format="2">
  <advance width="1366"/>
  <unicode hex="0059"/>
  <outline>
    <contour>
      <point x="1121" y="1450" type="line"/>
      <point x="673" y="752" type="line"/>
      <point x="225" y="1450" type="line"/>
      <point x="18" y="1450" type="line"/>
      <point x="586" y="600" type="line"/>
      <point x="586" y="0" type="line"/>
      <point x="760" y="0" type="line"/>
      <point x="760" y="600" type="line"/>
      <point x="1328" y="1450" type="line"/>
    </contour>
  </outline>
</glyph>
<glyph name="asciicircum" format="2">
  <advance width="961"/>
  <unicode hex="005E"/>
  <outline>
    <contour>
      <point x="545" y="1468" type="line"/>
      <point x="402" y="1468" type="line"/>
      <point x="66" y="703" type="line"/>
      <point x="242" y="703" type="line"/>
      <point x="474" y="1286" type="line"/>
      <point x="721" y="703" type="line"/>
      <point x="889" y="703" type="line"/>
    </contour>
  </outline>
</glyph>
<glyph name="a" format="2">
  <advance width="1139"/>
  <unicode hex="0061"/>
  <outline>
    <contour>
      <point x="1001" y="20" type="curve"/>
      <point x="972" y="92"/>
      <point x="958" y="172"/>
      <point x="945" y="324" type="curve"/>
      <point x="945" y="803" type="line" smooth="yes"/>
      <point x="945" y="951"/>
      <point x="768" y="1074"/>
      <point x="581" y="1074" type="curve" smooth="yes"/>
      <point x="387" y="1074"/>
      <point x="158" y="906"/>
      <point x="138" y="739" type="curve"/>
      <point x="212" y="728"/>
      <point x="226" y="723"/>
      <point x="258" y="715" type="curve"/>
      <point x="306" y="864"/>
      <point x="424" y="948"/>
      <point x="577" y="948" type="curve" smooth="yes"/>
      <point x="697" y="948"/>
      <point x="766" y="899"/>
      <point x="817" y="787" type="curve"/>
      <point x="817" y="643" type="line"/>
      <point x="798" y="641"/>
      <point x="757" y="633"/>
      <point x="692" y="619" type="curve" smooth="yes"/>
      <point x="459" y="567"/>
      <point x="493" y="580"/>
      <point x="377" y="556" type="curve" smooth="yes"/>
      <point x="202" y="520"/>
      <point x="121" y="412"/>
      <point x="121" y="236" type="curve" smooth="yes"/>
      <point x="121" y="61"/>
      <point x="232" y="-20"/>
      <point x="481" y="-20" type="curve" smooth="yes"/>
      <point x="620" y="-20"/>
      <point x="716" y="23"/>
      <point x="833" y="140" type="curve"/>
      <point x="836" y="132"/>
      <point x="838" y="72"/>
      <point x="881" y="-20" type="curve"/>
      <point x="918" y="-3"/>
      <point x="962" y="9"/>
    </contour>
    <contour>
      <point x="809" y="292" type="line"/>
      <point x="709" y="205"/>
      <point x="625" y="116"/>
      <point x="481" y="116" type="curve" smooth="yes"/>
      <point x="332" y="116"/>
      <point x="257" y="160"/>
      <point x="257" y="248" type="curve" smooth="yes"/>
      <point x="257" y="320"/>
      <point x="289" y="373"/>
      <point x="354" y="408" type="curve" smooth="yes"/>
      <point x="429" y="447"/>
      <point x="756" y="495"/>
      <point x="809" y="515" type="curve"/>
    </contour>
  </outline>
</glyph>
<glyph name="d" format="2">
  <advance width="1139"/>
  <unicode hex="0064"/>
  <outline>
    <contour>
      <point x="961" y="1450" type="line"/>
      <point x="826" y="1450" type="line"/>
      <point x="825" y="939" type="line"/>
      <point x="723" y="1038"/>
      <point x="654" y="1074"/>
      <point x="541" y="1074" type="curve" smooth="yes"/>
      <point x="294" y="1074"/>
      <point x="105" y="817"/>
      <point x="105" y="521" type="curve" smooth="yes"/>
      <point x="105" y="234"/>
      <point x="294" y="-20"/>
      <point x="541" y="-20" type="curve" smooth="yes"/>
      <point x="656" y="-20"/>
      <point x="716" y="8"/>
      <point x="825" y="117" type="curve"/>
      <point x="825" y="0" type="line"/>
      <point x="961" y="0" type="line"/>
    </contour>
    <contour>
      <point x="825" y="521" type="curve" smooth="yes"/>
      <point x="825" y="302"/>
      <point x="710" y="116"/>
      <point x="541" y="116" type="curve" smooth="yes"/>
      <point x="381" y="116"/>
      <point x="241" y="299"/>
      <point x="241" y="521" type="curve" smooth="yes"/>
      <point x="241" y="732"/>
      <point x="372" y="940"/>
      <point x="541" y="940" type="curve" smooth="yes"/>
      <point x="711" y="940"/>
      <point x="825" y="756"/>
    </contour>
  </outline>
</glyph>
<glyph name="h" format="2">
  <advance width="1139"/>
  <unicode hex="0068"/>
  <outline>
    <contour>
      <point x="977" y="759" type="line" smooth="yes"/>
      <point x="977" y="944"/>
      <point x="820" y="1074"/>
      <point x="629" y="1074" type="curve" smooth="yes"/>
      <point x="504" y="1074"/>
      <point x="402" y="1024"/>
      <point x="297" y="919" type="curve"/>
      <point x="296" y="1450" type="line"/>
      <point x="162" y="1450" type="line"/>
      <point x="162" y="0" type="line"/>
      <point x="290" y="0" type="line"/>
      <point x="290" y="687" type="line" smooth="yes"/>
      <point x="290" y="810"/>
      <point x="460" y="948"/>
      <point x="621" y="948" type="curve" smooth="yes"/>
      <point x="750" y="948"/>
      <point x="849" y="851"/>
      <point x="849" y="751" type="curve" smooth="yes"/>
      <point x="849" y="0" type="line"/>
      <point x="977" y="0" type="line"/>
    </contour>
  </outline>
</glyph>
<glyph name="i" format="2">
  <advance width="455"/>
  <unicode hex="0069"/>
  <outline>
    <contour>
      <point x="297" y="1282" type="curve" smooth="yes"/>
      <point x="297" y="1338"/>
      <point x="268" y="1378"/>
      <point x="221" y="1378" type="curve" smooth="yes"/>
      <point x="174" y="1378"/>
      <point x="145" y="1331"/>
      <point x="145" y="1278" type="curve" smooth="yes"/>
      <point x="145" y="1229"/>
      <point x="177" y="1186"/>
      <point x="221" y="1186" type="curve" smooth="yes"/>
      <point x="270" y="1186"/>
      <point x="297" y="1225"/>
    </contour>
    <contour>
      <point x="282" y="1054" type="line"/>
      <point x="154" y="1054" type="line"/>
      <point x="154" y="0" type="line"/>
      <point x="282" y="0" type="line"/>
    </contour>
  </outline>
</glyph>
<glyph name="k" format="2">
  <advance width="1024"/>
  <unicode hex="006B"/>
  <outline>
    <contour>
      <point x="537" y="644" type="line"/>
      <point x="889" y="987" type="line"/>
      <point x="801" y="1074" type="line"/>
      <point x="303" y="599" type="line"/>
      <point x="303" y="1450" type="line"/>
      <point x="170" y="1450" type="line"/>
      <point x="170" y="0" type="line"/>
      <point x="298" y="0" type="line"/>
      <point x="298" y="414" type="line"/>
      <point x="442" y="545" type="line"/>
      <point x="833" y="-21" type="line"/>
      <point x="937" y="59" type="line"/>
    </contour>
  </outline>
</glyph>
<glyph name="l" format="2">
  <advance width="455"/>
  <unicode hex="006C"/>
  <outline>
    <contour>
      <point x="290" y="1450" type="line"/>
      <point x="162" y="1450" type="line"/>
      <point x="162" y="0" type="line"/>
      <point x="290" y="0" type="line"/>
    </contour>
  </outline>
</glyph>
<glyph name="m" format="2">
  <advance width="1706"/>
  <unicode hex="006D"/>
  <outline>
    <contour>
      <point x="1536" y="727" type="line" smooth="yes"/>
      <point x="1536" y="892"/>
      <point x="1375" y="1074"/>
      <point x="1203" y="1074" type="curve" smooth="yes"/>
      <point x="1032" y="1074"/>
      <point x="972" y="990"/>
      <point x="881" y="899" type="curve"/>
      <point x="804" y="1032"/>
      <point x="727" y="1074"/>
      <point x="589" y="1074" type="curve"/>
      <point x="434" y="1050"/>
      <point x="441" y="1060"/>
      <point x="296" y="915" type="curve"/>
      <point x="296" y="1054" type="line"/>
      <point x="162" y="1054" type="line"/>
      <point x="162" y="0" type="line"/>
      <point x="290" y="0" type="line"/>
      <point x="290" y="679" type="line" smooth="yes"/>
      <point x="290" y="775"/>
      <point x="473" y="948"/>
      <point x="589" y="948" type="curve" smooth="yes"/>
      <point x="686" y="948"/>
      <point x="785" y="827"/>
      <point x="785" y="719" type="curve" smooth="yes"/>
      <point x="785" y="0" type="line"/>
      <point x="913" y="0" type="line"/>
      <point x="913" y="675" type="line"/>
      <point x="956" y="798"/>
      <point x="1078" y="949"/>
      <point x="1182" y="949" type="curve" smooth="yes"/>
      <point x="1187" y="949"/>
      <point x="1192" y="949"/>
      <point x="1199" y="948" type="curve"/>
      <point x="1287" y="948"/>
      <point x="1408" y="822"/>
      <point x="1408" y="711" type="curve" smooth="yes"/>
      <point x="1408" y="0" type="line"/>
      <point x="1536" y="0" type="line"/>
    </contour>
  </outline>
</glyph>
<glyph name="s" format="2">
  <advance width="1024"/>
  <unicode hex="0073"/>
  <outline>
    <contour>
      <point x="921" y="292" type="curve" smooth="yes"/>
      <point x="921" y="418"/>
      <point x="877" y="499"/>
      <point x="585" y="579" type="curve" smooth="yes"/>
      <point x="306" y="656"/>
      <point x="257" y="692"/>
      <point x="257" y="808" type="curve" smooth="yes"/>
      <point x="257" y="892"/>
      <point x="371" y="948"/>
      <point x="501" y="948" type="curve" smooth="yes"/>
      <point x="617" y="948"/>
      <point x="729" y="881"/>
      <point x="745" y="779" type="curve"/>
      <point x="873" y="803" type="line"/>
      <point x="873" y="929"/>
      <point x="693" y="1074"/>
      <point x="509" y="1074" type="curve" smooth="yes"/>
      <point x="296" y="1074"/>
      <point x="129" y="944"/>
      <point x="129" y="808" type="curve" smooth="yes"/>
      <point x="129" y="689"/>
      <point x="186" y="601"/>
      <point x="301" y="544" type="curve" smooth="yes"/>
      <point x="314" y="537"/>
      <point x="417" y="505"/>
      <point x="621" y="444" type="curve" smooth="yes"/>
      <point x="736" y="409"/>
      <point x="793" y="360"/>
      <point x="793" y="296" type="curve" smooth="yes"/>
      <point x="793" y="200"/>
      <point x="646" y="108"/>
      <point x="513" y="108" type="curve" smooth="yes"/>
      <point x="357" y="108"/>
      <point x="289" y="152"/>
      <point x="220" y="316" type="curve"/>
      <point x="98" y="284" type="line"/>
      <point x="166" y="77"/>
      <point x="297" y="-20"/>
      <point x="513" y="-20" type="curve" smooth="yes"/>
      <point x="736" y="-20"/>
      <point x="921" y="133"/>
    </contour>
  </outline>
</glyph>
<glyph name="w" format="2">
  <advance width="1479"/>
  <unicode hex="0077"/>
  <outline>
    <contour>
      <point x="1296" y="1054" type="line"/>
      <point x="1033" y="192" type="line"/>
      <point x="809" y="1054" type="line"/>
      <point x="663" y="1054" type="line"/>
      <point x="426" y="208" type="line"/>
      <point x="186" y="1054" type="line"/>
      <point x="42" y="1054" type="line"/>
      <point x="346" y="0" type="line"/>
      <point x="506" y="0" type="line"/>
      <point x="729" y="815" type="line"/>
      <point x="953" y="0" type="line"/>
      <point x="1112" y="0" type="line"/>
      <point x="1424" y="1054" type="line"/>
    </contour>
  </outline>
</glyph>
<glyph name="y" format="2">
  <advance width="1024"/>
  <unicode hex="0079"/>
  <outline>
    <contour>
      <point x="817" y="1054" type="line"/>
      <point x="522" y="236" type="line"/>
      <point x="218" y="1054" type="line"/>
      <point x="82" y="1054" type="line"/>
      <point x="449" y="44" type="line"/>
      <point x="417" y="-55"/>
      <point x="352" y="-285"/>
      <point x="261" y="-285" type="curve" smooth="yes"/>
      <point x="198" y="-285"/>
      <point x="172" y="-266"/>
      <point x="129" y="-234" type="curve"/>
      <point x="33" y="-318" type="line"/>
      <point x="43" y="-362"/>
      <point x="161" y="-410"/>
      <point x="241" y="-410" type="curve" smooth="yes"/>
      <point x="431" y="-410"/>
      <point x="487" y="-218"/>
      <point x="583" y="38" type="curve" smooth="yes"/>
      <point x="961" y="1054" type="line"/>
    </contour>
  </outline>
</glyph>
<glyph name="bar" format="2">
  <advance width="532"/>
  <unicode hex="007C"/>
  <outline>
    <contour>
      <point x="346" y="1465" type="line"/>
      <point x="202" y="1465" type="line"/>
      <point x="202" y="-404" type="line"/>
      <point x="346" y="-404" type="line"/>
    </contour>
  </outline>
</glyph>
<glyph name="yen" format="2">
  <advance width="1237"/>
  <unicode hex="00A5"/>
  <outline>
    <contour>
      <point x="1133" y="578" type="line"/>
      <point x="718" y="578" type="line"/>
      <point x="718" y="629" type="line"/>
      <point x="802" y="784" type="line"/>
      <point x="1133" y="784" type="line"/>
      <point x="1133" y="907" type="line"/>
      <point x="869" y="907" type="line"/>
      <point x="1187" y="1493" type="line"/>
      <point x="996" y="1493" type="line"/>
      <point x="619" y="793" type="line"/>
      <point x="240" y="1493" type="line"/>
      <point x="50" y="1493" type="line"/>
      <point x="367" y="907" type="line"/>
      <point x="103" y="907" type="line"/>
      <point x="103" y="784" type="line"/>
      <point x="435" y="784" type="line"/>
      <point x="519" y="629" type="line"/>
      <point x="519" y="578" type="line"/>
      <point x="103" y="578" type="line"/>
      <point x="103" y="455" type="line"/>
      <point x="519" y="455" type="line"/>
      <point x="519" y="0" type="line"/>
      <point x="720" y="0" type="line"/>
      <point x="720" y="455" type="line"/>
      <point x="1133" y="455" type="line"/>
    </contour>
  </outline>
</glyph>
<glyph name="ctrl" format="2">
  <advance width="2289"/>
  <unicode hex="E001"/>
  <outline>
    <contour>
      <point x="2239" y="1309" type="line"/>
      <point x="2239" y="1320"/>
      <point x="2230" y="1329"/>
      <point x="2219" y="1329" type="curve" smooth="yes"/>
      <point x="2126" y="1329" type="line" smooth="yes"/>
      <point x="2115" y="1329"/>
      <point x="2106" y="1320"/>
      <point x="2106" y="1309" type="curve" smooth="yes"/>
      <point x="2106" y="257" type="line" smooth="yes"/>
      <point x="2106" y="246"/>
      <point x="2115" y="237"/>
      <point x="2126" y="237" type="curve" smooth="yes"/>
      <point x="2219" y="237" type="line" smooth="yes"/>
      <point x="2230" y="237"/>
      <point x="2239" y="246"/>
      <point x="2239" y="257" type="curve" smooth="yes"/>
    </contour>
    <contour>
      <point x="2014" y="998" type="line"/>
      <point x="1985" y="1009"/>
      <point x="1928" y="1056"/>
      <point x="1853" y="1056" type="curve" smooth="yes"/>
      <point x="1796" y="1056"/>
      <point x="1750" y="1035"/>
      <point x="1713" y="996" type="curve"/>
      <point x="1713" y="1021" type="line" smooth="yes"/>
      <point x="1713" y="1032"/>
      <point x="1704" y="1041"/>
      <point x="1693" y="1041" type="curve" smooth="yes"/>
      <point x="1595" y="1041" type="line" smooth="yes"/>
      <point x="1584" y="1041"/>
      <point x="1575" y="1032"/>
      <point x="1575" y="1021" type="curve" smooth="yes"/>
      <point x="1575" y="257" type="line" smooth="yes"/>
      <point x="1575" y="246"/>
      <point x="1584" y="237"/>
      <point x="1595" y="237" type="curve" smooth="yes"/>
      <point x="1688" y="237" type="line" smooth="yes"/>
      <point x="1699" y="237"/>
      <point x="1708" y="246"/>
      <point x="1708" y="257" type="curve" smooth="yes"/>
      <point x="1708" y="686" type="line" smooth="yes"/>
      <point x="1708" y="766"/>
      <point x="1764" y="925"/>
      <point x="1848" y="925" type="curve" smooth="yes"/>
      <point x="1876" y="925"/>
      <point x="1915" y="910"/>
      <point x="1942" y="890" type="curve"/>
      <point x="1960" y="890"/>
      <point x="2020" y="955"/>
      <point x="2026" y="972" type="curve"/>
    </contour>
    <contour>
      <point x="1475" y="282" type="line"/>
      <point x="1466" y="303"/>
      <point x="1458" y="332"/>
      <point x="1449" y="371" type="curve" smooth="yes"/>
      <point x="1446" y="382"/>
      <point x="1438" y="387"/>
      <point x="1429" y="387" type="curve" smooth="yes"/>
      <point x="1426" y="387"/>
      <point x="1423" y="387"/>
      <point x="1422" y="386" type="curve" smooth="yes"/>
      <point x="1393" y="375"/>
      <point x="1374" y="372"/>
      <point x="1350" y="372" type="curve" smooth="yes"/>
      <point x="1315" y="372"/>
      <point x="1297" y="388"/>
      <point x="1297" y="419" type="curve" smooth="yes"/>
      <point x="1297" y="924" type="line"/>
      <point x="1422" y="924" type="line" smooth="yes"/>
      <point x="1433" y="924"/>
      <point x="1442" y="933"/>
      <point x="1442" y="944" type="curve" smooth="yes"/>
      <point x="1442" y="1036" type="line" smooth="yes"/>
      <point x="1442" y="1047"/>
      <point x="1433" y="1056"/>
      <point x="1422" y="1056" type="curve" smooth="yes"/>
      <point x="1297" y="1056" type="line"/>
      <point x="1297" y="1237" type="line" smooth="yes"/>
      <point x="1297" y="1248"/>
      <point x="1288" y="1257"/>
      <point x="1277" y="1257" type="curve" smooth="yes"/>
      <point x="1184" y="1257" type="line" smooth="yes"/>
      <point x="1173" y="1257"/>
      <point x="1164" y="1248"/>
      <point x="1164" y="1237" type="curve" smooth="yes"/>
      <point x="1164" y="1056" type="line"/>
      <point x="1080" y="1056" type="line" smooth="yes"/>
      <point x="1069" y="1056"/>
      <point x="1060" y="1047"/>
      <point x="1060" y="1036" type="curve" smooth="yes"/>
      <point x="1060" y="944" type="line" smooth="yes"/>
      <point x="1060" y="933"/>
      <point x="1069" y="924"/>
      <point x="1080" y="924" type="curve" smooth="yes"/>
      <point x="1164" y="924" type="line"/>
      <point x="1164" y="408" type="line" smooth="yes"/>
      <point x="1164" y="294"/>
      <point x="1223" y="237"/>
      <point x="1340" y="237" type="curve" smooth="yes"/>
      <point x="1373" y="237"/>
      <point x="1402" y="242"/>
      <point x="1433" y="249" type="curve" smooth="yes"/>
      <point x="1460" y="254" type="line"/>
    </contour>
    <contour>
      <point x="962" y="1001" type="line"/>
      <point x="973" y="1003"/>
      <point x="978" y="1009"/>
      <point x="978" y="1020" type="curve" smooth="yes"/>
      <point x="978" y="1023"/>
      <point x="978" y="1025"/>
      <point x="977" y="1026" type="curve"/>
      <point x="918" y="1236"/>
      <point x="781" y="1341"/>
      <point x="567" y="1341" type="curve" smooth="yes"/>
      <point x="555" y="1341" type="line" smooth="yes"/>
      <point x="222" y="1336"/>
      <point x="54" y="1152"/>
      <point x="50" y="791" type="curve" smooth="yes"/>
      <point x="50" y="778" type="line" smooth="yes"/>
      <point x="50" y="413"/>
      <point x="216" y="230"/>
      <point x="548" y="229" type="curve" smooth="yes"/>
      <point x="551" y="229" type="line" smooth="yes"/>
      <point x="791" y="229"/>
      <point x="931" y="345"/>
      <point x="978" y="577" type="curve"/>
      <point x="978" y="581" type="line" smooth="yes"/>
      <point x="978" y="592"/>
      <point x="973" y="599"/>
      <point x="962" y="601" type="curve" smooth="yes"/>
      <point x="845" y="624" type="line"/>
      <point x="834" y="624"/>
      <point x="827" y="619"/>
      <point x="824" y="608" type="curve"/>
      <point x="789" y="443"/>
      <point x="692" y="362"/>
      <point x="539" y="359" type="curve"/>
      <point x="328" y="374"/>
      <point x="212" y="521"/>
      <point x="212" y="772" type="curve" smooth="yes"/>
      <point x="212" y="782" type="line" smooth="yes"/>
      <point x="215" y="1036"/>
      <point x="340" y="1184"/>
      <point x="548" y="1197" type="curve"/>
      <point x="689" y="1194"/>
      <point x="784" y="1128"/>
      <point x="823" y="992" type="curve" smooth="yes"/>
      <point x="826" y="982"/>
      <point x="833" y="977"/>
      <point x="843" y="977" type="curve" smooth="yes"/>
      <point x="846" y="977" type="line"/>
    </contour>
  </outline>
</glyph>
<glyph name="altctrl" format="2">
  <advance width="2285"/>
  <unicode hex="E002"/>
  <outline>
    <contour>
      <point x="730" y="1640" type="line"/>
      <point x="739" y="1667"/>
      <point x="748" y="1688"/>
      <point x="759" y="1719" type="curve"/>
      <point x="790" y="1640" type="line"/>
      <point x="912" y="1306" type="line"/>
      <point x="608" y="1306" type="line"/>
    </contour>
    <contour>
      <point x="1458" y="1919" type="line"/>
      <point x="1458" y="1930"/>
      <point x="1449" y="1939"/>
      <point x="1438" y="1939" type="curve" smooth="yes"/>
      <point x="1345" y="1939" type="line" smooth="yes"/>
      <point x="1334" y="1939"/>
      <point x="1325" y="1930"/>
      <point x="1325" y="1919" type="curve" smooth="yes"/>
      <point x="1325" y="867" type="line" smooth="yes"/>
      <point x="1325" y="856"/>
      <point x="1334" y="847"/>
      <point x="1345" y="847" type="curve" smooth="yes"/>
      <point x="1438" y="847" type="line" smooth="yes"/>
      <point x="1449" y="847"/>
      <point x="1458" y="856"/>
      <point x="1458" y="867" type="curve" smooth="yes"/>
    </contour>
    <contour>
      <point x="2235" y="711" type="line"/>
      <point x="2235" y="722"/>
      <point x="2226" y="731"/>
      <point x="2215" y="731" type="curve" smooth="yes"/>
      <point x="2122" y="731" type="line" smooth="yes"/>
      <point x="2111" y="731"/>
      <point x="2102" y="722"/>
      <point x="2102" y="711" type="curve" smooth="yes"/>
      <point x="2102" y="-342" type="line" smooth="yes"/>
      <point x="2102" y="-353"/>
      <point x="2111" y="-362"/>
      <point x="2122" y="-362" type="curve" smooth="yes"/>
      <point x="2215" y="-362" type="line" smooth="yes"/>
      <point x="2226" y="-362"/>
      <point x="2235" y="-353"/>
      <point x="2235" y="-342" type="curve" smooth="yes"/>
    </contour>
    <contour>
      <point x="2010" y="400" type="line"/>
      <point x="2010" y="401"/>
      <point x="2003" y="404"/>
      <point x="1996" y="408" type="curve" smooth="yes"/>
      <point x="1987" y="413" type="line" smooth="yes"/>
      <point x="1955" y="430"/>
      <point x="1906" y="457"/>
      <point x="1851" y="457" type="curve" smooth="yes"/>
      <point x="1788" y="457"/>
      <point x="1749" y="442"/>
      <point x="1710" y="398" type="curve"/>
      <point x="1710" y="423" type="line" smooth="yes"/>
      <point x="1710" y="434"/>
      <point x="1701" y="443"/>
      <point x="1690" y="443" type="curve" smooth="yes"/>
      <point x="1593" y="443" type="line" smooth="yes"/>
      <point x="1582" y="443"/>
      <point x="1573" y="434"/>
      <point x="1573" y="423" type="curve" smooth="yes"/>
      <point x="1573" y="-342" type="line" smooth="yes"/>
      <point x="1573" y="-353"/>
      <point x="1582" y="-362"/>
      <point x="1593" y="-362" type="curve" smooth="yes"/>
      <point x="1686" y="-362" type="line" smooth="yes"/>
      <point x="1697" y="-362"/>
      <point x="1706" y="-353"/>
      <point x="1706" y="-342" type="curve" smooth="yes"/>
      <point x="1706" y="87" type="line" smooth="yes"/>
      <point x="1706" y="167"/>
      <point x="1761" y="325"/>
      <point x="1845" y="325" type="curve" smooth="yes"/>
      <point x="1874" y="325"/>
      <point x="1914" y="311"/>
      <point x="1941" y="292" type="curve"/>
      <point x="1957" y="292"/>
      <point x="2018" y="357"/>
      <point x="2024" y="374" type="curve"/>
    </contour>
    <contour>
      <point x="1484" y="-332" type="line"/>
      <point x="1473" y="-306"/>
      <point x="1464" y="-276"/>
      <point x="1455" y="-241" type="curve" smooth="yes"/>
      <point x="1453" y="-231"/>
      <point x="1447" y="-226"/>
      <point x="1436" y="-226" type="curve" smooth="yes"/>
      <point x="1433" y="-226"/>
      <point x="1431" y="-226"/>
      <point x="1430" y="-227" type="curve"/>
      <point x="1422" y="-229" type="line" smooth="yes"/>
      <point x="1398" y="-236"/>
      <point x="1380" y="-241"/>
      <point x="1359" y="-241" type="curve" smooth="yes"/>
      <point x="1324" y="-241"/>
      <point x="1306" y="-225"/>
      <point x="1306" y="-194" type="curve" smooth="yes"/>
      <point x="1306" y="311" type="line"/>
      <point x="1431" y="311" type="line" smooth="yes"/>
      <point x="1442" y="311"/>
      <point x="1451" y="320"/>
      <point x="1451" y="331" type="curve" smooth="yes"/>
      <point x="1451" y="423" type="line" smooth="yes"/>
      <point x="1451" y="434"/>
      <point x="1442" y="443"/>
      <point x="1431" y="443" type="curve" smooth="yes"/>
      <point x="1306" y="443" type="line"/>
      <point x="1306" y="624" type="line" smooth="yes"/>
      <point x="1306" y="635"/>
      <point x="1297" y="644"/>
      <point x="1286" y="644" type="curve" smooth="yes"/>
      <point x="1193" y="644" type="line" smooth="yes"/>
      <point x="1182" y="644"/>
      <point x="1173" y="635"/>
      <point x="1173" y="624" type="curve" smooth="yes"/>
      <point x="1173" y="443" type="line"/>
      <point x="1089" y="443" type="line" smooth="yes"/>
      <point x="1078" y="443"/>
      <point x="1069" y="434"/>
      <point x="1069" y="423" type="curve" smooth="yes"/>
      <point x="1069" y="331" type="line" smooth="yes"/>
      <point x="1069" y="320"/>
      <point x="1078" y="311"/>
      <point x="1089" y="311" type="curve" smooth="yes"/>
      <point x="1173" y="311" type="line"/>
      <point x="1173" y="-205" type="line" smooth="yes"/>
      <point x="1173" y="-319"/>
      <point x="1232" y="-376"/>
      <point x="1349" y="-376" type="curve" smooth="yes"/>
      <point x="1382" y="-376"/>
      <point x="1411" y="-371"/>
      <point x="1442" y="-364" type="curve" smooth="yes"/>
      <point x="1469" y="-359" type="line"/>
    </contour>
    <contour>
      <point x="2006" y="892" type="line"/>
      <point x="1996" y="917"/>
      <point x="1987" y="947"/>
      <point x="1978" y="982" type="curve" smooth="yes"/>
      <point x="1976" y="992"/>
      <point x="1970" y="997"/>
      <point x="1959" y="997" type="curve" smooth="yes"/>
      <point x="1956" y="997"/>
      <point x="1953" y="997"/>
      <point x="1952" y="996" type="curve" smooth="yes"/>
      <point x="1923" y="985"/>
      <point x="1905" y="982"/>
      <point x="1880" y="982" type="curve" smooth="yes"/>
      <point x="1845" y="982"/>
      <point x="1828" y="998"/>
      <point x="1828" y="1029" type="curve" smooth="yes"/>
      <point x="1828" y="1534" type="line"/>
      <point x="1953" y="1534" type="line" smooth="yes"/>
      <point x="1964" y="1534"/>
      <point x="1973" y="1543"/>
      <point x="1973" y="1554" type="curve" smooth="yes"/>
      <point x="1973" y="1646" type="line" smooth="yes"/>
      <point x="1973" y="1657"/>
      <point x="1964" y="1666"/>
      <point x="1953" y="1666" type="curve" smooth="yes"/>
      <point x="1828" y="1666" type="line"/>
      <point x="1828" y="1847" type="line" smooth="yes"/>
      <point x="1828" y="1858"/>
      <point x="1819" y="1867"/>
      <point x="1808" y="1867" type="curve" smooth="yes"/>
      <point x="1715" y="1867" type="line" smooth="yes"/>
      <point x="1704" y="1867"/>
      <point x="1695" y="1858"/>
      <point x="1695" y="1847" type="curve" smooth="yes"/>
      <point x="1695" y="1666" type="line"/>
      <point x="1611" y="1666" type="line" smooth="yes"/>
      <point x="1600" y="1666"/>
      <point x="1591" y="1657"/>
      <point x="1591" y="1646" type="curve" smooth="yes"/>
      <point x="1591" y="1554" type="line" smooth="yes"/>
      <point x="1591" y="1543"/>
      <point x="1600" y="1534"/>
      <point x="1611" y="1534" type="curve" smooth="yes"/>
      <point x="1695" y="1534" type="line"/>
      <point x="1695" y="1018" type="line" smooth="yes"/>
      <point x="1695" y="904"/>
      <point x="1754" y="847"/>
      <point x="1871" y="847" type="curve" smooth="yes"/>
      <point x="1904" y="847"/>
      <point x="1933" y="852"/>
      <point x="1964" y="859" type="curve" smooth="yes"/>
      <point x="1991" y="864" type="line"/>
    </contour>
    <contour>
      <point x="962" y="403" type="line"/>
      <point x="973" y="406"/>
      <point x="978" y="412"/>
      <point x="978" y="423" type="curve"/>
      <point x="977" y="428" type="line" smooth="yes"/>
      <point x="919" y="637"/>
      <point x="783" y="742"/>
      <point x="568" y="742" type="curve" smooth="yes"/>
      <point x="556" y="742" type="line" smooth="yes"/>
      <point x="225" y="737"/>
      <point x="54" y="553"/>
      <point x="50" y="193" type="curve" smooth="yes"/>
      <point x="50" y="180" type="line" smooth="yes"/>
      <point x="50" y="-185"/>
      <point x="216" y="-366"/>
      <point x="547" y="-369" type="curve" smooth="yes"/>
      <point x="553" y="-369" type="line" smooth="yes"/>
      <point x="793" y="-369"/>
      <point x="933" y="-251"/>
      <point x="978" y="-22" type="curve"/>
      <point x="978" y="-18" type="line" smooth="yes"/>
      <point x="978" y="-7"/>
      <point x="973" y="0"/>
      <point x="962" y="2" type="curve" smooth="yes"/>
      <point x="844" y="25" type="line"/>
      <point x="833" y="25"/>
      <point x="826" y="20"/>
      <point x="824" y="9" type="curve" smooth="yes"/>
      <point x="789" y="-156"/>
      <point x="693" y="-237"/>
      <point x="540" y="-240" type="curve"/>
      <point x="328" y="-225"/>
      <point x="212" y="-78"/>
      <point x="212" y="173" type="curve" smooth="yes"/>
      <point x="212" y="183" type="line" smooth="yes"/>
      <point x="215" y="437"/>
      <point x="340" y="586"/>
      <point x="547" y="599" type="curve"/>
      <point x="690" y="596"/>
      <point x="785" y="530"/>
      <point x="824" y="394" type="curve" smooth="yes"/>
      <point x="827" y="384"/>
      <point x="834" y="379"/>
      <point x="844" y="379" type="curve" smooth="yes"/>
      <point x="847" y="379" type="line"/>
    </contour>
    <contour>
      <point x="419" y="847" type="line"/>
      <point x="426" y="847"/>
      <point x="435" y="853"/>
      <point x="438" y="860" type="curve" smooth="yes"/>
      <point x="557" y="1171" type="line"/>
      <point x="964" y="1171" type="line"/>
      <point x="1081" y="860" type="line" smooth="yes"/>
      <point x="1084" y="853"/>
      <point x="1093" y="847"/>
      <point x="1100" y="847" type="curve" smooth="yes"/>
      <point x="1233" y="847" type="line" smooth="yes"/>
      <point x="1246" y="847"/>
      <point x="1253" y="853"/>
      <point x="1253" y="866" type="curve" smooth="yes"/>
      <point x="1253" y="869"/>
      <point x="1253" y="872"/>
      <point x="1252" y="874" type="curve" smooth="yes"/>
      <point x="856" y="1926" type="line" smooth="yes"/>
      <point x="853" y="1933"/>
      <point x="844" y="1939"/>
      <point x="837" y="1939" type="curve" smooth="yes"/>
      <point x="684" y="1939" type="line" smooth="yes"/>
      <point x="677" y="1939"/>
      <point x="668" y="1933"/>
      <point x="665" y="1926" type="curve" smooth="yes"/>
      <point x="588" y="1719"/>
      <point x="505" y="1500"/>
      <point x="426" y="1293" type="curve" smooth="yes"/>
      <point x="267" y="874" type="line" smooth="yes"/>
      <point x="266" y="872"/>
      <point x="266" y="869"/>
      <point x="266" y="866" type="curve" smooth="yes"/>
      <point x="266" y="853"/>
      <point x="273" y="847"/>
      <point x="286" y="847" type="curve" smooth="yes"/>
    </contour>
  </outline>
</glyph>
<glyph name="back" format="2">
  <advance width="2520"/>
  <unicode hex="E004"/>
  <outline>
    <contour>
      <point x="908" y="1624" type="line"/>
      <point x="857" y="1624"/>
      <point x="813" y="1609"/>
      <point x="774" y="1579" type="curve"/>
      <point x="98" y="903" type="line" smooth="yes"/>
      <point x="66" y="871"/>
      <point x="50" y="830"/>
      <point x="50" y="787" type="curve" smooth="yes"/>
      <point x="50" y="744"/>
      <point x="66" y="703"/>
      <point x="98" y="671" type="curve" smooth="yes"/>
      <point x="756" y="16" type="line"/>
      <point x="789" y="-27"/>
      <point x="847" y="-54"/>
      <point x="908" y="-54" type="curve" smooth="yes"/>
      <point x="2263" y="-54" type="line" smooth="yes"/>
      <point x="2377" y="-54"/>
      <point x="2470" y="37"/>
      <point x="2470" y="152" type="curve" smooth="yes"/>
      <point x="2470" y="1420" type="line" smooth="yes"/>
      <point x="2470" y="1533"/>
      <point x="2377" y="1624"/>
      <point x="2263" y="1624" type="curve" smooth="yes"/>
    </contour>
    <contour>
      <point x="2078" y="522" type="line"/>
      <point x="1876" y="320" type="line"/>
      <point x="1611" y="584" type="line"/>
      <point x="1345" y="320" type="line"/>
      <point x="1142" y="522" type="line"/>
      <point x="1408" y="785" type="line"/>
      <point x="1142" y="1049" type="line"/>
      <point x="1345" y="1253" type="line"/>
      <point x="1611" y="991" type="line"/>
      <point x="1876" y="1253" type="line"/>
      <point x="2078" y="1049" type="line"/>
      <point x="1813" y="785" type="line"/>
    </contour>
  </outline>
</glyph>
<glyph name="next" format="2">
  <advance width="1945"/>
  <unicode hex="E006"/>
  <outline>
    <contour>
      <point x="1332" y="682" type="line"/>
      <point x="1361" y="711"/>
      <point x="1375" y="745"/>
      <point x="1375" y="785" type="curve" smooth="yes"/>
      <point x="1375" y="825"/>
      <point x="1361" y="861"/>
      <point x="1332" y="888" type="curve"/>
      <point x="792" y="1428" type="line" smooth="yes"/>
      <point x="763" y="1457"/>
      <point x="729" y="1471"/>
      <point x="690" y="1471" type="curve" smooth="yes"/>
      <point x="603" y="1471"/>
      <point x="544" y="1401"/>
      <point x="544" y="1326" type="curve" smooth="yes"/>
      <point x="544" y="1028" type="line"/>
      <point x="196" y="1028" type="line" smooth="yes"/>
      <point x="116" y="1028"/>
      <point x="50" y="964"/>
      <point x="50" y="882" type="curve" smooth="yes"/>
      <point x="50" y="688" type="line" smooth="yes"/>
      <point x="50" y="608"/>
      <point x="116" y="542"/>
      <point x="196" y="542" type="curve" smooth="yes"/>
      <point x="544" y="542" type="line"/>
      <point x="544" y="245" type="line" smooth="yes"/>
      <point x="544" y="169"/>
      <point x="605" y="97"/>
      <point x="689" y="97" type="curve" smooth="yes"/>
      <point x="728" y="97"/>
      <point x="765" y="113"/>
      <point x="792" y="142" type="curve"/>
    </contour>
    <contour>
      <point x="209" y="701" type="line"/>
      <point x="209" y="869" type="line"/>
      <point x="689" y="869" type="line" smooth="yes"/>
      <point x="698" y="869"/>
      <point x="702" y="873"/>
      <point x="702" y="882" type="curve" smooth="yes"/>
      <point x="702" y="1294" type="line"/>
      <point x="1211" y="785" type="line"/>
      <point x="702" y="276" type="line"/>
      <point x="702" y="688" type="line" smooth="yes"/>
      <point x="702" y="697"/>
      <point x="698" y="701"/>
      <point x="689" y="701" type="curve" smooth="yes"/>
      <point x="623" y="701" type="line"/>
    </contour>
    <contour>
      <point x="1895" y="1536" type="line"/>
      <point x="1895" y="1618"/>
      <point x="1829" y="1682"/>
      <point x="1750" y="1682" type="curve" smooth="yes"/>
      <point x="1591" y="1682" type="line" smooth="yes"/>
      <point x="1510" y="1682"/>
      <point x="1445" y="1618"/>
      <point x="1445" y="1536" type="curve" smooth="yes"/>
      <point x="1445" y="36" type="line" smooth="yes"/>
      <point x="1445" y="-46"/>
      <point x="1510" y="-110"/>
      <point x="1590" y="-110" type="curve" smooth="yes"/>
      <point x="1748" y="-110" type="line" smooth="yes"/>
      <point x="1829" y="-110"/>
      <point x="1895" y="-46"/>
      <point x="1895" y="36" type="curve" smooth="yes"/>
    </contour>
    <contour>
      <point x="1603" y="1523" type="line"/>
      <point x="1735" y="1523" type="line"/>
      <point x="1735" y="49" type="line"/>
      <point x="1603" y="49" type="line"/>
    </contour>
  </outline>
</glyph>
<glyph name="previous" format="2">
  <advance width="1945"/>
  <unicode hex="E007"/>
  <outline>
    <contour>
      <point x="613" y="887" type="line"/>
      <point x="584" y="858"/>
      <point x="570" y="824"/>
      <point x="570" y="784" type="curve" smooth="yes"/>
      <point x="569" y="743"/>
      <point x="585" y="708"/>
      <point x="613" y="681" type="curve" smooth="yes"/>
      <point x="1153" y="141" type="line" smooth="yes"/>
      <point x="1182" y="112"/>
      <point x="1216" y="97"/>
      <point x="1255" y="97" type="curve" smooth="yes"/>
      <point x="1338" y="97"/>
      <point x="1402" y="166"/>
      <point x="1402" y="243" type="curve" smooth="yes"/>
      <point x="1402" y="541" type="line"/>
      <point x="1750" y="541" type="line" smooth="yes"/>
      <point x="1829" y="541"/>
      <point x="1895" y="605"/>
      <point x="1895" y="687" type="curve" smooth="yes"/>
      <point x="1895" y="881" type="line" smooth="yes"/>
      <point x="1895" y="961"/>
      <point x="1829" y="1027"/>
      <point x="1750" y="1027" type="curve" smooth="yes"/>
      <point x="1402" y="1027" type="line"/>
      <point x="1402" y="1324" type="line" smooth="yes"/>
      <point x="1402" y="1403"/>
      <point x="1336" y="1471"/>
      <point x="1255" y="1471" type="curve" smooth="yes"/>
      <point x="1216" y="1471"/>
      <point x="1180" y="1456"/>
      <point x="1153" y="1427" type="curve"/>
    </contour>
    <contour>
      <point x="1736" y="868" type="line"/>
      <point x="1736" y="700" type="line"/>
      <point x="1256" y="700" type="line" smooth="yes"/>
      <point x="1247" y="700"/>
      <point x="1243" y="696"/>
      <point x="1243" y="687" type="curve" smooth="yes"/>
      <point x="1243" y="275" type="line"/>
      <point x="734" y="784" type="line"/>
      <point x="1243" y="1293" type="line"/>
      <point x="1243" y="881" type="line" smooth="yes"/>
      <point x="1243" y="872"/>
      <point x="1247" y="868"/>
      <point x="1256" y="868" type="curve" smooth="yes"/>
      <point x="1322" y="868" type="line"/>
    </contour>
    <contour>
      <point x="50" y="33" type="line"/>
      <point x="50" y="-49"/>
      <point x="116" y="-113"/>
      <point x="196" y="-113" type="curve" smooth="yes"/>
      <point x="354" y="-113" type="line" smooth="yes"/>
      <point x="436" y="-113"/>
      <point x="500" y="-49"/>
      <point x="500" y="33" type="curve" smooth="yes"/>
      <point x="500" y="1533" type="line" smooth="yes"/>
      <point x="500" y="1615"/>
      <point x="435" y="1679"/>
      <point x="355" y="1679" type="curve" smooth="yes"/>
      <point x="197" y="1679" type="line" smooth="yes"/>
      <point x="116" y="1679"/>
      <point x="50" y="1615"/>
      <point x="50" y="1533" type="curve" smooth="yes"/>
    </contour>
    <contour>
      <point x="342" y="46" type="line"/>
      <point x="210" y="46" type="line"/>
      <point x="210" y="1520" type="line"/>
      <point x="342" y="1520" type="line"/>
    </contour>
  </outline>
</glyph>
<glyph name="hide" format="2">
  <advance width="2381"/>
  <unicode hex="E00A"/>
  <outline>
    <contour>
      <point x="962" y="1095" type="line"/>
      <point x="962" y="1088"/>
      <point x="965" y="1085"/>
      <point x="972" y="1085" type="curve" smooth="yes"/>
      <point x="1117" y="1085" type="line" smooth="yes"/>
      <point x="1124" y="1085"/>
      <point x="1127" y="1088"/>
      <point x="1127" y="1095" type="curve" smooth="yes"/>
      <point x="1127" y="1240" type="line" smooth="yes"/>
      <point x="1127" y="1247"/>
      <point x="1124" y="1250"/>
      <point x="1117" y="1250" type="curve" smooth="yes"/>
      <point x="972" y="1250" type="line" smooth="yes"/>
      <point x="965" y="1250"/>
      <point x="962" y="1247"/>
      <point x="962" y="1240" type="curve" smooth="yes"/>
    </contour>
    <contour>
      <point x="1262" y="1095" type="line"/>
      <point x="1262" y="1088"/>
      <point x="1265" y="1085"/>
      <point x="1272" y="1085" type="curve" smooth="yes"/>
      <point x="1417" y="1085" type="line" smooth="yes"/>
      <point x="1424" y="1085"/>
      <point x="1427" y="1088"/>
      <point x="1427" y="1095" type="curve" smooth="yes"/>
      <point x="1427" y="1240" type="line" smooth="yes"/>
      <point x="1427" y="1247"/>
      <point x="1424" y="1250"/>
      <point x="1417" y="1250" type="curve" smooth="yes"/>
      <point x="1272" y="1250" type="line" smooth="yes"/>
      <point x="1265" y="1250"/>
      <point x="1262" y="1247"/>
      <point x="1262" y="1240" type="curve" smooth="yes"/>
    </contour>
    <contour>
      <point x="1862" y="1095" type="line"/>
      <point x="1862" y="1088"/>
      <point x="1865" y="1085"/>
      <point x="1872" y="1085" type="curve" smooth="yes"/>
      <point x="2017" y="1085" type="line" smooth="yes"/>
      <point x="2024" y="1085"/>
      <point x="2027" y="1088"/>
      <point x="2027" y="1095" type="curve" smooth="yes"/>
      <point x="2027" y="1240" type="line" smooth="yes"/>
      <point x="2027" y="1247"/>
      <point x="2024" y="1250"/>
      <point x="2017" y="1250" type="curve" smooth="yes"/>
      <point x="1872" y="1250" type="line" smooth="yes"/>
      <point x="1865" y="1250"/>
      <point x="1862" y="1247"/>
      <point x="1862" y="1240" type="curve" smooth="yes"/>
    </contour>
    <contour>
      <point x="812" y="1275" type="line"/>
      <point x="812" y="1268"/>
      <point x="815" y="1265"/>
      <point x="822" y="1265" type="curve" smooth="yes"/>
      <point x="967" y="1265" type="line" smooth="yes"/>
      <point x="974" y="1265"/>
      <point x="977" y="1268"/>
      <point x="977" y="1275" type="curve" smooth="yes"/>
      <point x="977" y="1420" type="line" smooth="yes"/>
      <point x="977" y="1427"/>
      <point x="974" y="1430"/>
      <point x="967" y="1430" type="curve" smooth="yes"/>
      <point x="822" y="1430" type="line" smooth="yes"/>
      <point x="815" y="1430"/>
      <point x="812" y="1427"/>
      <point x="812" y="1420" type="curve" smooth="yes"/>
    </contour>
    <contour>
      <point x="362" y="1095" type="line"/>
      <point x="362" y="1088"/>
      <point x="365" y="1085"/>
      <point x="372" y="1085" type="curve" smooth="yes"/>
      <point x="517" y="1085" type="line" smooth="yes"/>
      <point x="524" y="1085"/>
      <point x="527" y="1088"/>
      <point x="527" y="1095" type="curve" smooth="yes"/>
      <point x="527" y="1240" type="line" smooth="yes"/>
      <point x="527" y="1247"/>
      <point x="524" y="1250"/>
      <point x="517" y="1250" type="curve" smooth="yes"/>
      <point x="372" y="1250" type="line" smooth="yes"/>
      <point x="365" y="1250"/>
      <point x="362" y="1247"/>
      <point x="362" y="1240" type="curve" smooth="yes"/>
    </contour>
    <contour>
      <point x="1712" y="1275" type="line"/>
      <point x="1712" y="1268"/>
      <point x="1715" y="1265"/>
      <point x="1722" y="1265" type="curve" smooth="yes"/>
      <point x="1867" y="1265" type="line" smooth="yes"/>
      <point x="1874" y="1265"/>
      <point x="1877" y="1268"/>
      <point x="1877" y="1275" type="curve" smooth="yes"/>
      <point x="1877" y="1420" type="line" smooth="yes"/>
      <point x="1877" y="1427"/>
      <point x="1874" y="1430"/>
      <point x="1867" y="1430" type="curve" smooth="yes"/>
      <point x="1722" y="1430" type="line" smooth="yes"/>
      <point x="1715" y="1430"/>
      <point x="1712" y="1427"/>
      <point x="1712" y="1420" type="curve" smooth="yes"/>
    </contour>
    <contour>
      <point x="1412" y="1275" type="line"/>
      <point x="1412" y="1268"/>
      <point x="1415" y="1265"/>
      <point x="1422" y="1265" type="curve" smooth="yes"/>
      <point x="1567" y="1265" type="line" smooth="yes"/>
      <point x="1574" y="1265"/>
      <point x="1577" y="1268"/>
      <point x="1577" y="1275" type="curve" smooth="yes"/>
      <point x="1577" y="1420" type="line" smooth="yes"/>
      <point x="1577" y="1427"/>
      <point x="1574" y="1430"/>
      <point x="1567" y="1430" type="curve" smooth="yes"/>
      <point x="1422" y="1430" type="line" smooth="yes"/>
      <point x="1415" y="1430"/>
      <point x="1412" y="1427"/>
      <point x="1412" y="1420" type="curve" smooth="yes"/>
    </contour>
    <contour>
      <point x="1562" y="1095" type="line"/>
      <point x="1562" y="1088"/>
      <point x="1565" y="1085"/>
      <point x="1572" y="1085" type="curve" smooth="yes"/>
      <point x="1717" y="1085" type="line" smooth="yes"/>
      <point x="1724" y="1085"/>
      <point x="1727" y="1088"/>
      <point x="1727" y="1095" type="curve" smooth="yes"/>
      <point x="1727" y="1240" type="line" smooth="yes"/>
      <point x="1727" y="1247"/>
      <point x="1724" y="1250"/>
      <point x="1717" y="1250" type="curve" smooth="yes"/>
      <point x="1572" y="1250" type="line" smooth="yes"/>
      <point x="1565" y="1250"/>
      <point x="1562" y="1247"/>
      <point x="1562" y="1240" type="curve" smooth="yes"/>
    </contour>
    <contour>
      <point x="662" y="1095" type="line"/>
      <point x="662" y="1088"/>
      <point x="665" y="1085"/>
      <point x="672" y="1085" type="curve" smooth="yes"/>
      <point x="817" y="1085" type="line" smooth="yes"/>
      <point x="824" y="1085"/>
      <point x="827" y="1088"/>
      <point x="827" y="1095" type="curve" smooth="yes"/>
      <point x="827" y="1240" type="line" smooth="yes"/>
      <point x="827" y="1247"/>
      <point x="824" y="1250"/>
      <point x="817" y="1250" type="curve" smooth="yes"/>
      <point x="672" y="1250" type="line" smooth="yes"/>
      <point x="665" y="1250"/>
      <point x="662" y="1247"/>
      <point x="662" y="1240" type="curve" smooth="yes"/>
    </contour>
    <contour>
      <point x="512" y="1275" type="line"/>
      <point x="512" y="1268"/>
      <point x="515" y="1265"/>
      <point x="522" y="1265" type="curve" smooth="yes"/>
      <point x="667" y="1265" type="line" smooth="yes"/>
      <point x="674" y="1265"/>
      <point x="677" y="1268"/>
      <point x="677" y="1275" type="curve" smooth="yes"/>
      <point x="677" y="1420" type="line" smooth="yes"/>
      <point x="677" y="1427"/>
      <point x="674" y="1430"/>
      <point x="667" y="1430" type="curve" smooth="yes"/>
      <point x="522" y="1430" type="line" smooth="yes"/>
      <point x="515" y="1430"/>
      <point x="512" y="1427"/>
      <point x="512" y="1420" type="curve" smooth="yes"/>
    </contour>
    <contour>
      <point x="1862" y="1465" type="line"/>
      <point x="1862" y="1458"/>
      <point x="1865" y="1455"/>
      <point x="1872" y="1455" type="curve" smooth="yes"/>
      <point x="2017" y="1455" type="line" smooth="yes"/>
      <point x="2024" y="1455"/>
      <point x="2027" y="1458"/>
      <point x="2027" y="1465" type="curve" smooth="yes"/>
      <point x="2027" y="1610" type="line" smooth="yes"/>
      <point x="2027" y="1617"/>
      <point x="2024" y="1620"/>
      <point x="2017" y="1620" type="curve" smooth="yes"/>
      <point x="1872" y="1620" type="line" smooth="yes"/>
      <point x="1865" y="1620"/>
      <point x="1862" y="1617"/>
      <point x="1862" y="1610" type="curve" smooth="yes"/>
    </contour>
    <contour>
      <point x="1562" y="1465" type="line"/>
      <point x="1562" y="1458"/>
      <point x="1565" y="1455"/>
      <point x="1572" y="1455" type="curve" smooth="yes"/>
      <point x="1717" y="1455" type="line" smooth="yes"/>
      <point x="1724" y="1455"/>
      <point x="1727" y="1458"/>
      <point x="1727" y="1465" type="curve" smooth="yes"/>
      <point x="1727" y="1610" type="line" smooth="yes"/>
      <point x="1727" y="1617"/>
      <point x="1724" y="1620"/>
      <point x="1717" y="1620" type="curve" smooth="yes"/>
      <point x="1572" y="1620" type="line" smooth="yes"/>
      <point x="1565" y="1620"/>
      <point x="1562" y="1617"/>
      <point x="1562" y="1610" type="curve" smooth="yes"/>
    </contour>
    <contour>
      <point x="1262" y="1465" type="line"/>
      <point x="1262" y="1458"/>
      <point x="1265" y="1455"/>
      <point x="1272" y="1455" type="curve" smooth="yes"/>
      <point x="1417" y="1455" type="line" smooth="yes"/>
      <point x="1424" y="1455"/>
      <point x="1427" y="1458"/>
      <point x="1427" y="1465" type="curve" smooth="yes"/>
      <point x="1427" y="1610" type="line" smooth="yes"/>
      <point x="1427" y="1617"/>
      <point x="1424" y="1620"/>
      <point x="1417" y="1620" type="curve" smooth="yes"/>
      <point x="1272" y="1620" type="line" smooth="yes"/>
      <point x="1265" y="1620"/>
      <point x="1262" y="1617"/>
      <point x="1262" y="1610" type="curve" smooth="yes"/>
    </contour>
    <contour>
      <point x="962" y="1465" type="line"/>
      <point x="962" y="1458"/>
      <point x="965" y="1455"/>
      <point x="972" y="1455" type="curve" smooth="yes"/>
      <point x="1117" y="1455" type="line" smooth="yes"/>
      <point x="1124" y="1455"/>
      <point x="1127" y="1458"/>
      <point x="1127" y="1465" type="curve" smooth="yes"/>
      <point x="1127" y="1610" type="line" smooth="yes"/>
      <point x="1127" y="1617"/>
      <point x="1124" y="1620"/>
      <point x="1117" y="1620" type="curve" smooth="yes"/>
      <point x="972" y="1620" type="line" smooth="yes"/>
      <point x="965" y="1620"/>
      <point x="962" y="1617"/>
      <point x="962" y="1610" type="curve" smooth="yes"/>
    </contour>
    <contour>
      <point x="662" y="1465" type="line"/>
      <point x="662" y="1458"/>
      <point x="665" y="1455"/>
      <point x="672" y="1455" type="curve" smooth="yes"/>
      <point x="817" y="1455" type="line" smooth="yes"/>
      <point x="824" y="1455"/>
      <point x="827" y="1458"/>
      <point x="827" y="1465" type="curve" smooth="yes"/>
      <point x="827" y="1610" type="line" smooth="yes"/>
      <point x="827" y="1617"/>
      <point x="824" y="1620"/>
      <point x="817" y="1620" type="curve" smooth="yes"/>
      <point x="672" y="1620" type="line" smooth="yes"/>
      <point x="665" y="1620"/>
      <point x="662" y="1617"/>
      <point x="662" y="1610" type="curve" smooth="yes"/>
    </contour>
    <contour>
      <point x="362" y="1465" type="line"/>
      <point x="362" y="1458"/>
      <point x="365" y="1455"/>
      <point x="372" y="1455" type="curve" smooth="yes"/>
      <point x="517" y="1455" type="line" smooth="yes"/>
      <point x="524" y="1455"/>
      <point x="527" y="1458"/>
      <point x="527" y="1465" type="curve" smooth="yes"/>
      <point x="527" y="1610" type="line" smooth="yes"/>
      <point x="527" y="1617"/>
      <point x="524" y="1620"/>
      <point x="517" y="1620" type="curve" smooth="yes"/>
      <point x="372" y="1620" type="line" smooth="yes"/>
      <point x="365" y="1620"/>
      <point x="362" y="1617"/>
      <point x="362" y="1610" type="curve" smooth="yes"/>
    </contour>
    <contour>
      <point x="1112" y="1275" type="line"/>
      <point x="1112" y="1268"/>
      <point x="1115" y="1265"/>
      <point x="1122" y="1265" type="curve" smooth="yes"/>
      <point x="1267" y="1265" type="line" smooth="yes"/>
      <point x="1274" y="1265"/>
      <point x="1277" y="1268"/>
      <point x="1277" y="1275" type="curve" smooth="yes"/>
      <point x="1277" y="1420" type="line" smooth="yes"/>
      <point x="1277" y="1427"/>
      <point x="1274" y="1430"/>
      <point x="1267" y="1430" type="curve" smooth="yes"/>
      <point x="1122" y="1430" type="line" smooth="yes"/>
      <point x="1115" y="1430"/>
      <point x="1112" y="1427"/>
      <point x="1112" y="1420" type="curve" smooth="yes"/>
    </contour>
    <contour>
      <point x="1728" y="858" type="line"/>
      <point x="1735" y="858"/>
      <point x="1738" y="861"/>
      <point x="1738" y="868" type="curve" smooth="yes"/>
      <point x="1738" y="1057" type="line" smooth="yes"/>
      <point x="1738" y="1064"/>
      <point x="1735" y="1067"/>
      <point x="1728" y="1067" type="curve" smooth="yes"/>
      <point x="652" y="1067" type="line" smooth="yes"/>
      <point x="645" y="1067"/>
      <point x="642" y="1064"/>
      <point x="642" y="1057" type="curve" smooth="yes"/>
      <point x="642" y="868" type="line" smooth="yes"/>
      <point x="642" y="861"/>
      <point x="645" y="858"/>
      <point x="652" y="858" type="curve" smooth="yes"/>
    </contour>
    <contour>
      <point x="2005" y="1704" type="line"/>
      <point x="2096" y="1704"/>
      <point x="2150" y="1696"/>
      <point x="2165" y="1681" type="curve" smooth="yes"/>
      <point x="2180" y="1666"/>
      <point x="2187" y="1613"/>
      <point x="2187" y="1521" type="curve" smooth="yes"/>
      <point x="2187" y="960" type="line" smooth="yes"/>
      <point x="2187" y="867"/>
      <point x="2180" y="813"/>
      <point x="2165" y="798" type="curve" smooth="yes"/>
      <point x="2151" y="783"/>
      <point x="2098" y="776"/>
      <point x="2005" y="776" type="curve" smooth="yes"/>
      <point x="376" y="776" type="line" smooth="yes"/>
      <point x="283" y="776"/>
      <point x="230" y="783"/>
      <point x="215" y="798" type="curve" smooth="yes"/>
      <point x="200" y="813"/>
      <point x="193" y="867"/>
      <point x="193" y="960" type="curve" smooth="yes"/>
      <point x="193" y="1521" type="line" smooth="yes"/>
      <point x="193" y="1613"/>
      <point x="200" y="1666"/>
      <point x="215" y="1681" type="curve" smooth="yes"/>
      <point x="230" y="1696"/>
      <point x="284" y="1704"/>
      <point x="376" y="1704" type="curve" smooth="yes"/>
    </contour>
    <contour>
      <point x="354" y="1846" type="line"/>
      <point x="210" y="1846"/>
      <point x="123" y="1826"/>
      <point x="93" y="1787" type="curve" smooth="yes"/>
      <point x="64" y="1750"/>
      <point x="50" y="1662"/>
      <point x="50" y="1521" type="curve" smooth="yes"/>
      <point x="50" y="958" type="line" smooth="yes"/>
      <point x="50" y="816"/>
      <point x="69" y="726"/>
      <point x="107" y="688" type="curve" smooth="yes"/>
      <point x="144" y="651"/>
      <point x="234" y="632"/>
      <point x="376" y="632" type="curve" smooth="yes"/>
      <point x="2005" y="632" type="line" smooth="yes"/>
      <point x="2152" y="632"/>
      <point x="2243" y="649"/>
      <point x="2278" y="684" type="curve" smooth="yes"/>
      <point x="2313" y="719"/>
      <point x="2331" y="811"/>
      <point x="2331" y="958" type="curve" smooth="yes"/>
      <point x="2331" y="1521" type="line" smooth="yes"/>
      <point x="2331" y="1671"/>
      <point x="2314" y="1763"/>
      <point x="2281" y="1796" type="curve" smooth="yes"/>
      <point x="2248" y="1829"/>
      <point x="2156" y="1846"/>
      <point x="2005" y="1846" type="curve" smooth="yes"/>
    </contour>
    <contour>
      <point x="1099" y="-441" type="line"/>
      <point x="1123" y="-465"/>
      <point x="1152" y="-477"/>
      <point x="1185" y="-477" type="curve" smooth="yes"/>
      <point x="1218" y="-477"/>
      <point x="1245" y="-467"/>
      <point x="1271" y="-441" type="curve" smooth="yes"/>
      <point x="1721" y="9" type="line" smooth="yes"/>
      <point x="1745" y="33"/>
      <point x="1757" y="61"/>
      <point x="1757" y="94" type="curve" smooth="yes"/>
      <point x="1757" y="165"/>
      <point x="1698" y="216"/>
      <point x="1636" y="216" type="curve" smooth="yes"/>
      <point x="1388" y="216" type="line"/>
      <point x="1388" y="456" type="line" smooth="yes"/>
      <point x="1388" y="523"/>
      <point x="1334" y="577"/>
      <point x="1266" y="577" type="curve" smooth="yes"/>
      <point x="1104" y="577" type="line" smooth="yes"/>
      <point x="1037" y="577"/>
      <point x="983" y="523"/>
      <point x="983" y="456" type="curve" smooth="yes"/>
      <point x="983" y="216" type="line"/>
      <point x="735" y="216" type="line" smooth="yes"/>
      <point x="671" y="216"/>
      <point x="612" y="162"/>
      <point x="612" y="94" type="curve" smooth="yes"/>
      <point x="612" y="62"/>
      <point x="625" y="33"/>
      <point x="649" y="9" type="curve" smooth="yes"/>
    </contour>
    <contour>
      <point x="1115" y="445" type="line"/>
      <point x="1255" y="445" type="line"/>
      <point x="1255" y="95" type="line" smooth="yes"/>
      <point x="1255" y="88"/>
      <point x="1259" y="84"/>
      <point x="1266" y="84" type="curve" smooth="yes"/>
      <point x="1609" y="84" type="line"/>
      <point x="1185" y="-340" type="line"/>
      <point x="761" y="84" type="line"/>
      <point x="1104" y="84" type="line" smooth="yes"/>
      <point x="1111" y="84"/>
      <point x="1115" y="88"/>
      <point x="1115" y="95" type="curve" smooth="yes"/>
      <point x="1115" y="150" type="line"/>
    </contour>
  </outline>
</glyph>
<glyph name="globe" format="2">
  <advance width="2508"/>
  <unicode hex="E00B"/>
  <outline>
    <contour>
      <point x="1249" y="-360" type="curve" smooth="yes"/>
      <point x="1580" y="-360"/>
      <point x="1879" y="-246"/>
      <point x="2108" y="-25" type="curve"/>
      <point x="2220" y="79"/>
      <point x="2304" y="200"/>
      <point x="2365" y="337" type="curve" smooth="yes"/>
      <point x="2429" y="481"/>
      <point x="2457" y="630"/>
      <point x="2458" y="787" type="curve"/>
      <point x="2458" y="1103"/>
      <point x="2333" y="1394"/>
      <point x="2108" y="1611" type="curve" smooth="yes"/>
      <point x="1880" y="1831"/>
      <point x="1578" y="1949"/>
      <point x="1249" y="1949" type="curve" smooth="yes"/>
      <point x="922" y="1949"/>
      <point x="625" y="1832"/>
      <point x="398" y="1611" type="curve" smooth="yes"/>
      <point x="174" y="1392"/>
      <point x="50" y="1103"/>
      <point x="50" y="787" type="curve" smooth="yes"/>
      <point x="50" y="630"/>
      <point x="78" y="482"/>
      <point x="142" y="337" type="curve" smooth="yes"/>
      <point x="203" y="199"/>
      <point x="288" y="78"/>
      <point x="398" y="-25" type="curve"/>
      <point x="509" y="-132"/>
      <point x="637" y="-214"/>
      <point x="780" y="-272" type="curve" smooth="yes"/>
      <point x="929" y="-332"/>
      <point x="1082" y="-360"/>
    </contour>
    <contour>
      <point x="1106" y="-214" type="curve"/>
      <point x="1006" y="-82"/>
      <point x="930" y="44"/>
      <point x="877" y="180" type="curve"/>
      <point x="977" y="217"/>
      <point x="1082" y="236"/>
      <point x="1179" y="239" type="curve"/>
      <point x="1179" y="-220" type="line"/>
      <point x="1152" y="-220"/>
      <point x="1129" y="-219"/>
    </contour>
    <contour>
      <point x="1323" y="239" type="line"/>
      <point x="1411" y="236"/>
      <point x="1512" y="217"/>
      <point x="1636" y="180" type="curve"/>
      <point x="1572" y="36"/>
      <point x="1494" y="-96"/>
      <point x="1402" y="-213" type="curve"/>
      <point x="1373" y="-220"/>
      <point x="1348" y="-220"/>
      <point x="1323" y="-220" type="curve"/>
    </contour>
    <contour>
      <point x="1757" y="126" type="curve"/>
      <point x="1838" y="93"/>
      <point x="1902" y="55"/>
      <point x="1955" y="23" type="curve"/>
      <point x="1852" y="-63"/>
      <point x="1733" y="-126"/>
      <point x="1600" y="-167" type="curve"/>
      <point x="1660" y="-75"/>
      <point x="1718" y="22"/>
    </contour>
    <contour>
      <point x="551" y="23" type="curve"/>
      <point x="619" y="63"/>
      <point x="681" y="97"/>
      <point x="745" y="126" type="curve"/>
      <point x="784" y="30"/>
      <point x="832" y="-59"/>
      <point x="908" y="-167" type="curve"/>
      <point x="777" y="-128"/>
      <point x="658" y="-64"/>
    </contour>
    <contour>
      <point x="1811" y="250" type="curve"/>
      <point x="1875" y="417"/>
      <point x="1914" y="582"/>
      <point x="1925" y="723" type="curve"/>
      <point x="2302" y="723" type="line"/>
      <point x="2287" y="484"/>
      <point x="2203" y="283"/>
      <point x="2055" y="126" type="curve"/>
      <point x="2002" y="163"/>
      <point x="1940" y="190"/>
      <point x="1868" y="223" type="curve" smooth="yes"/>
      <point x="1849" y="232"/>
      <point x="1830" y="239"/>
    </contour>
    <contour>
      <point x="583" y="723" type="line"/>
      <point x="590" y="571"/>
      <point x="628" y="406"/>
      <point x="696" y="250" type="curve"/>
      <point x="599" y="204"/>
      <point x="519" y="175"/>
      <point x="455" y="127" type="curve"/>
      <point x="306" y="284"/>
      <point x="219" y="484"/>
      <point x="204" y="723" type="curve"/>
    </contour>
    <contour>
      <point x="1179" y="723" type="line"/>
      <point x="1179" y="381" type="line"/>
      <point x="1062" y="370"/>
      <point x="940" y="341"/>
      <point x="827" y="298" type="curve"/>
      <point x="768" y="443"/>
      <point x="735" y="584"/>
      <point x="727" y="723" type="curve"/>
    </contour>
    <contour>
      <point x="1323" y="723" type="line"/>
      <point x="1778" y="723" type="line"/>
      <point x="1775" y="603"/>
      <point x="1744" y="474"/>
      <point x="1681" y="298" type="curve"/>
      <point x="1564" y="341"/>
      <point x="1440" y="370"/>
      <point x="1323" y="381" type="curve"/>
    </contour>
    <contour>
      <point x="1925" y="859" type="line"/>
      <point x="1916" y="1000"/>
      <point x="1878" y="1159"/>
      <point x="1811" y="1335" type="curve"/>
      <point x="1911" y="1375"/>
      <point x="1991" y="1416"/>
      <point x="2055" y="1463" type="curve"/>
      <point x="2203" y="1294"/>
      <point x="2287" y="1092"/>
      <point x="2302" y="859" type="curve"/>
    </contour>
    <contour>
      <point x="1323" y="859" type="line"/>
      <point x="1323" y="1206" type="line"/>
      <point x="1424" y="1212"/>
      <point x="1543" y="1240"/>
      <point x="1681" y="1289" type="curve"/>
      <point x="1724" y="1168"/>
      <point x="1773" y="1016"/>
      <point x="1778" y="859" type="curve"/>
    </contour>
    <contour>
      <point x="727" y="859" type="line"/>
      <point x="734" y="1000"/>
      <point x="768" y="1144"/>
      <point x="827" y="1290" type="curve"/>
      <point x="956" y="1241"/>
      <point x="1079" y="1213"/>
      <point x="1179" y="1206" type="curve"/>
      <point x="1179" y="859" type="line"/>
    </contour>
    <contour>
      <point x="204" y="859" type="line"/>
      <point x="219" y="1092"/>
      <point x="306" y="1295"/>
      <point x="455" y="1463" type="curve"/>
      <point x="516" y="1416"/>
      <point x="596" y="1375"/>
      <point x="696" y="1335" type="curve"/>
      <point x="624" y="1142"/>
      <point x="590" y="991"/>
      <point x="583" y="859" type="curve"/>
    </contour>
    <contour>
      <point x="1323" y="1811" type="line"/>
      <point x="1350" y="1808"/>
      <point x="1374" y="1801"/>
      <point x="1401" y="1793" type="curve"/>
      <point x="1502" y="1661"/>
      <point x="1577" y="1540"/>
      <point x="1636" y="1408" type="curve"/>
      <point x="1535" y="1375"/>
      <point x="1431" y="1352"/>
      <point x="1323" y="1341" type="curve"/>
    </contour>
    <contour>
      <point x="868" y="1408" type="curve"/>
      <point x="928" y="1537"/>
      <point x="1003" y="1661"/>
      <point x="1107" y="1794" type="curve"/>
      <point x="1132" y="1803"/>
      <point x="1155" y="1808"/>
      <point x="1179" y="1811" type="curve"/>
      <point x="1179" y="1341" type="line"/>
      <point x="1071" y="1353"/>
      <point x="968" y="1376"/>
    </contour>
    <contour>
      <point x="550" y="1557" type="curve"/>
      <point x="667" y="1652"/>
      <point x="785" y="1718"/>
      <point x="905" y="1755" type="curve"/>
      <point x="841" y="1663"/>
      <point x="786" y="1564"/>
      <point x="745" y="1460" type="curve"/>
      <point x="672" y="1485"/>
      <point x="614" y="1514"/>
    </contour>
    <contour>
      <point x="1604" y="1755" type="curve"/>
      <point x="1725" y="1715"/>
      <point x="1847" y="1646"/>
      <point x="1955" y="1557" type="curve"/>
      <point x="1904" y="1522"/>
      <point x="1841" y="1490"/>
      <point x="1764" y="1461" type="curve"/>
      <point x="1721" y="1562"/>
      <point x="1668" y="1663"/>
    </contour>
  </outline>
</glyph>
<glyph name="digits" format="2">
  <advance width="2273"/>
  <unicode hex="E013"/>
  <outline>
    <contour>
      <point x="470" y="1304" type="line"/>
      <point x="470" y="1315"/>
      <point x="461" y="1324"/>
      <point x="450" y="1324" type="curve" smooth="yes"/>
      <point x="378" y="1324" type="line" smooth="yes"/>
      <point x="371" y="1324"/>
      <point x="363" y="1318"/>
      <point x="360" y="1313" type="curve" smooth="yes"/>
      <point x="315" y="1225"/>
      <point x="156" y="1090"/>
      <point x="64" y="1063" type="curve" smooth="yes"/>
      <point x="56" y="1060"/>
      <point x="50" y="1052"/>
      <point x="50" y="1044" type="curve" smooth="yes"/>
      <point x="50" y="938" type="line" smooth="yes"/>
      <point x="50" y="926"/>
      <point x="58" y="917"/>
      <point x="69" y="917" type="curve" smooth="yes"/>
      <point x="74" y="917"/>
      <point x="83" y="921"/>
      <point x="90" y="924" type="curve" smooth="yes"/>
      <point x="161" y="950"/>
      <point x="170" y="953"/>
      <point x="313" y="1054" type="curve"/>
      <point x="313" y="261" type="line" smooth="yes"/>
      <point x="313" y="250"/>
      <point x="322" y="241"/>
      <point x="333" y="241" type="curve" smooth="yes"/>
      <point x="450" y="241" type="line" smooth="yes"/>
      <point x="461" y="241"/>
      <point x="470" y="250"/>
      <point x="470" y="261" type="curve" smooth="yes"/>
    </contour>
    <contour>
      <point x="2223" y="583" type="line"/>
      <point x="2223" y="687"/>
      <point x="2163" y="771"/>
      <point x="2043" y="836" type="curve"/>
      <point x="2128" y="890"/>
      <point x="2170" y="961"/>
      <point x="2170" y="1048" type="curve" smooth="yes"/>
      <point x="2170" y="1051" type="line" smooth="yes"/>
      <point x="2145" y="1236"/>
      <point x="2038" y="1332"/>
      <point x="1849" y="1339" type="curve" smooth="yes"/>
      <point x="1846" y="1339" type="line" smooth="yes"/>
      <point x="1679" y="1339"/>
      <point x="1572" y="1246"/>
      <point x="1525" y="1060" type="curve"/>
      <point x="1524" y="1059"/>
      <point x="1524" y="1057"/>
      <point x="1524" y="1054" type="curve" smooth="yes"/>
      <point x="1524" y="1030"/>
      <point x="1576" y="1027"/>
      <point x="1595" y="1024" type="curve" smooth="yes"/>
      <point x="1631" y="1017"/>
      <point x="1651" y="1014"/>
      <point x="1654" y="1014" type="curve" smooth="yes"/>
      <point x="1661" y="1014"/>
      <point x="1670" y="1020"/>
      <point x="1673" y="1027" type="curve" smooth="yes"/>
      <point x="1676" y="1034"/>
      <point x="1678" y="1041"/>
      <point x="1681" y="1050" type="curve" smooth="yes"/>
      <point x="1705" y="1118" type="line" smooth="yes"/>
      <point x="1722" y="1169"/>
      <point x="1783" y="1201"/>
      <point x="1858" y="1214" type="curve"/>
      <point x="1958" y="1207"/>
      <point x="2012" y="1156"/>
      <point x="2016" y="1053" type="curve"/>
      <point x="2000" y="940"/>
      <point x="1928" y="883"/>
      <point x="1800" y="882" type="curve" smooth="yes"/>
      <point x="1791" y="882"/>
      <point x="1781" y="874"/>
      <point x="1780" y="865" type="curve" smooth="yes"/>
      <point x="1766" y="773" type="line"/>
      <point x="1766" y="760"/>
      <point x="1772" y="754"/>
      <point x="1785" y="754" type="curve" smooth="yes"/>
      <point x="1788" y="754" type="line" smooth="yes"/>
      <point x="1812" y="757"/>
      <point x="1834" y="758"/>
      <point x="1854" y="758" type="curve" smooth="yes"/>
      <point x="1991" y="758"/>
      <point x="2060" y="694"/>
      <point x="2063" y="565" type="curve"/>
      <point x="2052" y="442"/>
      <point x="1973" y="370"/>
      <point x="1858" y="357" type="curve"/>
      <point x="1754" y="366"/>
      <point x="1680" y="428"/>
      <point x="1647" y="545" type="curve"/>
      <point x="1644" y="553"/>
      <point x="1635" y="560"/>
      <point x="1627" y="560" type="curve" smooth="yes"/>
      <point x="1530" y="555" type="line" smooth="yes"/>
      <point x="1517" y="554"/>
      <point x="1511" y="547"/>
      <point x="1511" y="535" type="curve" smooth="yes"/>
      <point x="1511" y="531" type="line"/>
      <point x="1549" y="333"/>
      <point x="1665" y="233"/>
      <point x="1858" y="232" type="curve"/>
      <point x="2086" y="248"/>
      <point x="2208" y="360"/>
      <point x="2223" y="568" type="curve"/>
    </contour>
    <contour>
      <point x="1444" y="369" type="line"/>
      <point x="1444" y="380"/>
      <point x="1435" y="389"/>
      <point x="1424" y="389" type="curve" smooth="yes"/>
      <point x="936" y="389" type="line"/>
      <point x="971" y="436"/>
      <point x="1060" y="517"/>
      <point x="1208" y="642" type="curve" smooth="yes"/>
      <point x="1207" y="641" type="line" smooth="yes"/>
      <point x="1364" y="757"/>
      <point x="1443" y="882"/>
      <point x="1443" y="1015" type="curve" smooth="yes"/>
      <point x="1443" y="1027" type="line" smooth="yes"/>
      <point x="1435" y="1226"/>
      <point x="1321" y="1330"/>
      <point x="1102" y="1337" type="curve" smooth="yes"/>
      <point x="1096" y="1337" type="line" smooth="yes"/>
      <point x="895" y="1337"/>
      <point x="780" y="1235"/>
      <point x="749" y="1031" type="curve"/>
      <point x="749" y="1012"/>
      <point x="793" y="998"/>
      <point x="882" y="990" type="curve" smooth="yes"/>
      <point x="884" y="990" type="line" smooth="yes"/>
      <point x="895" y="990"/>
      <point x="903" y="997"/>
      <point x="904" y="1008" type="curve" smooth="yes"/>
      <point x="919" y="1135"/>
      <point x="984" y="1203"/>
      <point x="1099" y="1212" type="curve"/>
      <point x="1226" y="1202"/>
      <point x="1290" y="1142"/>
      <point x="1290" y="1032" type="curve" smooth="yes"/>
      <point x="1290" y="932"/>
      <point x="1220" y="831"/>
      <point x="1083" y="723" type="curve" smooth="yes"/>
      <point x="1012" y="667"/>
      <point x="938" y="602"/>
      <point x="857" y="529" type="curve"/>
      <point x="769" y="439"/>
      <point x="725" y="351"/>
      <point x="725" y="264" type="curve" smooth="yes"/>
      <point x="725" y="261" type="line" smooth="yes"/>
      <point x="725" y="250"/>
      <point x="734" y="241"/>
      <point x="745" y="241" type="curve" smooth="yes"/>
      <point x="1424" y="241" type="line" smooth="yes"/>
      <point x="1435" y="241"/>
      <point x="1444" y="250"/>
      <point x="1444" y="261" type="curve" smooth="yes"/>
    </contour>
  </outline>
</glyph>
<glyph name="currencies" format="2">
  <advance width="2689"/>
  <unicode hex="E014"/>
  <outline>
    <contour>
      <point x="1682" y="1274" type="line"/>
      <point x="1682" y="1314"/>
      <point x="1495" y="1336"/>
      <point x="1461" y="1336" type="curve" smooth="yes"/>
      <point x="1233" y="1336"/>
      <point x="1131" y="1221"/>
      <point x="1131" y="965" type="curve" smooth="yes"/>
      <point x="1131" y="818" type="line"/>
      <point x="1012" y="818" type="line" smooth="yes"/>
      <point x="999" y="818"/>
      <point x="993" y="812"/>
      <point x="993" y="799" type="curve" smooth="yes"/>
      <point x="993" y="699" type="line" smooth="yes"/>
      <point x="993" y="688"/>
      <point x="1001" y="680"/>
      <point x="1012" y="680" type="curve" smooth="yes"/>
      <point x="1131" y="680" type="line"/>
      <point x="1131" y="395" type="line"/>
      <point x="985" y="395" type="line" smooth="yes"/>
      <point x="974" y="395"/>
      <point x="966" y="387"/>
      <point x="966" y="376" type="curve" smooth="yes"/>
      <point x="966" y="257" type="line" smooth="yes"/>
      <point x="966" y="246"/>
      <point x="974" y="237"/>
      <point x="985" y="237" type="curve" smooth="yes"/>
      <point x="1677" y="237" type="line" smooth="yes"/>
      <point x="1688" y="237"/>
      <point x="1696" y="246"/>
      <point x="1696" y="257" type="curve" smooth="yes"/>
      <point x="1696" y="376" type="line" smooth="yes"/>
      <point x="1696" y="387"/>
      <point x="1688" y="395"/>
      <point x="1677" y="395" type="curve" smooth="yes"/>
      <point x="1308" y="395" type="line"/>
      <point x="1308" y="680" type="line"/>
      <point x="1562" y="680" type="line" smooth="yes"/>
      <point x="1573" y="680"/>
      <point x="1581" y="688"/>
      <point x="1581" y="699" type="curve" smooth="yes"/>
      <point x="1581" y="799" type="line" smooth="yes"/>
      <point x="1581" y="810"/>
      <point x="1573" y="818"/>
      <point x="1562" y="818" type="curve" smooth="yes"/>
      <point x="1308" y="818" type="line"/>
      <point x="1308" y="949" type="line" smooth="yes"/>
      <point x="1308" y="1141"/>
      <point x="1350" y="1186"/>
      <point x="1474" y="1186" type="curve" smooth="yes"/>
      <point x="1527" y="1186"/>
      <point x="1586" y="1167"/>
      <point x="1653" y="1130" type="curve" smooth="yes"/>
      <point x="1655" y="1129"/>
      <point x="1658" y="1128"/>
      <point x="1663" y="1128" type="curve" smooth="yes"/>
      <point x="1674" y="1128"/>
      <point x="1682" y="1136"/>
      <point x="1682" y="1148" type="curve" smooth="yes"/>
    </contour>
    <contour>
      <point x="2600" y="659" type="line"/>
      <point x="2600" y="670"/>
      <point x="2591" y="678"/>
      <point x="2580" y="678" type="curve" smooth="yes"/>
      <point x="2312" y="678" type="line"/>
      <point x="2312" y="687" type="line"/>
      <point x="2329" y="720"/>
      <point x="2345" y="750"/>
      <point x="2364" y="783" type="curve"/>
      <point x="2580" y="783" type="line" smooth="yes"/>
      <point x="2591" y="783"/>
      <point x="2600" y="791"/>
      <point x="2600" y="802" type="curve" smooth="yes"/>
      <point x="2600" y="888" type="line" smooth="yes"/>
      <point x="2600" y="899"/>
      <point x="2591" y="907"/>
      <point x="2580" y="907" type="curve" smooth="yes"/>
      <point x="2430" y="907" type="line"/>
      <point x="2636" y="1287" type="line" smooth="yes"/>
      <point x="2638" y="1290"/>
      <point x="2639" y="1293"/>
      <point x="2639" y="1297" type="curve" smooth="yes"/>
      <point x="2639" y="1308"/>
      <point x="2630" y="1316"/>
      <point x="2619" y="1316" type="curve" smooth="yes"/>
      <point x="2485" y="1316" type="line" smooth="yes"/>
      <point x="2480" y="1316"/>
      <point x="2471" y="1310"/>
      <point x="2468" y="1305" type="curve" smooth="yes"/>
      <point x="2387" y="1154"/>
      <point x="2305" y="1002"/>
      <point x="2222" y="850" type="curve"/>
      <point x="1977" y="1305" type="line" smooth="yes"/>
      <point x="1974" y="1310"/>
      <point x="1966" y="1316"/>
      <point x="1959" y="1316" type="curve" smooth="yes"/>
      <point x="1827" y="1316" type="line" smooth="yes"/>
      <point x="1816" y="1316"/>
      <point x="1807" y="1309"/>
      <point x="1807" y="1298" type="curve" smooth="yes"/>
      <point x="1807" y="1294"/>
      <point x="1808" y="1291"/>
      <point x="1810" y="1288" type="curve" smooth="yes"/>
      <point x="2016" y="907" type="line"/>
      <point x="1864" y="907" type="line" smooth="yes"/>
      <point x="1853" y="907"/>
      <point x="1845" y="899"/>
      <point x="1845" y="888" type="curve" smooth="yes"/>
      <point x="1845" y="802" type="line" smooth="yes"/>
      <point x="1845" y="791"/>
      <point x="1853" y="783"/>
      <point x="1864" y="783" type="curve" smooth="yes"/>
      <point x="2083" y="783" type="line"/>
      <point x="2134" y="687" type="line"/>
      <point x="2134" y="678" type="line"/>
      <point x="1864" y="678" type="line" smooth="yes"/>
      <point x="1853" y="678"/>
      <point x="1845" y="670"/>
      <point x="1845" y="659" type="curve" smooth="yes"/>
      <point x="1845" y="573" type="line" smooth="yes"/>
      <point x="1845" y="562"/>
      <point x="1853" y="554"/>
      <point x="1864" y="554" type="curve" smooth="yes"/>
      <point x="2134" y="554" type="line"/>
      <point x="2134" y="256" type="line" smooth="yes"/>
      <point x="2134" y="245"/>
      <point x="2142" y="237"/>
      <point x="2153" y="237" type="curve" smooth="yes"/>
      <point x="2293" y="237" type="line" smooth="yes"/>
      <point x="2304" y="237"/>
      <point x="2313" y="245"/>
      <point x="2313" y="256" type="curve" smooth="yes"/>
      <point x="2313" y="554" type="line"/>
      <point x="2580" y="554" type="line" smooth="yes"/>
      <point x="2591" y="554"/>
      <point x="2600" y="562"/>
      <point x="2600" y="573" type="curve" smooth="yes"/>
    </contour>
    <contour>
      <point x="859" y="1235" type="line"/>
      <point x="859" y="1239" type="line" smooth="yes"/>
      <point x="859" y="1246"/>
      <point x="855" y="1270"/>
      <point x="850" y="1273" type="curve" smooth="yes"/>
      <point x="778" y="1313"/>
      <point x="698" y="1333"/>
      <point x="617" y="1333" type="curve" smooth="yes"/>
      <point x="389" y="1333"/>
      <point x="162" y="1191"/>
      <point x="133" y="946" type="curve"/>
      <point x="69" y="946" type="line" smooth="yes"/>
      <point x="58" y="946"/>
      <point x="50" y="938"/>
      <point x="50" y="927" type="curve" smooth="yes"/>
      <point x="50" y="831" type="line" smooth="yes"/>
      <point x="50" y="822"/>
      <point x="58" y="813"/>
      <point x="67" y="813" type="curve" smooth="yes"/>
      <point x="123" y="813" type="line"/>
      <point x="123" y="760" type="line"/>
      <point x="69" y="760" type="line" smooth="yes"/>
      <point x="58" y="760"/>
      <point x="50" y="752"/>
      <point x="50" y="741" type="curve" smooth="yes"/>
      <point x="50" y="648" type="line" smooth="yes"/>
      <point x="50" y="637"/>
      <point x="58" y="629"/>
      <point x="69" y="629" type="curve" smooth="yes"/>
      <point x="139" y="629" type="line"/>
      <point x="163" y="383"/>
      <point x="378" y="237"/>
      <point x="612" y="237" type="curve" smooth="yes"/>
      <point x="661" y="237"/>
      <point x="831" y="257"/>
      <point x="831" y="299" type="curve" smooth="yes"/>
      <point x="831" y="441" type="line" smooth="yes"/>
      <point x="831" y="453"/>
      <point x="822" y="460"/>
      <point x="813" y="460" type="curve" smooth="yes"/>
      <point x="808" y="460"/>
      <point x="803" y="458"/>
      <point x="800" y="455" type="curve" smooth="yes"/>
      <point x="749" y="412"/>
      <point x="683" y="392"/>
      <point x="614" y="392" type="curve" smooth="yes"/>
      <point x="477" y="392"/>
      <point x="335" y="475"/>
      <point x="316" y="629" type="curve"/>
      <point x="688" y="629" type="line" smooth="yes"/>
      <point x="699" y="629"/>
      <point x="707" y="637"/>
      <point x="708" y="646" type="curve" smooth="yes"/>
      <point x="720" y="742" type="line"/>
      <point x="720" y="753"/>
      <point x="712" y="760"/>
      <point x="701" y="760" type="curve" smooth="yes"/>
      <point x="299" y="760" type="line"/>
      <point x="299" y="813" type="line"/>
      <point x="712" y="813" type="line" smooth="yes"/>
      <point x="723" y="813"/>
      <point x="731" y="820"/>
      <point x="732" y="831" type="curve" smooth="yes"/>
      <point x="743" y="928" type="line"/>
      <point x="743" y="939"/>
      <point x="735" y="946"/>
      <point x="724" y="946" type="curve" smooth="yes"/>
      <point x="314" y="946" type="line"/>
      <point x="341" y="1089"/>
      <point x="477" y="1179"/>
      <point x="613" y="1179" type="curve" smooth="yes"/>
      <point x="681" y="1179"/>
      <point x="744" y="1158"/>
      <point x="800" y="1113" type="curve" smooth="yes"/>
      <point x="804" y="1109"/>
      <point x="810" y="1108"/>
      <point x="814" y="1108" type="curve" smooth="yes"/>
      <point x="823" y="1108"/>
      <point x="829" y="1113"/>
      <point x="831" y="1123" type="curve" smooth="yes"/>
    </contour>
  </outline>
</glyph>
<glyph name="caps_1" format="2">
  <advance width="1765"/>
  <unicode hex="E020"/>
  <outline>
    <contour>
      <point x="842" y="1077" type="line"/>
      <point x="863" y="1134" type="line"/>
      <point x="863" y="1133" type="line"/>
      <point x="870" y="1152"/>
      <point x="878" y="1170"/>
      <point x="887" y="1197" type="curve"/>
      <point x="903" y="1146"/>
      <point x="907" y="1141"/>
      <point x="918" y="1112" type="curve" smooth="yes"/>
      <point x="932" y="1076" type="line"/>
      <point x="932" y="1077" type="line"/>
      <point x="1072" y="693" type="line"/>
      <point x="702" y="693" type="line"/>
    </contour>
    <contour>
      <point x="512" y="210" type="line"/>
      <point x="517" y="210"/>
      <point x="520" y="212"/>
      <point x="521" y="216" type="curve" smooth="yes"/>
      <point x="654" y="567" type="line"/>
      <point x="1120" y="567" type="line"/>
      <point x="1253" y="216" type="line" smooth="yes"/>
      <point x="1254" y="212"/>
      <point x="1257" y="210"/>
      <point x="1262" y="210" type="curve" smooth="yes"/>
      <point x="1409" y="210" type="line" smooth="yes"/>
      <point x="1416" y="210"/>
      <point x="1419" y="213"/>
      <point x="1419" y="220" type="curve" smooth="yes"/>
      <point x="1419" y="222"/>
      <point x="1419" y="223"/>
      <point x="1418" y="224" type="curve" smooth="yes"/>
      <point x="980" y="1383" type="line" smooth="yes"/>
      <point x="979" y="1387"/>
      <point x="976" y="1389"/>
      <point x="971" y="1389" type="curve" smooth="yes"/>
      <point x="805" y="1389" type="line" smooth="yes"/>
      <point x="800" y="1389"/>
      <point x="797" y="1387"/>
      <point x="796" y="1383" type="curve" smooth="yes"/>
      <point x="355" y="224" type="line" smooth="yes"/>
      <point x="354" y="223"/>
      <point x="354" y="222"/>
      <point x="354" y="220" type="curve" smooth="yes"/>
      <point x="354" y="213"/>
      <point x="357" y="210"/>
      <point x="364" y="210" type="curve" smooth="yes"/>
    </contour>
    <contour>
      <point x="203" y="1510" type="line"/>
      <point x="1562" y="1510" type="line"/>
      <point x="1562" y="62" type="line"/>
      <point x="202" y="62" type="line"/>
    </contour>
    <contour>
      <point x="1715" y="1531" type="line"/>
      <point x="1715" y="1606"/>
      <point x="1657" y="1663"/>
      <point x="1584" y="1663" type="curve" smooth="yes"/>
      <point x="182" y="1663" type="line" smooth="yes"/>
      <point x="107" y="1663"/>
      <point x="50" y="1606"/>
      <point x="50" y="1531" type="curve" smooth="yes"/>
      <point x="50" y="41" type="line" smooth="yes"/>
      <point x="50" y="-34"/>
      <point x="108" y="-91"/>
      <point x="181" y="-91" type="curve" smooth="yes"/>
      <point x="1583" y="-91" type="line" smooth="yes"/>
      <point x="1658" y="-91"/>
      <point x="1715" y="-34"/>
      <point x="1715" y="41" type="curve" smooth="yes"/>
    </contour>
  </outline>
</glyph>
<glyph name="resize" format="2">
  <advance width="1634"/>
  <unicode hex="E023"/>
  <outline>
    <contour>
      <point x="178" y="-184" type="line"/>
      <point x="1584" y="1222" type="line"/>
      <point x="1456" y="1350" type="line"/>
      <point x="50" y="-56" type="line"/>
    </contour>
    <contour>
      <point x="688" y="-184" type="line"/>
      <point x="1584" y="711" type="line"/>
      <point x="1456" y="839" type="line"/>
      <point x="560" y="-56" type="line"/>
    </contour>
    <contour>
      <point x="1198" y="-184" type="line"/>
      <point x="1584" y="202" type="line"/>
      <point x="1456" y="330" type="line"/>
      <point x="1070" y="-56" type="line"/>
    </contour>
  </outline>
</glyph>
<glyph name="close" format="2">
  <advance width="1320"/>
  <unicode hex="E025"/>
  <outline>
    <contour>
      <point x="185" y="1317" type="line"/>
      <point x="50" y="1181" type="line"/>
      <point x="524" y="707" type="line"/>
      <point x="50" y="233" type="line"/>
      <point x="185" y="97" type="line"/>
      <point x="660" y="571" type="line"/>
      <point x="1134" y="97" type="line"/>
      <point x="1270" y="233" type="line"/>
      <point x="795" y="707" type="line"/>
      <point x="1270" y="1181" type="line"/>
      <point x="1134" y="1317" type="line"/>
      <point x="660" y="843" type="line"/>
    </contour>
  </outline>
</glyph>
<glyph name="resize_1" format="2">
  <advance width="1625"/>
  <unicode hex="E028"/>
  <outline>
    <contour>
      <point x="1046" y="4" type="line"/>
      <point x="1403" y="360" type="line"/>
      <point x="1521" y="242" type="line"/>
      <point x="1165" y="-114" type="line"/>
    </contour>
    <contour>
      <point x="576" y="4" type="line"/>
      <point x="1403" y="830" type="line"/>
      <point x="1521" y="711" type="line"/>
      <point x="694" y="-114" type="line"/>
    </contour>
    <contour>
      <point x="105" y="4" type="line"/>
      <point x="1403" y="1301" type="line"/>
      <point x="1521" y="1183" type="line"/>
      <point x="223" y="-114" type="line"/>
    </contour>
    <contour>
      <point x="185" y="-153" type="line"/>
      <point x="195" y="-164"/>
      <point x="208" y="-169"/>
      <point x="223" y="-169" type="curve" smooth="yes"/>
      <point x="238" y="-169"/>
      <point x="251" y="-164"/>
      <point x="262" y="-153" type="curve" smooth="yes"/>
      <point x="1559" y="1144" type="line" smooth="yes"/>
      <point x="1570" y="1155"/>
      <point x="1576" y="1168"/>
      <point x="1575" y="1182" type="curve"/>
      <point x="1575" y="1197"/>
      <point x="1570" y="1211"/>
      <point x="1559" y="1222" type="curve" smooth="yes"/>
      <point x="1441" y="1340" type="line" smooth="yes"/>
      <point x="1429" y="1351"/>
      <point x="1416" y="1356"/>
      <point x="1402" y="1356" type="curve" smooth="yes"/>
      <point x="1387" y="1356"/>
      <point x="1375" y="1351"/>
      <point x="1364" y="1340" type="curve" smooth="yes"/>
      <point x="67" y="42" type="line" smooth="yes"/>
      <point x="56" y="31"/>
      <point x="50" y="18"/>
      <point x="50" y="3" type="curve" smooth="yes"/>
      <point x="50" y="-12"/>
      <point x="56" y="-25"/>
      <point x="67" y="-35" type="curve" smooth="yes"/>
    </contour>
    <contour>
      <point x="655" y="-153" type="line"/>
      <point x="665" y="-164"/>
      <point x="678" y="-169"/>
      <point x="693" y="-169" type="curve" smooth="yes"/>
      <point x="708" y="-169"/>
      <point x="722" y="-164"/>
      <point x="733" y="-153" type="curve" smooth="yes"/>
      <point x="1559" y="673" type="line" smooth="yes"/>
      <point x="1570" y="684"/>
      <point x="1576" y="697"/>
      <point x="1575" y="711" type="curve"/>
      <point x="1576" y="726"/>
      <point x="1570" y="739"/>
      <point x="1559" y="750" type="curve" smooth="yes"/>
      <point x="1441" y="868" type="line" smooth="yes"/>
      <point x="1430" y="879"/>
      <point x="1417" y="885"/>
      <point x="1402" y="884" type="curve"/>
      <point x="1388" y="885"/>
      <point x="1375" y="879"/>
      <point x="1364" y="868" type="curve" smooth="yes"/>
      <point x="537" y="42" type="line" smooth="yes"/>
      <point x="526" y="31"/>
      <point x="521" y="18"/>
      <point x="521" y="3" type="curve" smooth="yes"/>
      <point x="521" y="-12"/>
      <point x="526" y="-25"/>
      <point x="537" y="-35" type="curve" smooth="yes"/>
    </contour>
    <contour>
      <point x="1126" y="-153" type="line"/>
      <point x="1136" y="-164"/>
      <point x="1149" y="-169"/>
      <point x="1164" y="-169" type="curve" smooth="yes"/>
      <point x="1179" y="-169"/>
      <point x="1192" y="-164"/>
      <point x="1203" y="-153" type="curve" smooth="yes"/>
      <point x="1559" y="203" type="line" smooth="yes"/>
      <point x="1570" y="214"/>
      <point x="1576" y="227"/>
      <point x="1575" y="241" type="curve"/>
      <point x="1575" y="256"/>
      <point x="1570" y="270"/>
      <point x="1559" y="281" type="curve" smooth="yes"/>
      <point x="1441" y="399" type="line" smooth="yes"/>
      <point x="1429" y="410"/>
      <point x="1416" y="415"/>
      <point x="1402" y="415" type="curve" smooth="yes"/>
      <point x="1387" y="415"/>
      <point x="1375" y="410"/>
      <point x="1364" y="399" type="curve" smooth="yes"/>
      <point x="1008" y="42" type="line" smooth="yes"/>
      <point x="997" y="31"/>
      <point x="991" y="18"/>
      <point x="991" y="3" type="curve" smooth="yes"/>
      <point x="991" y="-11"/>
      <point x="997" y="-24"/>
      <point x="1008" y="-35" type="curve" smooth="yes"/>
    </contour>
  </outline>
</glyph>
<glyph name="info" format="2">
  <advance width="764"/>
  <unicode hex="E031"/>
  <outline>
    <contour>
      <point x="149" y="769" type="line"/>
      <point x="208" y="808"/>
      <point x="248" y="837"/>
      <point x="273" y="852" type="curve"/>
      <point x="269" y="805"/>
      <point x="240" y="676"/>
      <point x="195" y="500" type="curve"/>
      <point x="141" y="307"/>
      <point x="134" y="259"/>
      <point x="134" y="195" type="curve" smooth="yes"/>
      <point x="134" y="122"/>
      <point x="176" y="70"/>
      <point x="256" y="70" type="curve" smooth="yes"/>
      <point x="321" y="70"/>
      <point x="373" y="91"/>
      <point x="488" y="168" type="curve" smooth="yes"/>
      <point x="551" y="211"/>
      <point x="622" y="261"/>
      <point x="669" y="294" type="curve"/>
      <point x="676" y="312" type="line"/>
      <point x="640" y="374" type="line"/>
      <point x="574" y="375" type="line"/>
      <point x="519" y="336"/>
      <point x="483" y="311"/>
      <point x="460" y="296" type="curve"/>
      <point x="461" y="331"/>
      <point x="489" y="450"/>
      <point x="543" y="652" type="curve" smooth="yes"/>
      <point x="555" y="696"/>
      <point x="602" y="883"/>
      <point x="606" y="898" type="curve" smooth="yes"/>
      <point x="618" y="946"/>
      <point x="623" y="985"/>
      <point x="623" y="1012" type="curve" smooth="yes"/>
      <point x="623" y="1070"/>
      <point x="575" y="1111"/>
      <point x="515" y="1111" type="curve" smooth="yes"/>
      <point x="468" y="1111"/>
      <point x="410" y="1090"/>
      <point x="342" y="1051" type="curve" smooth="yes"/>
      <point x="269" y="1008"/>
      <point x="173" y="941"/>
      <point x="52" y="848" type="curve"/>
      <point x="50" y="829" type="line"/>
      <point x="82" y="772" type="line"/>
    </contour>
    <contour>
      <point x="375" y="1384" type="curve" smooth="yes"/>
      <point x="375" y="1301"/>
      <point x="422" y="1242"/>
      <point x="533" y="1242" type="curve" smooth="yes"/>
      <point x="669" y="1242"/>
      <point x="714" y="1348"/>
      <point x="714" y="1420" type="curve" smooth="yes"/>
      <point x="714" y="1501"/>
      <point x="657" y="1555"/>
      <point x="557" y="1555" type="curve" smooth="yes"/>
      <point x="452" y="1555"/>
      <point x="375" y="1479"/>
    </contour>
  </outline>
</glyph>
<glyph name="help" format="2">
  <advance width="902"/>
  <unicode hex="E032"/>
  <outline>
    <contour>
      <point x="63" y="169" type="curve" smooth="yes"/>
      <point x="63" y="73"/>
      <point x="118" y="25"/>
      <point x="228" y="25" type="curve" smooth="yes"/>
      <point x="365" y="25"/>
      <point x="421" y="139"/>
      <point x="421" y="222" type="curve" smooth="yes"/>
      <point x="421" y="310"/>
      <point x="359" y="366"/>
      <point x="255" y="366" type="curve" smooth="yes"/>
      <point x="135" y="366"/>
      <point x="63" y="278"/>
    </contour>
    <contour>
      <point x="342" y="430" type="line"/>
      <point x="396" y="473" type="line"/>
      <point x="396" y="492" type="line"/>
      <point x="373" y="515"/>
      <point x="362" y="539"/>
      <point x="362" y="566" type="curve" smooth="yes"/>
      <point x="362" y="629"/>
      <point x="411" y="669"/>
      <point x="523" y="744" type="curve"/>
      <point x="754" y="903"/>
      <point x="852" y="998"/>
      <point x="852" y="1164" type="curve" smooth="yes"/>
      <point x="852" y="1361"/>
      <point x="679" y="1488"/>
      <point x="447" y="1488" type="curve" smooth="yes"/>
      <point x="343" y="1488"/>
      <point x="257" y="1466"/>
      <point x="132" y="1386" type="curve"/>
      <point x="115" y="1315"/>
      <point x="89" y="1233"/>
      <point x="50" y="1134" type="curve"/>
      <point x="62" y="1106" type="line"/>
      <point x="156" y="1092" type="line"/>
      <point x="203" y="1110" type="line"/>
      <point x="234" y="1187"/>
      <point x="260" y="1237"/>
      <point x="281" y="1252" type="curve" smooth="yes"/>
      <point x="308" y="1271"/>
      <point x="340" y="1280"/>
      <point x="371" y="1280" type="curve" smooth="yes"/>
      <point x="451" y="1280"/>
      <point x="507" y="1228"/>
      <point x="507" y="1151" type="curve" smooth="yes"/>
      <point x="507" y="1104"/>
      <point x="497" y="1063"/>
      <point x="474" y="1027" type="curve" smooth="yes"/>
      <point x="446" y="982"/>
      <point x="398" y="925"/>
      <point x="329" y="854" type="curve" smooth="yes"/>
      <point x="262" y="786"/>
      <point x="221" y="737"/>
      <point x="206" y="704" type="curve"/>
      <point x="206" y="706" type="line"/>
      <point x="187" y="667"/>
      <point x="177" y="634"/>
      <point x="177" y="605" type="curve" smooth="yes"/>
      <point x="177" y="554"/>
      <point x="199" y="504"/>
      <point x="279" y="430" type="curve"/>
    </contour>
  </outline>
</glyph>
<glyph name="facebook" format="2">
  <advance width="838"/>
  <unicode hex="E033"/>
  <outline>
    <contour>
      <point x="50" y="821" type="line"/>
      <point x="206" y="821" type="line"/>
      <point x="206" y="0" type="line"/>
      <point x="507" y="0" type="line"/>
      <point x="507" y="821" type="line"/>
      <point x="727" y="821" type="line"/>
      <point x="747" y="1032" type="line"/>
      <point x="507" y="1032" type="line"/>
      <point x="507" y="1107" type="line" smooth="yes"/>
      <point x="507" y="1215"/>
      <point x="537" y="1245"/>
      <point x="611" y="1245" type="curve" smooth="yes"/>
      <point x="650" y="1245"/>
      <point x="696" y="1239"/>
      <point x="749" y="1226" type="curve"/>
      <point x="788" y="1423" type="line"/>
      <point x="706" y="1448"/>
      <point x="624" y="1461"/>
      <point x="543" y="1461" type="curve" smooth="yes"/>
      <point x="375" y="1461"/>
      <point x="270" y="1392"/>
      <point x="235" y="1312" type="curve" smooth="yes"/>
      <point x="215" y="1267"/>
      <point x="206" y="1200"/>
      <point x="206" y="1112" type="curve" smooth="yes"/>
      <point x="206" y="1032" type="line"/>
      <point x="50" y="1032" type="line"/>
    </contour>
  </outline>
</glyph>
<glyph name="twitter_1" format="2">
  <advance width="2090"/>
  <unicode hex="E044"/>
  <outline>
    <contour>
      <point x="50" y="789" type="curve" smooth="yes"/>
      <point x="50" y="238"/>
      <point x="494" y="-206"/>
      <point x="1045" y="-206" type="curve" smooth="yes"/>
      <point x="1594" y="-206"/>
      <point x="2040" y="238"/>
      <point x="2040" y="789" type="curve" smooth="yes"/>
      <point x="2040" y="1338"/>
      <point x="1594" y="1784"/>
      <point x="1045" y="1784" type="curve" smooth="yes"/>
      <point x="494" y="1784"/>
      <point x="50" y="1338"/>
    </contour>
    <contour>
      <point x="302" y="530" type="curve"/>
      <point x="353" y="482"/>
      <point x="450" y="436"/>
      <point x="560" y="436" type="curve" smooth="yes"/>
      <point x="649" y="436"/>
      <point x="747" y="466"/>
      <point x="836" y="553" type="curve"/>
      <point x="790" y="542"/>
      <point x="730" y="573"/>
      <point x="730" y="615" type="curve" smooth="yes"/>
      <point x="730" y="644"/>
      <point x="756" y="661"/>
      <point x="785" y="678" type="curve"/>
      <point x="725" y="662"/>
      <point x="630" y="704"/>
      <point x="614" y="766" type="curve"/>
      <point x="633" y="791"/>
      <point x="672" y="812"/>
      <point x="713" y="802" type="curve"/>
      <point x="639" y="822"/>
      <point x="556" y="876"/>
      <point x="547" y="949" type="curve"/>
      <point x="575" y="959"/>
      <point x="604" y="964"/>
      <point x="634" y="961" type="curve"/>
      <point x="552" y="1005"/>
      <point x="508" y="1076"/>
      <point x="515" y="1144" type="curve"/>
      <point x="795" y="1040"/>
      <point x="926" y="964"/>
      <point x="998" y="892" type="curve"/>
      <point x="1030" y="979"/>
      <point x="1108" y="1174"/>
      <point x="1220" y="1241" type="curve"/>
      <point x="1220" y="1230"/>
      <point x="1216" y="1218"/>
      <point x="1207" y="1207" type="curve"/>
      <point x="1241" y="1226"/>
      <point x="1266" y="1256"/>
      <point x="1314" y="1256" type="curve"/>
      <point x="1309" y="1235"/>
      <point x="1294" y="1218"/>
      <point x="1271" y="1207" type="curve"/>
      <point x="1285" y="1216"/>
      <point x="1379" y="1250"/>
      <point x="1379" y="1221" type="curve" smooth="yes"/>
      <point x="1379" y="1187"/>
      <point x="1295" y="1174"/>
      <point x="1264" y="1164" type="curve"/>
      <point x="1372" y="1161"/>
      <point x="1459" y="1112"/>
      <point x="1528" y="999" type="curve" smooth="yes"/>
      <point x="1551" y="962"/>
      <point x="1566" y="925"/>
      <point x="1569" y="885" type="curve"/>
      <point x="1624" y="869"/>
      <point x="1688" y="865"/>
      <point x="1743" y="887" type="curve"/>
      <point x="1710" y="831"/>
      <point x="1649" y="808"/>
      <point x="1589" y="808" type="curve"/>
      <point x="1640" y="787"/>
      <point x="1697" y="789"/>
      <point x="1752" y="792" type="curve"/>
      <point x="1692" y="734"/>
      <point x="1643" y="728"/>
      <point x="1576" y="728" type="curve"/>
      <point x="1552" y="628"/>
      <point x="1505" y="533"/>
      <point x="1405" y="442" type="curve" smooth="yes"/>
      <point x="1237" y="290"/>
      <point x="1070" y="250"/>
      <point x="871" y="250" type="curve"/>
      <point x="771" y="249"/>
      <point x="674" y="265"/>
      <point x="569" y="314" type="curve" smooth="yes"/>
      <point x="462" y="363"/>
      <point x="373" y="435"/>
    </contour>
  </outline>
</glyph>
<glyph name="info_2" format="2">
  <advance width="2090"/>
  <unicode hex="E051"/>
  <outline>
    <contour>
      <point x="249" y="789" type="curve" smooth="yes"/>
      <point x="249" y="1228"/>
      <point x="606" y="1585"/>
      <point x="1045" y="1585" type="curve" smooth="yes"/>
      <point x="1484" y="1585"/>
      <point x="1841" y="1228"/>
      <point x="1841" y="789" type="curve" smooth="yes"/>
      <point x="1841" y="350"/>
      <point x="1484" y="-7"/>
      <point x="1045" y="-7" type="curve" smooth="yes"/>
      <point x="606" y="-7"/>
      <point x="249" y="350"/>
    </contour>
    <contour>
      <point x="50" y="789" type="curve" smooth="yes"/>
      <point x="50" y="238"/>
      <point x="495" y="-206"/>
      <point x="1045" y="-206" type="curve" smooth="yes"/>
      <point x="1594" y="-206"/>
      <point x="2040" y="239"/>
      <point x="2040" y="789" type="curve" smooth="yes"/>
      <point x="2040" y="1338"/>
      <point x="1594" y="1784"/>
      <point x="1045" y="1784" type="curve" smooth="yes"/>
      <point x="494" y="1784"/>
      <point x="50" y="1338"/>
    </contour>
    <contour>
      <point x="832" y="782" type="line"/>
      <point x="880" y="815"/>
      <point x="914" y="839"/>
      <point x="935" y="851" type="curve"/>
      <point x="932" y="812"/>
      <point x="909" y="706"/>
      <point x="870" y="558" type="curve"/>
      <point x="825" y="398"/>
      <point x="819" y="358"/>
      <point x="819" y="304" type="curve" smooth="yes"/>
      <point x="819" y="243"/>
      <point x="853" y="200"/>
      <point x="921" y="200" type="curve" smooth="yes"/>
      <point x="976" y="200"/>
      <point x="1017" y="217"/>
      <point x="1114" y="281" type="curve"/>
      <point x="1165" y="316"/>
      <point x="1228" y="359"/>
      <point x="1265" y="386" type="curve"/>
      <point x="1271" y="401" type="line"/>
      <point x="1241" y="453" type="line"/>
      <point x="1186" y="454" type="line"/>
      <point x="1141" y="422"/>
      <point x="1110" y="400"/>
      <point x="1091" y="388" type="curve"/>
      <point x="1092" y="418"/>
      <point x="1115" y="517"/>
      <point x="1160" y="685" type="curve" smooth="yes"/>
      <point x="1219" y="905"/>
      <point x="1227" y="929"/>
      <point x="1227" y="985" type="curve" smooth="yes"/>
      <point x="1227" y="1033"/>
      <point x="1188" y="1067"/>
      <point x="1137" y="1067" type="curve" smooth="yes"/>
      <point x="1098" y="1067"/>
      <point x="1050" y="1050"/>
      <point x="993" y="1017" type="curve" smooth="yes"/>
      <point x="932" y="981"/>
      <point x="851" y="925"/>
      <point x="751" y="848" type="curve"/>
      <point x="749" y="832" type="line"/>
      <point x="776" y="785" type="line"/>
    </contour>
    <contour>
      <point x="1020" y="1295" type="curve" smooth="yes"/>
      <point x="1020" y="1226"/>
      <point x="1059" y="1176"/>
      <point x="1152" y="1176" type="curve" smooth="yes"/>
      <point x="1263" y="1176"/>
      <point x="1303" y="1263"/>
      <point x="1303" y="1325" type="curve" smooth="yes"/>
      <point x="1303" y="1393"/>
      <point x="1255" y="1437"/>
      <point x="1172" y="1437" type="curve" smooth="yes"/>
      <point x="1084" y="1437"/>
      <point x="1020" y="1374"/>
    </contour>
  </outline>
</glyph>
<glyph name="help_2" format="2">
  <advance width="2090"/>
  <unicode hex="E052"/>
  <outline>
    <contour>
      <point x="249" y="713" type="curve" smooth="yes"/>
      <point x="249" y="1152"/>
      <point x="606" y="1509"/>
      <point x="1045" y="1509" type="curve" smooth="yes"/>
      <point x="1484" y="1509"/>
      <point x="1841" y="1152"/>
      <point x="1841" y="713" type="curve" smooth="yes"/>
      <point x="1841" y="274"/>
      <point x="1484" y="-83"/>
      <point x="1045" y="-83" type="curve" smooth="yes"/>
      <point x="606" y="-83"/>
      <point x="249" y="274"/>
    </contour>
    <contour>
      <point x="50" y="713" type="curve" smooth="yes"/>
      <point x="50" y="162"/>
      <point x="495" y="-282"/>
      <point x="1045" y="-282" type="curve" smooth="yes"/>
      <point x="1594" y="-282"/>
      <point x="2040" y="163"/>
      <point x="2040" y="713" type="curve" smooth="yes"/>
      <point x="2040" y="1262"/>
      <point x="1594" y="1708"/>
      <point x="1045" y="1708" type="curve" smooth="yes"/>
      <point x="494" y="1708"/>
      <point x="50" y="1262"/>
    </contour>
    <contour>
      <point x="785" y="199" type="curve" smooth="yes"/>
      <point x="785" y="119"/>
      <point x="831" y="79"/>
      <point x="922" y="79" type="curve" smooth="yes"/>
      <point x="1037" y="79"/>
      <point x="1083" y="175"/>
      <point x="1083" y="243" type="curve" smooth="yes"/>
      <point x="1083" y="316"/>
      <point x="1032" y="363"/>
      <point x="945" y="363" type="curve" smooth="yes"/>
      <point x="845" y="363"/>
      <point x="785" y="290"/>
    </contour>
    <contour>
      <point x="1017" y="416" type="line"/>
      <point x="1062" y="452" type="line"/>
      <point x="1062" y="468" type="line"/>
      <point x="1043" y="487"/>
      <point x="1034" y="507"/>
      <point x="1034" y="530" type="curve" smooth="yes"/>
      <point x="1034" y="582"/>
      <point x="1076" y="615"/>
      <point x="1168" y="678" type="curve" smooth="yes"/>
      <point x="1361" y="809"/>
      <point x="1442" y="890"/>
      <point x="1442" y="1028" type="curve" smooth="yes"/>
      <point x="1442" y="1192"/>
      <point x="1299" y="1298"/>
      <point x="1105" y="1298" type="curve" smooth="yes"/>
      <point x="1020" y="1298"/>
      <point x="945" y="1279"/>
      <point x="842" y="1213" type="curve"/>
      <point x="827" y="1154"/>
      <point x="806" y="1086"/>
      <point x="774" y="1003" type="curve"/>
      <point x="784" y="980" type="line"/>
      <point x="862" y="968" type="line"/>
      <point x="901" y="983" type="line"/>
      <point x="926" y="1047"/>
      <point x="949" y="1090"/>
      <point x="966" y="1101" type="curve" smooth="yes"/>
      <point x="989" y="1116"/>
      <point x="1016" y="1125"/>
      <point x="1041" y="1125" type="curve" smooth="yes"/>
      <point x="1109" y="1125"/>
      <point x="1155" y="1081"/>
      <point x="1155" y="1017" type="curve" smooth="yes"/>
      <point x="1155" y="931"/>
      <point x="1113" y="877"/>
      <point x="1006" y="770" type="curve" smooth="yes"/>
      <point x="950" y="714"/>
      <point x="916" y="672"/>
      <point x="904" y="645" type="curve"/>
      <point x="904" y="646" type="line"/>
      <point x="889" y="614"/>
      <point x="880" y="586"/>
      <point x="880" y="562" type="curve" smooth="yes"/>
      <point x="880" y="519"/>
      <point x="898" y="480"/>
      <point x="965" y="416" type="curve"/>
    </contour>
  </outline>
</glyph>
<glyph name="download_2" format="2">
  <advance width="2090"/>
  <unicode hex="E055"/>
  <outline>
    <contour>
      <point x="813" y="1030" type="line"/>
      <point x="813" y="697" type="line"/>
      <point x="516" y="697" type="line"/>
      <point x="1035" y="335" type="line"/>
      <point x="1555" y="697" type="line"/>
      <point x="1258" y="697" type="line"/>
      <point x="1258" y="1030" type="line"/>
    </contour>
    <contour>
      <point x="813" y="1227" type="line"/>
      <point x="813" y="1074" type="line"/>
      <point x="1258" y="1074" type="line"/>
      <point x="1258" y="1227" type="line"/>
    </contour>
    <contour>
      <point x="560" y="297" type="line"/>
      <point x="560" y="196" type="line"/>
      <point x="1510" y="196" type="line"/>
      <point x="1510" y="297" type="line"/>
    </contour>
    <contour>
      <point x="813" y="1370" type="line"/>
      <point x="813" y="1269" type="line"/>
      <point x="1258" y="1269" type="line"/>
      <point x="1258" y="1370" type="line"/>
    </contour>
    <contour>
      <point x="813" y="1452" type="line"/>
      <point x="813" y="1411" type="line"/>
      <point x="1258" y="1411" type="line"/>
      <point x="1258" y="1452" type="line"/>
    </contour>
    <contour>
      <point x="249" y="785" type="curve" smooth="yes"/>
      <point x="249" y="1224"/>
      <point x="606" y="1581"/>
      <point x="1045" y="1581" type="curve" smooth="yes"/>
      <point x="1484" y="1581"/>
      <point x="1841" y="1224"/>
      <point x="1841" y="785" type="curve" smooth="yes"/>
      <point x="1841" y="346"/>
      <point x="1484" y="-11"/>
      <point x="1045" y="-11" type="curve" smooth="yes"/>
      <point x="606" y="-11"/>
      <point x="249" y="346"/>
    </contour>
    <contour>
      <point x="50" y="785" type="curve" smooth="yes"/>
      <point x="50" y="234"/>
      <point x="495" y="-210"/>
      <point x="1045" y="-210" type="curve" smooth="yes"/>
      <point x="1594" y="-210"/>
      <point x="2040" y="235"/>
      <point x="2040" y="785" type="curve" smooth="yes"/>
      <point x="2040" y="1334"/>
      <point x="1594" y="1780"/>
      <point x="1045" y="1780" type="curve" smooth="yes"/>
      <point x="494" y="1780"/>
      <point x="50" y="1334"/>
    </contour>
  </outline>
</glyph>
<glyph name="right_ctrl" format="2">
  <advance width="3079"/>
  <unicode hex="E059"/>
  <outline>
    <contour>
      <point x="3029" y="1309" type="line"/>
      <point x="3029" y="1320"/>
      <point x="3020" y="1329"/>
      <point x="3009" y="1329" type="curve" smooth="yes"/>
      <point x="2916" y="1329" type="line" smooth="yes"/>
      <point x="2905" y="1329"/>
      <point x="2896" y="1320"/>
      <point x="2896" y="1309" type="curve" smooth="yes"/>
      <point x="2896" y="257" type="line" smooth="yes"/>
      <point x="2896" y="246"/>
      <point x="2905" y="237"/>
      <point x="2916" y="237" type="curve" smooth="yes"/>
      <point x="3009" y="237" type="line" smooth="yes"/>
      <point x="3020" y="237"/>
      <point x="3029" y="246"/>
      <point x="3029" y="257" type="curve" smooth="yes"/>
    </contour>
    <contour>
      <point x="2804" y="998" type="line"/>
      <point x="2775" y="1009"/>
      <point x="2718" y="1056"/>
      <point x="2643" y="1056" type="curve" smooth="yes"/>
      <point x="2586" y="1056"/>
      <point x="2540" y="1035"/>
      <point x="2503" y="996" type="curve"/>
      <point x="2503" y="1021" type="line" smooth="yes"/>
      <point x="2503" y="1032"/>
      <point x="2494" y="1041"/>
      <point x="2483" y="1041" type="curve" smooth="yes"/>
      <point x="2385" y="1041" type="line" smooth="yes"/>
      <point x="2374" y="1041"/>
      <point x="2365" y="1032"/>
      <point x="2365" y="1021" type="curve" smooth="yes"/>
      <point x="2365" y="257" type="line" smooth="yes"/>
      <point x="2365" y="246"/>
      <point x="2374" y="237"/>
      <point x="2385" y="237" type="curve" smooth="yes"/>
      <point x="2478" y="237" type="line" smooth="yes"/>
      <point x="2489" y="237"/>
      <point x="2498" y="246"/>
      <point x="2498" y="257" type="curve" smooth="yes"/>
      <point x="2498" y="686" type="line" smooth="yes"/>
      <point x="2498" y="766"/>
      <point x="2554" y="925"/>
      <point x="2638" y="925" type="curve" smooth="yes"/>
      <point x="2666" y="925"/>
      <point x="2705" y="910"/>
      <point x="2732" y="890" type="curve"/>
      <point x="2750" y="890"/>
      <point x="2810" y="955"/>
      <point x="2816" y="972" type="curve"/>
    </contour>
    <contour>
      <point x="2265" y="282" type="line"/>
      <point x="2256" y="303"/>
      <point x="2248" y="332"/>
      <point x="2239" y="371" type="curve" smooth="yes"/>
      <point x="2236" y="382"/>
      <point x="2228" y="387"/>
      <point x="2219" y="387" type="curve" smooth="yes"/>
      <point x="2216" y="387"/>
      <point x="2213" y="387"/>
      <point x="2212" y="386" type="curve" smooth="yes"/>
      <point x="2183" y="375"/>
      <point x="2164" y="372"/>
      <point x="2140" y="372" type="curve" smooth="yes"/>
      <point x="2105" y="372"/>
      <point x="2087" y="388"/>
      <point x="2087" y="419" type="curve" smooth="yes"/>
      <point x="2087" y="924" type="line"/>
      <point x="2212" y="924" type="line" smooth="yes"/>
      <point x="2223" y="924"/>
      <point x="2232" y="933"/>
      <point x="2232" y="944" type="curve" smooth="yes"/>
      <point x="2232" y="1036" type="line" smooth="yes"/>
      <point x="2232" y="1047"/>
      <point x="2223" y="1056"/>
      <point x="2212" y="1056" type="curve" smooth="yes"/>
      <point x="2087" y="1056" type="line"/>
      <point x="2087" y="1237" type="line" smooth="yes"/>
      <point x="2087" y="1248"/>
      <point x="2078" y="1257"/>
      <point x="2067" y="1257" type="curve" smooth="yes"/>
      <point x="1974" y="1257" type="line" smooth="yes"/>
      <point x="1963" y="1257"/>
      <point x="1954" y="1248"/>
      <point x="1954" y="1237" type="curve" smooth="yes"/>
      <point x="1954" y="1056" type="line"/>
      <point x="1870" y="1056" type="line" smooth="yes"/>
      <point x="1859" y="1056"/>
      <point x="1850" y="1047"/>
      <point x="1850" y="1036" type="curve" smooth="yes"/>
      <point x="1850" y="944" type="line" smooth="yes"/>
      <point x="1850" y="933"/>
      <point x="1859" y="924"/>
      <point x="1870" y="924" type="curve" smooth="yes"/>
      <point x="1954" y="924" type="line"/>
      <point x="1954" y="408" type="line" smooth="yes"/>
      <point x="1954" y="294"/>
      <point x="2013" y="237"/>
      <point x="2130" y="237" type="curve" smooth="yes"/>
      <point x="2163" y="237"/>
      <point x="2192" y="242"/>
      <point x="2223" y="249" type="curve" smooth="yes"/>
      <point x="2250" y="254" type="line"/>
    </contour>
    <contour>
      <point x="1752" y="1001" type="line"/>
      <point x="1763" y="1003"/>
      <point x="1768" y="1009"/>
      <point x="1768" y="1020" type="curve" smooth="yes"/>
      <point x="1768" y="1023"/>
      <point x="1768" y="1025"/>
      <point x="1767" y="1026" type="curve"/>
      <point x="1708" y="1236"/>
      <point x="1571" y="1341"/>
      <point x="1357" y="1341" type="curve" smooth="yes"/>
      <point x="1345" y="1341" type="line" smooth="yes"/>
      <point x="1012" y="1336"/>
      <point x="844" y="1152"/>
      <point x="840" y="791" type="curve" smooth="yes"/>
      <point x="840" y="778" type="line" smooth="yes"/>
      <point x="840" y="413"/>
      <point x="1006" y="230"/>
      <point x="1338" y="229" type="curve" smooth="yes"/>
      <point x="1341" y="229" type="line" smooth="yes"/>
      <point x="1581" y="229"/>
      <point x="1721" y="345"/>
      <point x="1768" y="577" type="curve"/>
      <point x="1768" y="581" type="line" smooth="yes"/>
      <point x="1768" y="592"/>
      <point x="1763" y="599"/>
      <point x="1752" y="601" type="curve" smooth="yes"/>
      <point x="1635" y="624" type="line"/>
      <point x="1624" y="624"/>
      <point x="1617" y="619"/>
      <point x="1614" y="608" type="curve"/>
      <point x="1579" y="443"/>
      <point x="1482" y="362"/>
      <point x="1329" y="359" type="curve"/>
      <point x="1118" y="374"/>
      <point x="1002" y="521"/>
      <point x="1002" y="772" type="curve" smooth="yes"/>
      <point x="1002" y="782" type="line" smooth="yes"/>
      <point x="1005" y="1036"/>
      <point x="1130" y="1184"/>
      <point x="1338" y="1197" type="curve"/>
      <point x="1479" y="1194"/>
      <point x="1574" y="1128"/>
      <point x="1613" y="992" type="curve" smooth="yes"/>
      <point x="1616" y="982"/>
      <point x="1623" y="977"/>
      <point x="1633" y="977" type="curve" smooth="yes"/>
      <point x="1636" y="977" type="line"/>
    </contour>
    <contour>
      <point x="846" y="238" type="line"/>
      <point x="825" y="280"/>
      <point x="799" y="335"/>
      <point x="740" y="458" type="curve" smooth="yes"/>
      <point x="673" y="598"/>
      <point x="645" y="646"/>
      <point x="611" y="678" type="curve" smooth="yes"/>
      <point x="587" y="700"/>
      <point x="555" y="735"/>
      <point x="555" y="738" type="curve" smooth="yes"/>
      <point x="555" y="747"/>
      <point x="587" y="753"/>
      <point x="645" y="774" type="curve" smooth="yes"/>
      <point x="751" y="812"/>
      <point x="796" y="906"/>
      <point x="796" y="1041" type="curve" smooth="yes"/>
      <point x="796" y="1225"/>
      <point x="667" y="1332"/>
      <point x="484" y="1332" type="curve" smooth="yes"/>
      <point x="50" y="1332" type="line"/>
      <point x="50" y="238" type="line"/>
      <point x="215" y="238" type="line"/>
      <point x="215" y="727" type="line"/>
      <point x="302" y="727" type="line" smooth="yes"/>
      <point x="363" y="727"/>
      <point x="417" y="704"/>
      <point x="486" y="578" type="curve" smooth="yes"/>
      <point x="555" y="452"/>
      <point x="619" y="303"/>
      <point x="656" y="238" type="curve"/>
    </contour>
    <contour>
      <point x="633" y="1025" type="curve" smooth="yes"/>
      <point x="633" y="918"/>
      <point x="534" y="862"/>
      <point x="414" y="862" type="curve" smooth="yes"/>
      <point x="215" y="862" type="line"/>
      <point x="215" y="1197" type="line"/>
      <point x="452" y="1197" type="line" smooth="yes"/>
      <point x="578" y="1197"/>
      <point x="633" y="1137"/>
    </contour>
  </outline>
</glyph>
<glyph name="left_alt_ctrl" format="2">
  <advance width="2915"/>
  <unicode hex="E060"/>
  <outline>
    <contour>
      <point x="1360" y="1640" type="line"/>
      <point x="1369" y="1667"/>
      <point x="1378" y="1688"/>
      <point x="1389" y="1719" type="curve"/>
      <point x="1420" y="1640" type="line"/>
      <point x="1542" y="1306" type="line"/>
      <point x="1238" y="1306" type="line"/>
    </contour>
    <contour>
      <point x="2088" y="1919" type="line"/>
      <point x="2088" y="1930"/>
      <point x="2079" y="1939"/>
      <point x="2068" y="1939" type="curve" smooth="yes"/>
      <point x="1975" y="1939" type="line" smooth="yes"/>
      <point x="1964" y="1939"/>
      <point x="1955" y="1930"/>
      <point x="1955" y="1919" type="curve" smooth="yes"/>
      <point x="1955" y="867" type="line" smooth="yes"/>
      <point x="1955" y="856"/>
      <point x="1964" y="847"/>
      <point x="1975" y="847" type="curve" smooth="yes"/>
      <point x="2068" y="847" type="line" smooth="yes"/>
      <point x="2079" y="847"/>
      <point x="2088" y="856"/>
      <point x="2088" y="867" type="curve" smooth="yes"/>
    </contour>
    <contour>
      <point x="2865" y="711" type="line"/>
      <point x="2865" y="722"/>
      <point x="2856" y="731"/>
      <point x="2845" y="731" type="curve" smooth="yes"/>
      <point x="2752" y="731" type="line" smooth="yes"/>
      <point x="2741" y="731"/>
      <point x="2732" y="722"/>
      <point x="2732" y="711" type="curve" smooth="yes"/>
      <point x="2732" y="-342" type="line" smooth="yes"/>
      <point x="2732" y="-353"/>
      <point x="2741" y="-362"/>
      <point x="2752" y="-362" type="curve" smooth="yes"/>
      <point x="2845" y="-362" type="line" smooth="yes"/>
      <point x="2856" y="-362"/>
      <point x="2865" y="-353"/>
      <point x="2865" y="-342" type="curve" smooth="yes"/>
    </contour>
    <contour>
      <point x="2640" y="400" type="line"/>
      <point x="2640" y="401"/>
      <point x="2633" y="404"/>
      <point x="2626" y="408" type="curve" smooth="yes"/>
      <point x="2617" y="413" type="line" smooth="yes"/>
      <point x="2585" y="430"/>
      <point x="2536" y="457"/>
      <point x="2481" y="457" type="curve" smooth="yes"/>
      <point x="2418" y="457"/>
      <point x="2379" y="442"/>
      <point x="2340" y="398" type="curve"/>
      <point x="2340" y="423" type="line" smooth="yes"/>
      <point x="2340" y="434"/>
      <point x="2331" y="443"/>
      <point x="2320" y="443" type="curve" smooth="yes"/>
      <point x="2223" y="443" type="line" smooth="yes"/>
      <point x="2212" y="443"/>
      <point x="2203" y="434"/>
      <point x="2203" y="423" type="curve" smooth="yes"/>
      <point x="2203" y="-342" type="line" smooth="yes"/>
      <point x="2203" y="-353"/>
      <point x="2212" y="-362"/>
      <point x="2223" y="-362" type="curve" smooth="yes"/>
      <point x="2316" y="-362" type="line" smooth="yes"/>
      <point x="2327" y="-362"/>
      <point x="2336" y="-353"/>
      <point x="2336" y="-342" type="curve" smooth="yes"/>
      <point x="2336" y="87" type="line" smooth="yes"/>
      <point x="2336" y="167"/>
      <point x="2391" y="325"/>
      <point x="2475" y="325" type="curve" smooth="yes"/>
      <point x="2504" y="325"/>
      <point x="2544" y="311"/>
      <point x="2571" y="292" type="curve"/>
      <point x="2587" y="292"/>
      <point x="2648" y="357"/>
      <point x="2654" y="374" type="curve"/>
    </contour>
    <contour>
      <point x="2114" y="-332" type="line"/>
      <point x="2103" y="-306"/>
      <point x="2094" y="-276"/>
      <point x="2085" y="-241" type="curve" smooth="yes"/>
      <point x="2083" y="-231"/>
      <point x="2077" y="-226"/>
      <point x="2066" y="-226" type="curve" smooth="yes"/>
      <point x="2063" y="-226"/>
      <point x="2061" y="-226"/>
      <point x="2060" y="-227" type="curve"/>
      <point x="2052" y="-229" type="line" smooth="yes"/>
      <point x="2028" y="-236"/>
      <point x="2010" y="-241"/>
      <point x="1989" y="-241" type="curve" smooth="yes"/>
      <point x="1954" y="-241"/>
      <point x="1936" y="-225"/>
      <point x="1936" y="-194" type="curve" smooth="yes"/>
      <point x="1936" y="311" type="line"/>
      <point x="2061" y="311" type="line" smooth="yes"/>
      <point x="2072" y="311"/>
      <point x="2081" y="320"/>
      <point x="2081" y="331" type="curve" smooth="yes"/>
      <point x="2081" y="423" type="line" smooth="yes"/>
      <point x="2081" y="434"/>
      <point x="2072" y="443"/>
      <point x="2061" y="443" type="curve" smooth="yes"/>
      <point x="1936" y="443" type="line"/>
      <point x="1936" y="624" type="line" smooth="yes"/>
      <point x="1936" y="635"/>
      <point x="1927" y="644"/>
      <point x="1916" y="644" type="curve" smooth="yes"/>
      <point x="1823" y="644" type="line" smooth="yes"/>
      <point x="1812" y="644"/>
      <point x="1803" y="635"/>
      <point x="1803" y="624" type="curve" smooth="yes"/>
      <point x="1803" y="443" type="line"/>
      <point x="1719" y="443" type="line" smooth="yes"/>
      <point x="1708" y="443"/>
      <point x="1699" y="434"/>
      <point x="1699" y="423" type="curve" smooth="yes"/>
      <point x="1699" y="331" type="line" smooth="yes"/>
      <point x="1699" y="320"/>
      <point x="1708" y="311"/>
      <point x="1719" y="311" type="curve" smooth="yes"/>
      <point x="1803" y="311" type="line"/>
      <point x="1803" y="-205" type="line" smooth="yes"/>
      <point x="1803" y="-319"/>
      <point x="1862" y="-376"/>
      <point x="1979" y="-376" type="curve" smooth="yes"/>
      <point x="2012" y="-376"/>
      <point x="2041" y="-371"/>
      <point x="2072" y="-364" type="curve" smooth="yes"/>
      <point x="2099" y="-359" type="line"/>
    </contour>
    <contour>
      <point x="2636" y="892" type="line"/>
      <point x="2626" y="917"/>
      <point x="2617" y="947"/>
      <point x="2608" y="982" type="curve" smooth="yes"/>
      <point x="2606" y="992"/>
      <point x="2600" y="997"/>
      <point x="2589" y="997" type="curve" smooth="yes"/>
      <point x="2586" y="997"/>
      <point x="2583" y="997"/>
      <point x="2582" y="996" type="curve" smooth="yes"/>
      <point x="2553" y="985"/>
      <point x="2535" y="982"/>
      <point x="2510" y="982" type="curve" smooth="yes"/>
      <point x="2475" y="982"/>
      <point x="2458" y="998"/>
      <point x="2458" y="1029" type="curve" smooth="yes"/>
      <point x="2458" y="1534" type="line"/>
      <point x="2583" y="1534" type="line" smooth="yes"/>
      <point x="2594" y="1534"/>
      <point x="2603" y="1543"/>
      <point x="2603" y="1554" type="curve" smooth="yes"/>
      <point x="2603" y="1646" type="line" smooth="yes"/>
      <point x="2603" y="1657"/>
      <point x="2594" y="1666"/>
      <point x="2583" y="1666" type="curve" smooth="yes"/>
      <point x="2458" y="1666" type="line"/>
      <point x="2458" y="1847" type="line" smooth="yes"/>
      <point x="2458" y="1858"/>
      <point x="2449" y="1867"/>
      <point x="2438" y="1867" type="curve" smooth="yes"/>
      <point x="2345" y="1867" type="line" smooth="yes"/>
      <point x="2334" y="1867"/>
      <point x="2325" y="1858"/>
      <point x="2325" y="1847" type="curve" smooth="yes"/>
      <point x="2325" y="1666" type="line"/>
      <point x="2241" y="1666" type="line" smooth="yes"/>
      <point x="2230" y="1666"/>
      <point x="2221" y="1657"/>
      <point x="2221" y="1646" type="curve" smooth="yes"/>
      <point x="2221" y="1554" type="line" smooth="yes"/>
      <point x="2221" y="1543"/>
      <point x="2230" y="1534"/>
      <point x="2241" y="1534" type="curve" smooth="yes"/>
      <point x="2325" y="1534" type="line"/>
      <point x="2325" y="1018" type="line" smooth="yes"/>
      <point x="2325" y="904"/>
      <point x="2384" y="847"/>
      <point x="2501" y="847" type="curve" smooth="yes"/>
      <point x="2534" y="847"/>
      <point x="2563" y="852"/>
      <point x="2594" y="859" type="curve" smooth="yes"/>
      <point x="2621" y="864" type="line"/>
    </contour>
    <contour>
      <point x="1592" y="403" type="line"/>
      <point x="1603" y="406"/>
      <point x="1608" y="412"/>
      <point x="1608" y="423" type="curve"/>
      <point x="1607" y="428" type="line" smooth="yes"/>
      <point x="1549" y="637"/>
      <point x="1413" y="742"/>
      <point x="1198" y="742" type="curve" smooth="yes"/>
      <point x="1186" y="742" type="line" smooth="yes"/>
      <point x="855" y="737"/>
      <point x="684" y="553"/>
      <point x="680" y="193" type="curve" smooth="yes"/>
      <point x="680" y="180" type="line" smooth="yes"/>
      <point x="680" y="-185"/>
      <point x="846" y="-366"/>
      <point x="1177" y="-369" type="curve" smooth="yes"/>
      <point x="1183" y="-369" type="line" smooth="yes"/>
      <point x="1423" y="-369"/>
      <point x="1563" y="-251"/>
      <point x="1608" y="-22" type="curve"/>
      <point x="1608" y="-18" type="line" smooth="yes"/>
      <point x="1608" y="-7"/>
      <point x="1603" y="0"/>
      <point x="1592" y="2" type="curve" smooth="yes"/>
      <point x="1474" y="25" type="line"/>
      <point x="1463" y="25"/>
      <point x="1456" y="20"/>
      <point x="1454" y="9" type="curve" smooth="yes"/>
      <point x="1419" y="-156"/>
      <point x="1323" y="-237"/>
      <point x="1170" y="-240" type="curve"/>
      <point x="958" y="-225"/>
      <point x="842" y="-78"/>
      <point x="842" y="173" type="curve" smooth="yes"/>
      <point x="842" y="183" type="line" smooth="yes"/>
      <point x="845" y="437"/>
      <point x="970" y="586"/>
      <point x="1177" y="599" type="curve"/>
      <point x="1320" y="596"/>
      <point x="1415" y="530"/>
      <point x="1454" y="394" type="curve" smooth="yes"/>
      <point x="1457" y="384"/>
      <point x="1464" y="379"/>
      <point x="1474" y="379" type="curve" smooth="yes"/>
      <point x="1477" y="379" type="line"/>
    </contour>
    <contour>
      <point x="1049" y="847" type="line"/>
      <point x="1056" y="847"/>
      <point x="1065" y="853"/>
      <point x="1068" y="860" type="curve" smooth="yes"/>
      <point x="1187" y="1171" type="line"/>
      <point x="1594" y="1171" type="line"/>
      <point x="1711" y="860" type="line" smooth="yes"/>
      <point x="1714" y="853"/>
      <point x="1723" y="847"/>
      <point x="1730" y="847" type="curve" smooth="yes"/>
      <point x="1863" y="847" type="line" smooth="yes"/>
      <point x="1876" y="847"/>
      <point x="1883" y="853"/>
      <point x="1883" y="866" type="curve" smooth="yes"/>
      <point x="1883" y="869"/>
      <point x="1883" y="872"/>
      <point x="1882" y="874" type="curve" smooth="yes"/>
      <point x="1486" y="1926" type="line" smooth="yes"/>
      <point x="1483" y="1933"/>
      <point x="1474" y="1939"/>
      <point x="1467" y="1939" type="curve" smooth="yes"/>
      <point x="1314" y="1939" type="line" smooth="yes"/>
      <point x="1307" y="1939"/>
      <point x="1298" y="1933"/>
      <point x="1295" y="1926" type="curve" smooth="yes"/>
      <point x="1218" y="1719"/>
      <point x="1135" y="1500"/>
      <point x="1056" y="1293" type="curve" smooth="yes"/>
      <point x="897" y="874" type="line" smooth="yes"/>
      <point x="896" y="872"/>
      <point x="896" y="869"/>
      <point x="896" y="866" type="curve" smooth="yes"/>
      <point x="896" y="853"/>
      <point x="903" y="847"/>
      <point x="916" y="847" type="curve" smooth="yes"/>
    </contour>
    <contour>
      <point x="856" y="982" type="line"/>
      <point x="395" y="982" type="line"/>
      <point x="395" y="1939" type="line"/>
      <point x="230" y="1939" type="line"/>
      <point x="230" y="847" type="line"/>
      <point x="856" y="847" type="line"/>
    </contour>
    <contour>
      <point x="676" y="-227" type="line"/>
      <point x="215" y="-227" type="line"/>
      <point x="215" y="730" type="line"/>
      <point x="50" y="730" type="line"/>
      <point x="50" y="-362" type="line"/>
      <point x="676" y="-362" type="line"/>
    </contour>
  </outline>
</glyph>
<glyph name="right_alt_ctrl" format="2">
  <advance width="3078"/>
  <unicode hex="E061"/>
  <outline>
    <contour>
      <point x="1523" y="1640" type="line"/>
      <point x="1532" y="1667"/>
      <point x="1541" y="1688"/>
      <point x="1552" y="1719" type="curve"/>
      <point x="1583" y="1640" type="line"/>
      <point x="1705" y="1306" type="line"/>
      <point x="1401" y="1306" type="line"/>
    </contour>
    <contour>
      <point x="2251" y="1919" type="line"/>
      <point x="2251" y="1930"/>
      <point x="2242" y="1939"/>
      <point x="2231" y="1939" type="curve" smooth="yes"/>
      <point x="2138" y="1939" type="line" smooth="yes"/>
      <point x="2127" y="1939"/>
      <point x="2118" y="1930"/>
      <point x="2118" y="1919" type="curve" smooth="yes"/>
      <point x="2118" y="867" type="line" smooth="yes"/>
      <point x="2118" y="856"/>
      <point x="2127" y="847"/>
      <point x="2138" y="847" type="curve" smooth="yes"/>
      <point x="2231" y="847" type="line" smooth="yes"/>
      <point x="2242" y="847"/>
      <point x="2251" y="856"/>
      <point x="2251" y="867" type="curve" smooth="yes"/>
    </contour>
    <contour>
      <point x="3028" y="711" type="line"/>
      <point x="3028" y="722"/>
      <point x="3019" y="731"/>
      <point x="3008" y="731" type="curve" smooth="yes"/>
      <point x="2915" y="731" type="line" smooth="yes"/>
      <point x="2904" y="731"/>
      <point x="2895" y="722"/>
      <point x="2895" y="711" type="curve" smooth="yes"/>
      <point x="2895" y="-342" type="line" smooth="yes"/>
      <point x="2895" y="-353"/>
      <point x="2904" y="-362"/>
      <point x="2915" y="-362" type="curve" smooth="yes"/>
      <point x="3008" y="-362" type="line" smooth="yes"/>
      <point x="3019" y="-362"/>
      <point x="3028" y="-353"/>
      <point x="3028" y="-342" type="curve" smooth="yes"/>
    </contour>
    <contour>
      <point x="2803" y="400" type="line"/>
      <point x="2803" y="401"/>
      <point x="2796" y="404"/>
      <point x="2789" y="408" type="curve" smooth="yes"/>
      <point x="2780" y="413" type="line" smooth="yes"/>
      <point x="2748" y="430"/>
      <point x="2699" y="457"/>
      <point x="2644" y="457" type="curve" smooth="yes"/>
      <point x="2581" y="457"/>
      <point x="2542" y="442"/>
      <point x="2503" y="398" type="curve"/>
      <point x="2503" y="423" type="line" smooth="yes"/>
      <point x="2503" y="434"/>
      <point x="2494" y="443"/>
      <point x="2483" y="443" type="curve" smooth="yes"/>
      <point x="2386" y="443" type="line" smooth="yes"/>
      <point x="2375" y="443"/>
      <point x="2366" y="434"/>
      <point x="2366" y="423" type="curve" smooth="yes"/>
      <point x="2366" y="-342" type="line" smooth="yes"/>
      <point x="2366" y="-353"/>
      <point x="2375" y="-362"/>
      <point x="2386" y="-362" type="curve" smooth="yes"/>
      <point x="2479" y="-362" type="line" smooth="yes"/>
      <point x="2490" y="-362"/>
      <point x="2499" y="-353"/>
      <point x="2499" y="-342" type="curve" smooth="yes"/>
      <point x="2499" y="87" type="line" smooth="yes"/>
      <point x="2499" y="167"/>
      <point x="2554" y="325"/>
      <point x="2638" y="325" type="curve" smooth="yes"/>
      <point x="2667" y="325"/>
      <point x="2707" y="311"/>
      <point x="2734" y="292" type="curve"/>
      <point x="2750" y="292"/>
      <point x="2811" y="357"/>
      <point x="2817" y="374" type="curve"/>
    </contour>
    <contour>
      <point x="2277" y="-332" type="line"/>
      <point x="2266" y="-306"/>
      <point x="2257" y="-276"/>
      <point x="2248" y="-241" type="curve" smooth="yes"/>
      <point x="2246" y="-231"/>
      <point x="2240" y="-226"/>
      <point x="2229" y="-226" type="curve" smooth="yes"/>
      <point x="2226" y="-226"/>
      <point x="2224" y="-226"/>
      <point x="2223" y="-227" type="curve"/>
      <point x="2215" y="-229" type="line" smooth="yes"/>
      <point x="2191" y="-236"/>
      <point x="2173" y="-241"/>
      <point x="2152" y="-241" type="curve" smooth="yes"/>
      <point x="2117" y="-241"/>
      <point x="2099" y="-225"/>
      <point x="2099" y="-194" type="curve" smooth="yes"/>
      <point x="2099" y="311" type="line"/>
      <point x="2224" y="311" type="line" smooth="yes"/>
      <point x="2235" y="311"/>
      <point x="2244" y="320"/>
      <point x="2244" y="331" type="curve" smooth="yes"/>
      <point x="2244" y="423" type="line" smooth="yes"/>
      <point x="2244" y="434"/>
      <point x="2235" y="443"/>
      <point x="2224" y="443" type="curve" smooth="yes"/>
      <point x="2099" y="443" type="line"/>
      <point x="2099" y="624" type="line" smooth="yes"/>
      <point x="2099" y="635"/>
      <point x="2090" y="644"/>
      <point x="2079" y="644" type="curve" smooth="yes"/>
      <point x="1986" y="644" type="line" smooth="yes"/>
      <point x="1975" y="644"/>
      <point x="1966" y="635"/>
      <point x="1966" y="624" type="curve" smooth="yes"/>
      <point x="1966" y="443" type="line"/>
      <point x="1882" y="443" type="line" smooth="yes"/>
      <point x="1871" y="443"/>
      <point x="1862" y="434"/>
      <point x="1862" y="423" type="curve" smooth="yes"/>
      <point x="1862" y="331" type="line" smooth="yes"/>
      <point x="1862" y="320"/>
      <point x="1871" y="311"/>
      <point x="1882" y="311" type="curve" smooth="yes"/>
      <point x="1966" y="311" type="line"/>
      <point x="1966" y="-205" type="line" smooth="yes"/>
      <point x="1966" y="-319"/>
      <point x="2025" y="-376"/>
      <point x="2142" y="-376" type="curve" smooth="yes"/>
      <point x="2175" y="-376"/>
      <point x="2204" y="-371"/>
      <point x="2235" y="-364" type="curve" smooth="yes"/>
      <point x="2262" y="-359" type="line"/>
    </contour>
    <contour>
      <point x="2799" y="892" type="line"/>
      <point x="2789" y="917"/>
      <point x="2780" y="947"/>
      <point x="2771" y="982" type="curve" smooth="yes"/>
      <point x="2769" y="992"/>
      <point x="2763" y="997"/>
      <point x="2752" y="997" type="curve" smooth="yes"/>
      <point x="2749" y="997"/>
      <point x="2746" y="997"/>
      <point x="2745" y="996" type="curve" smooth="yes"/>
      <point x="2716" y="985"/>
      <point x="2698" y="982"/>
      <point x="2673" y="982" type="curve" smooth="yes"/>
      <point x="2638" y="982"/>
      <point x="2621" y="998"/>
      <point x="2621" y="1029" type="curve" smooth="yes"/>
      <point x="2621" y="1534" type="line"/>
      <point x="2746" y="1534" type="line" smooth="yes"/>
      <point x="2757" y="1534"/>
      <point x="2766" y="1543"/>
      <point x="2766" y="1554" type="curve" smooth="yes"/>
      <point x="2766" y="1646" type="line" smooth="yes"/>
      <point x="2766" y="1657"/>
      <point x="2757" y="1666"/>
      <point x="2746" y="1666" type="curve" smooth="yes"/>
      <point x="2621" y="1666" type="line"/>
      <point x="2621" y="1847" type="line" smooth="yes"/>
      <point x="2621" y="1858"/>
      <point x="2612" y="1867"/>
      <point x="2601" y="1867" type="curve" smooth="yes"/>
      <point x="2508" y="1867" type="line" smooth="yes"/>
      <point x="2497" y="1867"/>
      <point x="2488" y="1858"/>
      <point x="2488" y="1847" type="curve" smooth="yes"/>
      <point x="2488" y="1666" type="line"/>
      <point x="2404" y="1666" type="line" smooth="yes"/>
      <point x="2393" y="1666"/>
      <point x="2384" y="1657"/>
      <point x="2384" y="1646" type="curve" smooth="yes"/>
      <point x="2384" y="1554" type="line" smooth="yes"/>
      <point x="2384" y="1543"/>
      <point x="2393" y="1534"/>
      <point x="2404" y="1534" type="curve" smooth="yes"/>
      <point x="2488" y="1534" type="line"/>
      <point x="2488" y="1018" type="line" smooth="yes"/>
      <point x="2488" y="904"/>
      <point x="2547" y="847"/>
      <point x="2664" y="847" type="curve" smooth="yes"/>
      <point x="2697" y="847"/>
      <point x="2726" y="852"/>
      <point x="2757" y="859" type="curve" smooth="yes"/>
      <point x="2784" y="864" type="line"/>
    </contour>
    <contour>
      <point x="1755" y="403" type="line"/>
      <point x="1766" y="406"/>
      <point x="1771" y="412"/>
      <point x="1771" y="423" type="curve"/>
      <point x="1770" y="428" type="line" smooth="yes"/>
      <point x="1712" y="637"/>
      <point x="1576" y="742"/>
      <point x="1361" y="742" type="curve" smooth="yes"/>
      <point x="1349" y="742" type="line" smooth="yes"/>
      <point x="1018" y="737"/>
      <point x="847" y="553"/>
      <point x="843" y="193" type="curve" smooth="yes"/>
      <point x="843" y="180" type="line" smooth="yes"/>
      <point x="843" y="-185"/>
      <point x="1009" y="-366"/>
      <point x="1340" y="-369" type="curve" smooth="yes"/>
      <point x="1346" y="-369" type="line" smooth="yes"/>
      <point x="1586" y="-369"/>
      <point x="1726" y="-251"/>
      <point x="1771" y="-22" type="curve"/>
      <point x="1771" y="-18" type="line" smooth="yes"/>
      <point x="1771" y="-7"/>
      <point x="1766" y="0"/>
      <point x="1755" y="2" type="curve" smooth="yes"/>
      <point x="1637" y="25" type="line"/>
      <point x="1626" y="25"/>
      <point x="1619" y="20"/>
      <point x="1617" y="9" type="curve" smooth="yes"/>
      <point x="1582" y="-156"/>
      <point x="1486" y="-237"/>
      <point x="1333" y="-240" type="curve"/>
      <point x="1121" y="-225"/>
      <point x="1005" y="-78"/>
      <point x="1005" y="173" type="curve" smooth="yes"/>
      <point x="1005" y="183" type="line" smooth="yes"/>
      <point x="1008" y="437"/>
      <point x="1133" y="586"/>
      <point x="1340" y="599" type="curve"/>
      <point x="1483" y="596"/>
      <point x="1578" y="530"/>
      <point x="1617" y="394" type="curve" smooth="yes"/>
      <point x="1620" y="384"/>
      <point x="1627" y="379"/>
      <point x="1637" y="379" type="curve" smooth="yes"/>
      <point x="1640" y="379" type="line"/>
    </contour>
    <contour>
      <point x="1212" y="847" type="line"/>
      <point x="1219" y="847"/>
      <point x="1228" y="853"/>
      <point x="1231" y="860" type="curve" smooth="yes"/>
      <point x="1350" y="1171" type="line"/>
      <point x="1757" y="1171" type="line"/>
      <point x="1874" y="860" type="line" smooth="yes"/>
      <point x="1877" y="853"/>
      <point x="1886" y="847"/>
      <point x="1893" y="847" type="curve" smooth="yes"/>
      <point x="2026" y="847" type="line" smooth="yes"/>
      <point x="2039" y="847"/>
      <point x="2046" y="853"/>
      <point x="2046" y="866" type="curve" smooth="yes"/>
      <point x="2046" y="869"/>
      <point x="2046" y="872"/>
      <point x="2045" y="874" type="curve" smooth="yes"/>
      <point x="1649" y="1926" type="line" smooth="yes"/>
      <point x="1646" y="1933"/>
      <point x="1637" y="1939"/>
      <point x="1630" y="1939" type="curve" smooth="yes"/>
      <point x="1477" y="1939" type="line" smooth="yes"/>
      <point x="1470" y="1939"/>
      <point x="1461" y="1933"/>
      <point x="1458" y="1926" type="curve" smooth="yes"/>
      <point x="1381" y="1719"/>
      <point x="1298" y="1500"/>
      <point x="1219" y="1293" type="curve" smooth="yes"/>
      <point x="1060" y="874" type="line" smooth="yes"/>
      <point x="1059" y="872"/>
      <point x="1059" y="869"/>
      <point x="1059" y="866" type="curve" smooth="yes"/>
      <point x="1059" y="853"/>
      <point x="1066" y="847"/>
      <point x="1079" y="847" type="curve" smooth="yes"/>
    </contour>
    <contour>
      <point x="846" y="-362" type="line"/>
      <point x="825" y="-320"/>
      <point x="799" y="-265"/>
      <point x="740" y="-142" type="curve" smooth="yes"/>
      <point x="673" y="-2"/>
      <point x="645" y="46"/>
      <point x="611" y="78" type="curve" smooth="yes"/>
      <point x="587" y="100"/>
      <point x="555" y="135"/>
      <point x="555" y="138" type="curve" smooth="yes"/>
      <point x="555" y="147"/>
      <point x="587" y="153"/>
      <point x="645" y="174" type="curve" smooth="yes"/>
      <point x="751" y="212"/>
      <point x="796" y="306"/>
      <point x="796" y="441" type="curve" smooth="yes"/>
      <point x="796" y="625"/>
      <point x="667" y="732"/>
      <point x="484" y="732" type="curve" smooth="yes"/>
      <point x="50" y="732" type="line"/>
      <point x="50" y="-362" type="line"/>
      <point x="215" y="-362" type="line"/>
      <point x="215" y="127" type="line"/>
      <point x="302" y="127" type="line" smooth="yes"/>
      <point x="363" y="127"/>
      <point x="417" y="104"/>
      <point x="486" y="-22" type="curve" smooth="yes"/>
      <point x="555" y="-148"/>
      <point x="619" y="-297"/>
      <point x="656" y="-362" type="curve"/>
    </contour>
    <contour>
      <point x="633" y="425" type="curve" smooth="yes"/>
      <point x="633" y="318"/>
      <point x="534" y="262"/>
      <point x="414" y="262" type="curve" smooth="yes"/>
      <point x="215" y="262" type="line"/>
      <point x="215" y="597" type="line"/>
      <point x="452" y="597" type="line" smooth="yes"/>
      <point x="578" y="597"/>
      <point x="633" y="537"/>
    </contour>
    <contour>
      <point x="1036" y="845" type="line"/>
      <point x="1015" y="887"/>
      <point x="989" y="942"/>
      <point x="930" y="1065" type="curve" smooth="yes"/>
      <point x="863" y="1205"/>
      <point x="835" y="1253"/>
      <point x="801" y="1285" type="curve" smooth="yes"/>
      <point x="777" y="1307"/>
      <point x="745" y="1342"/>
      <point x="745" y="1345" type="curve" smooth="yes"/>
      <point x="745" y="1354"/>
      <point x="777" y="1360"/>
      <point x="835" y="1381" type="curve" smooth="yes"/>
      <point x="941" y="1419"/>
      <point x="986" y="1513"/>
      <point x="986" y="1648" type="curve" smooth="yes"/>
      <point x="986" y="1832"/>
      <point x="857" y="1939"/>
      <point x="674" y="1939" type="curve" smooth="yes"/>
      <point x="240" y="1939" type="line"/>
      <point x="240" y="845" type="line"/>
      <point x="405" y="845" type="line"/>
      <point x="405" y="1334" type="line"/>
      <point x="492" y="1334" type="line" smooth="yes"/>
      <point x="553" y="1334"/>
      <point x="607" y="1311"/>
      <point x="676" y="1185" type="curve" smooth="yes"/>
      <point x="745" y="1059"/>
      <point x="809" y="910"/>
      <point x="846" y="845" type="curve"/>
    </contour>
    <contour>
      <point x="823" y="1632" type="curve" smooth="yes"/>
      <point x="823" y="1525"/>
      <point x="724" y="1469"/>
      <point x="604" y="1469" type="curve" smooth="yes"/>
      <point x="405" y="1469" type="line"/>
      <point x="405" y="1804" type="line"/>
      <point x="642" y="1804" type="line" smooth="yes"/>
      <point x="768" y="1804"/>
      <point x="823" y="1744"/>
    </contour>
  </outline>
</glyph>
<glyph name="shift_alt" format="2">
  <advance width="2766"/>
  <unicode hex="E064"/>
  <outline>
    <contour>
      <point x="1504" y="1033" type="line"/>
      <point x="1513" y="1060"/>
      <point x="1524" y="1082"/>
      <point x="1535" y="1114" type="curve"/>
      <point x="1550" y="1086"/>
      <point x="1556" y="1058"/>
      <point x="1563" y="1033" type="curve"/>
      <point x="1686" y="698" type="line"/>
      <point x="1382" y="698" type="line"/>
    </contour>
    <contour>
      <point x="2203" y="1312" type="line"/>
      <point x="2203" y="1323"/>
      <point x="2194" y="1332"/>
      <point x="2183" y="1332" type="curve" smooth="yes"/>
      <point x="2090" y="1332" type="line" smooth="yes"/>
      <point x="2079" y="1332"/>
      <point x="2070" y="1323"/>
      <point x="2070" y="1312" type="curve" smooth="yes"/>
      <point x="2070" y="258" type="line" smooth="yes"/>
      <point x="2070" y="247"/>
      <point x="2079" y="238"/>
      <point x="2090" y="238" type="curve" smooth="yes"/>
      <point x="2183" y="238" type="line" smooth="yes"/>
      <point x="2194" y="238"/>
      <point x="2203" y="247"/>
      <point x="2203" y="258" type="curve" smooth="yes"/>
    </contour>
    <contour>
      <point x="2716" y="283" type="line"/>
      <point x="2706" y="308"/>
      <point x="2697" y="338"/>
      <point x="2688" y="373" type="curve" smooth="yes"/>
      <point x="2686" y="383"/>
      <point x="2680" y="388"/>
      <point x="2669" y="388" type="curve" smooth="yes"/>
      <point x="2666" y="388"/>
      <point x="2664" y="388"/>
      <point x="2663" y="387" type="curve"/>
      <point x="2634" y="379"/>
      <point x="2615" y="374"/>
      <point x="2590" y="374" type="curve" smooth="yes"/>
      <point x="2557" y="374"/>
      <point x="2537" y="389"/>
      <point x="2537" y="420" type="curve" smooth="yes"/>
      <point x="2537" y="927" type="line"/>
      <point x="2663" y="927" type="line" smooth="yes"/>
      <point x="2674" y="927"/>
      <point x="2683" y="936"/>
      <point x="2683" y="947" type="curve" smooth="yes"/>
      <point x="2683" y="1039" type="line" smooth="yes"/>
      <point x="2683" y="1050"/>
      <point x="2674" y="1059"/>
      <point x="2663" y="1059" type="curve" smooth="yes"/>
      <point x="2537" y="1059" type="line"/>
      <point x="2537" y="1239" type="line" smooth="yes"/>
      <point x="2537" y="1250"/>
      <point x="2528" y="1259"/>
      <point x="2517" y="1259" type="curve" smooth="yes"/>
      <point x="2424" y="1259" type="line" smooth="yes"/>
      <point x="2413" y="1259"/>
      <point x="2404" y="1250"/>
      <point x="2404" y="1239" type="curve" smooth="yes"/>
      <point x="2404" y="1059" type="line"/>
      <point x="2320" y="1059" type="line" smooth="yes"/>
      <point x="2309" y="1059"/>
      <point x="2300" y="1050"/>
      <point x="2300" y="1039" type="curve" smooth="yes"/>
      <point x="2300" y="947" type="line" smooth="yes"/>
      <point x="2300" y="936"/>
      <point x="2309" y="927"/>
      <point x="2320" y="927" type="curve" smooth="yes"/>
      <point x="2404" y="927" type="line"/>
      <point x="2404" y="409" type="line" smooth="yes"/>
      <point x="2404" y="295"/>
      <point x="2463" y="238"/>
      <point x="2581" y="238" type="curve" smooth="yes"/>
      <point x="2613" y="238"/>
      <point x="2644" y="243"/>
      <point x="2675" y="250" type="curve" smooth="yes"/>
      <point x="2701" y="255" type="line"/>
    </contour>
    <contour>
      <point x="1193" y="238" type="line"/>
      <point x="1200" y="238"/>
      <point x="1209" y="244"/>
      <point x="1212" y="251" type="curve" smooth="yes"/>
      <point x="1330" y="563" type="line"/>
      <point x="1738" y="563" type="line"/>
      <point x="1856" y="251" type="line" smooth="yes"/>
      <point x="1859" y="244"/>
      <point x="1868" y="238"/>
      <point x="1875" y="238" type="curve" smooth="yes"/>
      <point x="2009" y="238" type="line" smooth="yes"/>
      <point x="2022" y="238"/>
      <point x="2029" y="244"/>
      <point x="2029" y="257" type="curve" smooth="yes"/>
      <point x="2029" y="260"/>
      <point x="2028" y="263"/>
      <point x="2027" y="264" type="curve" smooth="yes"/>
      <point x="1629" y="1319" type="line" smooth="yes"/>
      <point x="1626" y="1326"/>
      <point x="1617" y="1332"/>
      <point x="1610" y="1332" type="curve" smooth="yes"/>
      <point x="1458" y="1332" type="line" smooth="yes"/>
      <point x="1451" y="1332"/>
      <point x="1442" y="1326"/>
      <point x="1439" y="1319" type="curve" smooth="yes"/>
      <point x="1041" y="265" type="line" smooth="yes"/>
      <point x="1040" y="263"/>
      <point x="1040" y="260"/>
      <point x="1040" y="257" type="curve" smooth="yes"/>
      <point x="1040" y="244"/>
      <point x="1047" y="238"/>
      <point x="1060" y="238" type="curve" smooth="yes"/>
    </contour>
    <contour>
      <point x="659" y="374" type="line"/>
      <point x="495" y="374" type="line"/>
      <point x="495" y="720" type="line"/>
      <point x="198" y="720" type="line"/>
      <point x="568" y="1170" type="line"/>
      <point x="586" y="1170" type="line"/>
      <point x="956" y="720" type="line"/>
      <point x="659" y="720" type="line"/>
    </contour>
    <contour>
      <point x="661" y="1298" type="line"/>
      <point x="632" y="1326"/>
      <point x="604" y="1340"/>
      <point x="577" y="1340" type="curve" smooth="yes"/>
      <point x="549" y="1340"/>
      <point x="518" y="1328"/>
      <point x="493" y="1298" type="curve" smooth="yes"/>
      <point x="86" y="810" type="line" smooth="yes"/>
      <point x="66" y="786"/>
      <point x="50" y="751"/>
      <point x="50" y="708" type="curve" smooth="yes"/>
      <point x="50" y="617"/>
      <point x="115" y="576"/>
      <point x="169" y="576" type="curve" smooth="yes"/>
      <point x="377" y="576" type="line"/>
      <point x="377" y="382" type="line" smooth="yes"/>
      <point x="377" y="302"/>
      <point x="430" y="237"/>
      <point x="496" y="237" type="curve" smooth="yes"/>
      <point x="658" y="237" type="line" smooth="yes"/>
      <point x="723" y="237"/>
      <point x="777" y="302"/>
      <point x="777" y="382" type="curve" smooth="yes"/>
      <point x="777" y="575" type="line"/>
      <point x="984" y="575" type="line" smooth="yes"/>
      <point x="1038" y="575"/>
      <point x="1103" y="615"/>
      <point x="1103" y="708" type="curve" smooth="yes"/>
      <point x="1103" y="750"/>
      <point x="1089" y="785"/>
      <point x="1068" y="810" type="curve" smooth="yes"/>
    </contour>
  </outline>
</glyph>
<glyph name="shift_ctrl" format="2">
  <advance width="3428"/>
  <unicode hex="E065"/>
  <outline>
    <contour>
      <point x="3378" y="1309" type="line"/>
      <point x="3378" y="1320"/>
      <point x="3369" y="1329"/>
      <point x="3358" y="1329" type="curve" smooth="yes"/>
      <point x="3265" y="1329" type="line" smooth="yes"/>
      <point x="3254" y="1329"/>
      <point x="3245" y="1320"/>
      <point x="3245" y="1309" type="curve" smooth="yes"/>
      <point x="3245" y="257" type="line" smooth="yes"/>
      <point x="3245" y="246"/>
      <point x="3254" y="237"/>
      <point x="3265" y="237" type="curve" smooth="yes"/>
      <point x="3358" y="237" type="line" smooth="yes"/>
      <point x="3369" y="237"/>
      <point x="3378" y="246"/>
      <point x="3378" y="257" type="curve" smooth="yes"/>
    </contour>
    <contour>
      <point x="3153" y="998" type="line"/>
      <point x="3124" y="1009"/>
      <point x="3067" y="1056"/>
      <point x="2992" y="1056" type="curve" smooth="yes"/>
      <point x="2935" y="1056"/>
      <point x="2889" y="1035"/>
      <point x="2852" y="996" type="curve"/>
      <point x="2852" y="1021" type="line" smooth="yes"/>
      <point x="2852" y="1032"/>
      <point x="2843" y="1041"/>
      <point x="2832" y="1041" type="curve" smooth="yes"/>
      <point x="2734" y="1041" type="line" smooth="yes"/>
      <point x="2723" y="1041"/>
      <point x="2714" y="1032"/>
      <point x="2714" y="1021" type="curve" smooth="yes"/>
      <point x="2714" y="257" type="line" smooth="yes"/>
      <point x="2714" y="246"/>
      <point x="2723" y="237"/>
      <point x="2734" y="237" type="curve" smooth="yes"/>
      <point x="2827" y="237" type="line" smooth="yes"/>
      <point x="2838" y="237"/>
      <point x="2847" y="246"/>
      <point x="2847" y="257" type="curve" smooth="yes"/>
      <point x="2847" y="686" type="line" smooth="yes"/>
      <point x="2847" y="766"/>
      <point x="2903" y="925"/>
      <point x="2987" y="925" type="curve" smooth="yes"/>
      <point x="3015" y="925"/>
      <point x="3054" y="910"/>
      <point x="3081" y="890" type="curve"/>
      <point x="3099" y="890"/>
      <point x="3159" y="955"/>
      <point x="3165" y="972" type="curve"/>
    </contour>
    <contour>
      <point x="2614" y="282" type="line"/>
      <point x="2605" y="303"/>
      <point x="2597" y="332"/>
      <point x="2588" y="371" type="curve" smooth="yes"/>
      <point x="2585" y="382"/>
      <point x="2577" y="387"/>
      <point x="2568" y="387" type="curve" smooth="yes"/>
      <point x="2565" y="387"/>
      <point x="2562" y="387"/>
      <point x="2561" y="386" type="curve" smooth="yes"/>
      <point x="2532" y="375"/>
      <point x="2513" y="372"/>
      <point x="2489" y="372" type="curve" smooth="yes"/>
      <point x="2454" y="372"/>
      <point x="2436" y="388"/>
      <point x="2436" y="419" type="curve" smooth="yes"/>
      <point x="2436" y="924" type="line"/>
      <point x="2561" y="924" type="line" smooth="yes"/>
      <point x="2572" y="924"/>
      <point x="2581" y="933"/>
      <point x="2581" y="944" type="curve" smooth="yes"/>
      <point x="2581" y="1036" type="line" smooth="yes"/>
      <point x="2581" y="1047"/>
      <point x="2572" y="1056"/>
      <point x="2561" y="1056" type="curve" smooth="yes"/>
      <point x="2436" y="1056" type="line"/>
      <point x="2436" y="1237" type="line" smooth="yes"/>
      <point x="2436" y="1248"/>
      <point x="2427" y="1257"/>
      <point x="2416" y="1257" type="curve" smooth="yes"/>
      <point x="2323" y="1257" type="line" smooth="yes"/>
      <point x="2312" y="1257"/>
      <point x="2303" y="1248"/>
      <point x="2303" y="1237" type="curve" smooth="yes"/>
      <point x="2303" y="1056" type="line"/>
      <point x="2219" y="1056" type="line" smooth="yes"/>
      <point x="2208" y="1056"/>
      <point x="2199" y="1047"/>
      <point x="2199" y="1036" type="curve" smooth="yes"/>
      <point x="2199" y="944" type="line" smooth="yes"/>
      <point x="2199" y="933"/>
      <point x="2208" y="924"/>
      <point x="2219" y="924" type="curve" smooth="yes"/>
      <point x="2303" y="924" type="line"/>
      <point x="2303" y="408" type="line" smooth="yes"/>
      <point x="2303" y="294"/>
      <point x="2362" y="237"/>
      <point x="2479" y="237" type="curve" smooth="yes"/>
      <point x="2512" y="237"/>
      <point x="2541" y="242"/>
      <point x="2572" y="249" type="curve" smooth="yes"/>
      <point x="2599" y="254" type="line"/>
    </contour>
    <contour>
      <point x="2101" y="1001" type="line"/>
      <point x="2112" y="1003"/>
      <point x="2117" y="1009"/>
      <point x="2117" y="1020" type="curve" smooth="yes"/>
      <point x="2117" y="1023"/>
      <point x="2117" y="1025"/>
      <point x="2116" y="1026" type="curve"/>
      <point x="2057" y="1236"/>
      <point x="1920" y="1341"/>
      <point x="1706" y="1341" type="curve" smooth="yes"/>
      <point x="1694" y="1341" type="line" smooth="yes"/>
      <point x="1361" y="1336"/>
      <point x="1193" y="1152"/>
      <point x="1189" y="791" type="curve" smooth="yes"/>
      <point x="1189" y="778" type="line" smooth="yes"/>
      <point x="1189" y="413"/>
      <point x="1355" y="230"/>
      <point x="1687" y="229" type="curve" smooth="yes"/>
      <point x="1690" y="229" type="line" smooth="yes"/>
      <point x="1930" y="229"/>
      <point x="2070" y="345"/>
      <point x="2117" y="577" type="curve"/>
      <point x="2117" y="581" type="line" smooth="yes"/>
      <point x="2117" y="592"/>
      <point x="2112" y="599"/>
      <point x="2101" y="601" type="curve" smooth="yes"/>
      <point x="1984" y="624" type="line"/>
      <point x="1973" y="624"/>
      <point x="1966" y="619"/>
      <point x="1963" y="608" type="curve"/>
      <point x="1928" y="443"/>
      <point x="1831" y="362"/>
      <point x="1678" y="359" type="curve"/>
      <point x="1467" y="374"/>
      <point x="1351" y="521"/>
      <point x="1351" y="772" type="curve" smooth="yes"/>
      <point x="1351" y="782" type="line" smooth="yes"/>
      <point x="1354" y="1036"/>
      <point x="1479" y="1184"/>
      <point x="1687" y="1197" type="curve"/>
      <point x="1828" y="1194"/>
      <point x="1923" y="1128"/>
      <point x="1962" y="992" type="curve" smooth="yes"/>
      <point x="1965" y="982"/>
      <point x="1972" y="977"/>
      <point x="1982" y="977" type="curve" smooth="yes"/>
      <point x="1985" y="977" type="line"/>
    </contour>
    <contour>
      <point x="659" y="374" type="line"/>
      <point x="495" y="374" type="line"/>
      <point x="495" y="720" type="line"/>
      <point x="198" y="720" type="line"/>
      <point x="568" y="1170" type="line"/>
      <point x="586" y="1170" type="line"/>
      <point x="956" y="720" type="line"/>
      <point x="659" y="720" type="line"/>
    </contour>
    <contour>
      <point x="661" y="1298" type="line"/>
      <point x="632" y="1326"/>
      <point x="604" y="1340"/>
      <point x="577" y="1340" type="curve" smooth="yes"/>
      <point x="549" y="1340"/>
      <point x="518" y="1328"/>
      <point x="493" y="1298" type="curve" smooth="yes"/>
      <point x="86" y="810" type="line" smooth="yes"/>
      <point x="66" y="786"/>
      <point x="50" y="751"/>
      <point x="50" y="708" type="curve" smooth="yes"/>
      <point x="50" y="617"/>
      <point x="115" y="576"/>
      <point x="169" y="576" type="curve" smooth="yes"/>
      <point x="377" y="576" type="line"/>
      <point x="377" y="382" type="line" smooth="yes"/>
      <point x="377" y="302"/>
      <point x="430" y="237"/>
      <point x="496" y="237" type="curve" smooth="yes"/>
      <point x="658" y="237" type="line" smooth="yes"/>
      <point x="723" y="237"/>
      <point x="777" y="302"/>
      <point x="777" y="382" type="curve" smooth="yes"/>
      <point x="777" y="575" type="line"/>
      <point x="984" y="575" type="line" smooth="yes"/>
      <point x="1038" y="575"/>
      <point x="1103" y="615"/>
      <point x="1103" y="708" type="curve" smooth="yes"/>
      <point x="1103" y="750"/>
      <point x="1089" y="785"/>
      <point x="1068" y="810" type="curve" smooth="yes"/>
    </contour>
  </outline>
</glyph>
<glyph name="shift_alt_ctrl" format="2">
  <advance width="3245"/>
  <unicode hex="E066"/>
  <outline>
    <contour>
      <point x="1690" y="1640" type="line"/>
      <point x="1699" y="1667"/>
      <point x="1708" y="1688"/>
      <point x="1719" y="1719" type="curve"/>
      <point x="1750" y="1640" type="line"/>
      <point x="1872" y="1306" type="line"/>
      <point x="1568" y="1306" type="line"/>
    </contour>
    <contour>
      <point x="2418" y="1919" type="line"/>
      <point x="2418" y="1930"/>
      <point x="2409" y="1939"/>
      <point x="2398" y="1939" type="curve" smooth="yes"/>
      <point x="2305" y="1939" type="line" smooth="yes"/>
      <point x="2294" y="1939"/>
      <point x="2285" y="1930"/>
      <point x="2285" y="1919" type="curve" smooth="yes"/>
      <point x="2285" y="867" type="line" smooth="yes"/>
      <point x="2285" y="856"/>
      <point x="2294" y="847"/>
      <point x="2305" y="847" type="curve" smooth="yes"/>
      <point x="2398" y="847" type="line" smooth="yes"/>
      <point x="2409" y="847"/>
      <point x="2418" y="856"/>
      <point x="2418" y="867" type="curve" smooth="yes"/>
    </contour>
    <contour>
      <point x="3195" y="711" type="line"/>
      <point x="3195" y="722"/>
      <point x="3186" y="731"/>
      <point x="3175" y="731" type="curve" smooth="yes"/>
      <point x="3082" y="731" type="line" smooth="yes"/>
      <point x="3071" y="731"/>
      <point x="3062" y="722"/>
      <point x="3062" y="711" type="curve" smooth="yes"/>
      <point x="3062" y="-342" type="line" smooth="yes"/>
      <point x="3062" y="-353"/>
      <point x="3071" y="-362"/>
      <point x="3082" y="-362" type="curve" smooth="yes"/>
      <point x="3175" y="-362" type="line" smooth="yes"/>
      <point x="3186" y="-362"/>
      <point x="3195" y="-353"/>
      <point x="3195" y="-342" type="curve" smooth="yes"/>
    </contour>
    <contour>
      <point x="2970" y="400" type="line"/>
      <point x="2970" y="401"/>
      <point x="2963" y="404"/>
      <point x="2956" y="408" type="curve" smooth="yes"/>
      <point x="2947" y="413" type="line" smooth="yes"/>
      <point x="2915" y="430"/>
      <point x="2866" y="457"/>
      <point x="2811" y="457" type="curve" smooth="yes"/>
      <point x="2748" y="457"/>
      <point x="2709" y="442"/>
      <point x="2670" y="398" type="curve"/>
      <point x="2670" y="423" type="line" smooth="yes"/>
      <point x="2670" y="434"/>
      <point x="2661" y="443"/>
      <point x="2650" y="443" type="curve" smooth="yes"/>
      <point x="2553" y="443" type="line" smooth="yes"/>
      <point x="2542" y="443"/>
      <point x="2533" y="434"/>
      <point x="2533" y="423" type="curve" smooth="yes"/>
      <point x="2533" y="-342" type="line" smooth="yes"/>
      <point x="2533" y="-353"/>
      <point x="2542" y="-362"/>
      <point x="2553" y="-362" type="curve" smooth="yes"/>
      <point x="2646" y="-362" type="line" smooth="yes"/>
      <point x="2657" y="-362"/>
      <point x="2666" y="-353"/>
      <point x="2666" y="-342" type="curve" smooth="yes"/>
      <point x="2666" y="87" type="line" smooth="yes"/>
      <point x="2666" y="167"/>
      <point x="2721" y="325"/>
      <point x="2805" y="325" type="curve" smooth="yes"/>
      <point x="2834" y="325"/>
      <point x="2874" y="311"/>
      <point x="2901" y="292" type="curve"/>
      <point x="2917" y="292"/>
      <point x="2978" y="357"/>
      <point x="2984" y="374" type="curve"/>
    </contour>
    <contour>
      <point x="2444" y="-332" type="line"/>
      <point x="2433" y="-306"/>
      <point x="2424" y="-276"/>
      <point x="2415" y="-241" type="curve" smooth="yes"/>
      <point x="2413" y="-231"/>
      <point x="2407" y="-226"/>
      <point x="2396" y="-226" type="curve" smooth="yes"/>
      <point x="2393" y="-226"/>
      <point x="2391" y="-226"/>
      <point x="2390" y="-227" type="curve"/>
      <point x="2382" y="-229" type="line" smooth="yes"/>
      <point x="2358" y="-236"/>
      <point x="2340" y="-241"/>
      <point x="2319" y="-241" type="curve" smooth="yes"/>
      <point x="2284" y="-241"/>
      <point x="2266" y="-225"/>
      <point x="2266" y="-194" type="curve" smooth="yes"/>
      <point x="2266" y="311" type="line"/>
      <point x="2391" y="311" type="line" smooth="yes"/>
      <point x="2402" y="311"/>
      <point x="2411" y="320"/>
      <point x="2411" y="331" type="curve" smooth="yes"/>
      <point x="2411" y="423" type="line" smooth="yes"/>
      <point x="2411" y="434"/>
      <point x="2402" y="443"/>
      <point x="2391" y="443" type="curve" smooth="yes"/>
      <point x="2266" y="443" type="line"/>
      <point x="2266" y="624" type="line" smooth="yes"/>
      <point x="2266" y="635"/>
      <point x="2257" y="644"/>
      <point x="2246" y="644" type="curve" smooth="yes"/>
      <point x="2153" y="644" type="line" smooth="yes"/>
      <point x="2142" y="644"/>
      <point x="2133" y="635"/>
      <point x="2133" y="624" type="curve" smooth="yes"/>
      <point x="2133" y="443" type="line"/>
      <point x="2049" y="443" type="line" smooth="yes"/>
      <point x="2038" y="443"/>
      <point x="2029" y="434"/>
      <point x="2029" y="423" type="curve" smooth="yes"/>
      <point x="2029" y="331" type="line" smooth="yes"/>
      <point x="2029" y="320"/>
      <point x="2038" y="311"/>
      <point x="2049" y="311" type="curve" smooth="yes"/>
      <point x="2133" y="311" type="line"/>
      <point x="2133" y="-205" type="line" smooth="yes"/>
      <point x="2133" y="-319"/>
      <point x="2192" y="-376"/>
      <point x="2309" y="-376" type="curve" smooth="yes"/>
      <point x="2342" y="-376"/>
      <point x="2371" y="-371"/>
      <point x="2402" y="-364" type="curve" smooth="yes"/>
      <point x="2429" y="-359" type="line"/>
    </contour>
    <contour>
      <point x="2966" y="892" type="line"/>
      <point x="2956" y="917"/>
      <point x="2947" y="947"/>
      <point x="2938" y="982" type="curve" smooth="yes"/>
      <point x="2936" y="992"/>
      <point x="2930" y="997"/>
      <point x="2919" y="997" type="curve" smooth="yes"/>
      <point x="2916" y="997"/>
      <point x="2913" y="997"/>
      <point x="2912" y="996" type="curve" smooth="yes"/>
      <point x="2883" y="985"/>
      <point x="2865" y="982"/>
      <point x="2840" y="982" type="curve" smooth="yes"/>
      <point x="2805" y="982"/>
      <point x="2788" y="998"/>
      <point x="2788" y="1029" type="curve" smooth="yes"/>
      <point x="2788" y="1534" type="line"/>
      <point x="2913" y="1534" type="line" smooth="yes"/>
      <point x="2924" y="1534"/>
      <point x="2933" y="1543"/>
      <point x="2933" y="1554" type="curve" smooth="yes"/>
      <point x="2933" y="1646" type="line" smooth="yes"/>
      <point x="2933" y="1657"/>
      <point x="2924" y="1666"/>
      <point x="2913" y="1666" type="curve" smooth="yes"/>
      <point x="2788" y="1666" type="line"/>
      <point x="2788" y="1847" type="line" smooth="yes"/>
      <point x="2788" y="1858"/>
      <point x="2779" y="1867"/>
      <point x="2768" y="1867" type="curve" smooth="yes"/>
      <point x="2675" y="1867" type="line" smooth="yes"/>
      <point x="2664" y="1867"/>
      <point x="2655" y="1858"/>
      <point x="2655" y="1847" type="curve" smooth="yes"/>
      <point x="2655" y="1666" type="line"/>
      <point x="2571" y="1666" type="line" smooth="yes"/>
      <point x="2560" y="1666"/>
      <point x="2551" y="1657"/>
      <point x="2551" y="1646" type="curve" smooth="yes"/>
      <point x="2551" y="1554" type="line" smooth="yes"/>
      <point x="2551" y="1543"/>
      <point x="2560" y="1534"/>
      <point x="2571" y="1534" type="curve" smooth="yes"/>
      <point x="2655" y="1534" type="line"/>
      <point x="2655" y="1018" type="line" smooth="yes"/>
      <point x="2655" y="904"/>
      <point x="2714" y="847"/>
      <point x="2831" y="847" type="curve" smooth="yes"/>
      <point x="2864" y="847"/>
      <point x="2893" y="852"/>
      <point x="2924" y="859" type="curve" smooth="yes"/>
      <point x="2951" y="864" type="line"/>
    </contour>
    <contour>
      <point x="1922" y="403" type="line"/>
      <point x="1933" y="406"/>
      <point x="1938" y="412"/>
      <point x="1938" y="423" type="curve"/>
      <point x="1937" y="428" type="line" smooth="yes"/>
      <point x="1879" y="637"/>
      <point x="1743" y="742"/>
      <point x="1528" y="742" type="curve" smooth="yes"/>
      <point x="1516" y="742" type="line" smooth="yes"/>
      <point x="1185" y="737"/>
      <point x="1014" y="553"/>
      <point x="1010" y="193" type="curve" smooth="yes"/>
      <point x="1010" y="180" type="line" smooth="yes"/>
      <point x="1010" y="-185"/>
      <point x="1176" y="-366"/>
      <point x="1507" y="-369" type="curve" smooth="yes"/>
      <point x="1513" y="-369" type="line" smooth="yes"/>
      <point x="1753" y="-369"/>
      <point x="1893" y="-251"/>
      <point x="1938" y="-22" type="curve"/>
      <point x="1938" y="-18" type="line" smooth="yes"/>
      <point x="1938" y="-7"/>
      <point x="1933" y="0"/>
      <point x="1922" y="2" type="curve" smooth="yes"/>
      <point x="1804" y="25" type="line"/>
      <point x="1793" y="25"/>
      <point x="1786" y="20"/>
      <point x="1784" y="9" type="curve" smooth="yes"/>
      <point x="1749" y="-156"/>
      <point x="1653" y="-237"/>
      <point x="1500" y="-240" type="curve"/>
      <point x="1288" y="-225"/>
      <point x="1172" y="-78"/>
      <point x="1172" y="173" type="curve" smooth="yes"/>
      <point x="1172" y="183" type="line" smooth="yes"/>
      <point x="1175" y="437"/>
      <point x="1300" y="586"/>
      <point x="1507" y="599" type="curve"/>
      <point x="1650" y="596"/>
      <point x="1745" y="530"/>
      <point x="1784" y="394" type="curve" smooth="yes"/>
      <point x="1787" y="384"/>
      <point x="1794" y="379"/>
      <point x="1804" y="379" type="curve" smooth="yes"/>
      <point x="1807" y="379" type="line"/>
    </contour>
    <contour>
      <point x="1379" y="847" type="line"/>
      <point x="1386" y="847"/>
      <point x="1395" y="853"/>
      <point x="1398" y="860" type="curve" smooth="yes"/>
      <point x="1517" y="1171" type="line"/>
      <point x="1924" y="1171" type="line"/>
      <point x="2041" y="860" type="line" smooth="yes"/>
      <point x="2044" y="853"/>
      <point x="2053" y="847"/>
      <point x="2060" y="847" type="curve" smooth="yes"/>
      <point x="2193" y="847" type="line" smooth="yes"/>
      <point x="2206" y="847"/>
      <point x="2213" y="853"/>
      <point x="2213" y="866" type="curve" smooth="yes"/>
      <point x="2213" y="869"/>
      <point x="2213" y="872"/>
      <point x="2212" y="874" type="curve" smooth="yes"/>
      <point x="1816" y="1926" type="line" smooth="yes"/>
      <point x="1813" y="1933"/>
      <point x="1804" y="1939"/>
      <point x="1797" y="1939" type="curve" smooth="yes"/>
      <point x="1644" y="1939" type="line" smooth="yes"/>
      <point x="1637" y="1939"/>
      <point x="1628" y="1933"/>
      <point x="1625" y="1926" type="curve" smooth="yes"/>
      <point x="1548" y="1719"/>
      <point x="1465" y="1500"/>
      <point x="1386" y="1293" type="curve" smooth="yes"/>
      <point x="1227" y="874" type="line" smooth="yes"/>
      <point x="1226" y="872"/>
      <point x="1226" y="869"/>
      <point x="1226" y="866" type="curve" smooth="yes"/>
      <point x="1226" y="853"/>
      <point x="1233" y="847"/>
      <point x="1246" y="847" type="curve" smooth="yes"/>
    </contour>
    <contour>
      <point x="659" y="434" type="line"/>
      <point x="495" y="434" type="line"/>
      <point x="495" y="780" type="line"/>
      <point x="198" y="780" type="line"/>
      <point x="568" y="1230" type="line"/>
      <point x="586" y="1230" type="line"/>
      <point x="956" y="780" type="line"/>
      <point x="659" y="780" type="line"/>
    </contour>
    <contour>
      <point x="661" y="1358" type="line"/>
      <point x="632" y="1386"/>
      <point x="604" y="1400"/>
      <point x="577" y="1400" type="curve" smooth="yes"/>
      <point x="549" y="1400"/>
      <point x="518" y="1388"/>
      <point x="493" y="1358" type="curve" smooth="yes"/>
      <point x="86" y="870" type="line" smooth="yes"/>
      <point x="66" y="846"/>
      <point x="50" y="811"/>
      <point x="50" y="768" type="curve" smooth="yes"/>
      <point x="50" y="677"/>
      <point x="115" y="636"/>
      <point x="169" y="636" type="curve" smooth="yes"/>
      <point x="377" y="636" type="line"/>
      <point x="377" y="442" type="line" smooth="yes"/>
      <point x="377" y="362"/>
      <point x="430" y="297"/>
      <point x="496" y="297" type="curve" smooth="yes"/>
      <point x="658" y="297" type="line" smooth="yes"/>
      <point x="723" y="297"/>
      <point x="777" y="362"/>
      <point x="777" y="442" type="curve" smooth="yes"/>
      <point x="777" y="635" type="line"/>
      <point x="984" y="635" type="line" smooth="yes"/>
      <point x="1038" y="635"/>
      <point x="1103" y="675"/>
      <point x="1103" y="768" type="curve" smooth="yes"/>
      <point x="1103" y="810"/>
      <point x="1089" y="845"/>
      <point x="1068" y="870" type="curve" smooth="yes"/>
    </contour>
  </outline>
</glyph>
<glyph name="enter_rev" format="2">
  <advance width="2026"/>
  <unicode hex="E071"/>
  <outline>
    <contour>
      <point x="1290" y="-106" type="curve" smooth="yes"/>
      <point x="1329" y="-106"/>
      <point x="1365" y="-91"/>
      <point x="1393" y="-62" type="curve" smooth="yes"/>
      <point x="1933" y="478" type="line"/>
      <point x="1962" y="505"/>
      <point x="1976" y="540"/>
      <point x="1976" y="582" type="curve" smooth="yes"/>
      <point x="1976" y="621"/>
      <point x="1960" y="657"/>
      <point x="1933" y="684" type="curve" smooth="yes"/>
      <point x="1393" y="1224" type="line" smooth="yes"/>
      <point x="1365" y="1252"/>
      <point x="1329" y="1267"/>
      <point x="1290" y="1267" type="curve" smooth="yes"/>
      <point x="1210" y="1267"/>
      <point x="1143" y="1202"/>
      <point x="1143" y="1122" type="curve" smooth="yes"/>
      <point x="1143" y="824" type="line"/>
      <point x="500" y="824" type="line"/>
      <point x="500" y="1298" type="line" smooth="yes"/>
      <point x="500" y="1379"/>
      <point x="434" y="1445"/>
      <point x="353" y="1445" type="curve" smooth="yes"/>
      <point x="195" y="1445" type="line" smooth="yes"/>
      <point x="115" y="1445"/>
      <point x="50" y="1379"/>
      <point x="50" y="1298" type="curve" smooth="yes"/>
      <point x="50" y="484" type="line" smooth="yes"/>
      <point x="50" y="464"/>
      <point x="54" y="445"/>
      <point x="62" y="427" type="curve" smooth="yes"/>
      <point x="85" y="375"/>
      <point x="135" y="338"/>
      <point x="196" y="338" type="curve" smooth="yes"/>
      <point x="1143" y="338" type="line"/>
      <point x="1143" y="41" type="line" smooth="yes"/>
      <point x="1143" y="-38"/>
      <point x="1208" y="-106"/>
    </contour>
    <contour>
      <point x="1303" y="72" type="line"/>
      <point x="1303" y="484" type="line" smooth="yes"/>
      <point x="1303" y="493"/>
      <point x="1298" y="497"/>
      <point x="1289" y="497" type="curve" smooth="yes"/>
      <point x="209" y="497" type="line"/>
      <point x="209" y="1285" type="line"/>
      <point x="340" y="1285" type="line"/>
      <point x="340" y="665" type="line"/>
      <point x="1289" y="665" type="line" smooth="yes"/>
      <point x="1298" y="665"/>
      <point x="1303" y="669"/>
      <point x="1303" y="678" type="curve" smooth="yes"/>
      <point x="1303" y="1090" type="line"/>
      <point x="1811" y="582" type="line"/>
    </contour>
  </outline>
</glyph>
<glyph name="back_rev" format="2">
  <advance width="2520"/>
  <unicode hex="E072"/>
  <outline>
    <contour>
      <point x="257" y="-54" type="curve" smooth="yes"/>
      <point x="1612" y="-54" type="line" smooth="yes"/>
      <point x="1673" y="-54"/>
      <point x="1731" y="-27"/>
      <point x="1764" y="16" type="curve"/>
      <point x="2422" y="671" type="line" smooth="yes"/>
      <point x="2454" y="703"/>
      <point x="2470" y="744"/>
      <point x="2470" y="787" type="curve" smooth="yes"/>
      <point x="2470" y="830"/>
      <point x="2454" y="871"/>
      <point x="2422" y="903" type="curve" smooth="yes"/>
      <point x="1746" y="1579" type="line"/>
      <point x="1707" y="1609"/>
      <point x="1663" y="1624"/>
      <point x="1612" y="1624" type="curve"/>
      <point x="257" y="1624" type="line" smooth="yes"/>
      <point x="143" y="1624"/>
      <point x="50" y="1533"/>
      <point x="50" y="1420" type="curve" smooth="yes"/>
      <point x="50" y="152" type="line" smooth="yes"/>
      <point x="50" y="37"/>
      <point x="143" y="-54"/>
    </contour>
    <contour>
      <point x="644" y="320" type="line"/>
      <point x="442" y="522" type="line"/>
      <point x="707" y="785" type="line"/>
      <point x="442" y="1049" type="line"/>
      <point x="644" y="1253" type="line"/>
      <point x="909" y="991" type="line"/>
      <point x="1175" y="1253" type="line"/>
      <point x="1378" y="1049" type="line"/>
      <point x="1112" y="785" type="line"/>
      <point x="1378" y="522" type="line"/>
      <point x="1175" y="320" type="line"/>
      <point x="909" y="584" type="line"/>
    </contour>
  </outline>
</glyph>
<glyph name="shift_lock" format="2">
  <advance width="1967"/>
  <unicode hex="E073"/>
  <outline>
    <contour>
      <point x="782" y="36" type="curve" smooth="yes"/>
      <point x="1185" y="36" type="line" smooth="yes"/>
      <point x="1286" y="36"/>
      <point x="1368" y="136"/>
      <point x="1368" y="259" type="curve" smooth="yes"/>
      <point x="1368" y="458" type="line"/>
      <point x="1734" y="458" type="line" smooth="yes"/>
      <point x="1817" y="458"/>
      <point x="1917" y="517"/>
      <point x="1917" y="661" type="curve" smooth="yes"/>
      <point x="1917" y="725"/>
      <point x="1899" y="782"/>
      <point x="1863" y="818" type="curve" smooth="yes"/>
      <point x="1113" y="1568" type="line"/>
      <point x="1069" y="1612"/>
      <point x="1026" y="1634"/>
      <point x="984" y="1634" type="curve" smooth="yes"/>
      <point x="941" y="1634"/>
      <point x="898" y="1612"/>
      <point x="854" y="1568" type="curve" smooth="yes"/>
      <point x="104" y="818" type="line" smooth="yes"/>
      <point x="69" y="783"/>
      <point x="50" y="726"/>
      <point x="50" y="661" type="curve" smooth="yes"/>
      <point x="50" y="521"/>
      <point x="150" y="458"/>
      <point x="233" y="458" type="curve" smooth="yes"/>
      <point x="599" y="458" type="line"/>
      <point x="599" y="259" type="line" smooth="yes"/>
      <point x="599" y="136"/>
      <point x="681" y="36"/>
    </contour>
    <contour>
      <point x="685" y="-304" type="curve" smooth="yes"/>
      <point x="1284" y="-304" type="line"/>
      <point x="1376" y="-304"/>
      <point x="1408" y="-253"/>
      <point x="1408" y="-204" type="curve" smooth="yes"/>
      <point x="1408" y="-185" type="line" smooth="yes"/>
      <point x="1408" y="-134"/>
      <point x="1374" y="-84"/>
      <point x="1282" y="-84" type="curve" smooth="yes"/>
      <point x="685" y="-84" type="line" smooth="yes"/>
      <point x="593" y="-84"/>
      <point x="559" y="-134"/>
      <point x="559" y="-184" type="curve" smooth="yes"/>
      <point x="559" y="-202" type="line" smooth="yes"/>
      <point x="559" y="-253"/>
      <point x="593" y="-304"/>
    </contour>
    <contour>
      <point x="780" y="247" type="line"/>
      <point x="780" y="679" type="line"/>
      <point x="277" y="679" type="line"/>
      <point x="970" y="1371" type="line"/>
      <point x="998" y="1371" type="line"/>
      <point x="1690" y="679" type="line"/>
      <point x="1187" y="679" type="line"/>
      <point x="1187" y="247" type="line"/>
    </contour>
  </outline>
</glyph>
<glyph name="wordjoiner" format="2">
  <unicode hex="E078"/>
  <outline>
    <contour>
      <point x="-272" y="-470" type="line"/>
      <point x="272" y="-470" type="line"/>
      <point x="272" y="-374" type="line"/>
      <point x="-272" y="-374" type="line"/>
    </contour>
    <contour>
      <point x="-272" y="1760" type="line"/>
      <point x="272" y="1760" type="line"/>
      <point x="272" y="1856" type="line"/>
      <point x="-272" y="1856" type="line"/>
    </contour>
    <contour>
      <point x="-48" y="-278" type="line"/>
      <point x="48" y="-278" type="line"/>
      <point x="48" y="1664" type="line"/>
      <point x="-48" y="1664" type="line"/>
    </contour>
    <contour>
      <point x="-272" y="1568" type="line"/>
      <point x="272" y="1568" type="line"/>
      <point x="272" y="1664" type="line"/>
      <point x="-272" y="1664" type="line"/>
    </contour>
    <contour>
      <point x="-272" y="-278" type="line"/>
      <point x="272" y="-278" type="line"/>
      <point x="272" y="-182" type="line"/>
      <point x="-272" y="-182" type="line"/>
    </contour>
  </outline>
</glyph>
